{
.appVersion = "1282";
DisplayStrings = (
"×÷+/minus ="
);
copyright = "Copyright © 2019 by Coji Morishita. All rights reserved.";
customParameters = (
{
name = vendorID;
value = "M+";
},
{
name = ROS;
value = "Adobe-Identity-0";
},
{
name = "Enforce Compatibility Check";
value = 1;
},
{
name = Axes;
value = (
{
Name = Weight;
Tag = wght;
}
);
},
{
name = "Use Typo Metrics";
value = 1;
},
{
name = note;
value = "%:    60% (Black +20, Thin 20, Medium +20)\012ord*: 80% (Black +10, Thin 20, Medium +10)\012*sup: 60% (Black +20, Thin 20, Medium +20)\012©®:   60% (Black +20, Thin 20, Medium +20)";
}
);
date = "2019-12-03 09:19:53 +0000";
designer = "Coji Morishita";
designerURL = "http://www.underforest.com";
familyName = Mplus;
featurePrefixes = (
{
automatic = 1;
code = "languagesystem DFLT dflt;\012\012languagesystem latn dflt;\012languagesystem latn AZE;\012languagesystem latn CRT;\012languagesystem latn KAZ;\012languagesystem latn TAT;\012languagesystem latn TRK;\012languagesystem latn ROM;\012languagesystem latn MOL;\012languagesystem latn CAT;\012";
name = Languagesystems;
}
);
features = (
{
automatic = 1;
code = "feature locl;\012feature sups;\012feature frac;\012feature ordn;\012feature pnum;\012feature tnum;\012feature case;\012";
name = aalt;
},
{
automatic = 1;
code = "lookup ccmp_Other_1 {\012	@CombiningTopAccents = [acutecomb brevecomb breveinvertedcomb caroncomb circumflexcomb commaturnedabovecomb dblgravecomb dieresiscomb dotaccentcomb gravecomb hookabovecomb hungarumlautcomb macroncomb ringcomb tildecomb];\012	@CombiningNonTopAccents = [brevebelowcomb cedillacomb dieresisbelowcomb dotbelowcomb macronbelowcomb ogonekcomb horncomb];\012	sub [i j]' @CombiningTopAccents by [idotless jdotless];\012	sub [i j]' @CombiningNonTopAccents @CombiningTopAccents by [idotless jdotless];\012} ccmp_Other_1;\012";
name = ccmp;
},
{
automatic = 1;

glyphs = (
{
color = 0;
glyphname = A;
lastChange = "2020-01-01 06:31:36 +0000";
layers = (
{
anchors = (
{
name = bottom;
position = "{324, 0}";
},
{
name = ogonek;
position = "{629, 0}";
},
{
name = top;
position = "{324, 730}";
},
{
name = top_ring;
position = "{324, 715}";
}
);
layerId = "D65C9A1E-0FCA-4B2D-8EDF-9F36CA9182A1";
leftMetricsKey = "=H*.2";
paths = (
{
closed = 1;
nodes = (
"41 0 LINE",
"323 711 LINE",
"325 711 LINE",
"607 0 LINE",
"629 0 LINE",
"339 730 LINE",
"309 730 LINE",
"19 0 LINE"
);
},
{
closed = 1;
nodes = (
"524 237 LINE",
"524 257 LINE",
"124 257 LINE",
"124 237 LINE"
);
}
);
width = 648;
},
{
anchors = (
{
name = bottom;
position = "{337, 0}";
},
{
name = ogonek;
position = "{662, 0}";
},
{
name = top;
position = "{337, 730}";
},
{
name = top_ring;
position = "{337, 700}";
}
);
layerId = "9527F797-22C1-480E-A1FE-2CDBEBE1FD4C";
paths = (
{
closed = 1;
nodes = (
"133 0 LINE",
"336 636 LINE",
"338 636 LINE",
"541 0 LINE",
"662 0 LINE",
"412 730 LINE",
"262 730 LINE",
"12 0 LINE"
);
},
{
closed = 1;
nodes = (
"527 183 LINE",
"527 283 LINE",
"147 283 LINE",
"147 183 LINE"
);
}
);
width = 674;
},
{
anchors = (
{
name = bottom;
position = "{352, 0}";
},
{
name = ogonek;
position = "{697, 0}";
},
{
name = top;
position = "{352, 730}";
},
{
name = top_ring;
position = "{353, 685}";
}
);
layerId = "9E6B41AB-2970-4C41-8B35-4DBE0D296A43";
leftMetricsKey = "=H*.1";
paths = (
{
closed = 1;
nodes = (
"227 0 LINE",
"351 560 LINE",
"353 560 LINE",
"477 0 LINE",
"697 0 LINE",
"487 730 LINE",
"217 730 LINE",
"7 0 LINE"
);
},
{
closed = 1;
nodes = (
"532 135 LINE",
"532 300 LINE",
"172 300 LINE",
"172 135 LINE"
);
}
);
width = 704;
}
);
leftKerningGroup = A;
leftMetricsKey = "=H*.15";
rightKerningGroup = A;
rightMetricsKey = "=|";
unicode = 0041;
},
{
color = 3;
glyphname = AE;
lastChange = "2020-01-07 03:17:23 +0000";
layers = (
{
anchors = (
{
name = bottom;
position = "{440, 0}";
},
{
name = top;
position = "{440, 730}";
}
);
layerId = "D65C9A1E-0FCA-4B2D-8EDF-9F36CA9182A1";
paths = (
{
closed = 1;
nodes = (
"42 0 LINE",
"393 710 LINE",
"413 710 LINE",
"413 0 LINE",
"733 0 LINE",
"733 20 LINE",
"433 20 LINE",
"433 380 LINE",
"713 380 LINE",
"713 400 LINE",
"433 400 LINE",
"433 710 LINE",
"733 710 LINE",
"733 730 LINE",
"381 730 LINE",
"19 0 LINE"
);
},
{
closed = 1;
nodes = (
"423 237 LINE",
"423 257 LINE",
"153 257 LINE",
"153 237 LINE"
);
}
);
width = 804;
},
{
anchors = (
{
name = bottom;
position = "{460, 0}";
},
{
name = top;
position = "{460, 730}";
}
);
layerId = "9527F797-22C1-480E-A1FE-2CDBEBE1FD4C";
paths = (
{
closed = 1;
nodes = (
"133 0 LINE",
"384 640 LINE",
"409 640 LINE",
"409 0 LINE",
"794 0 LINE",
"794 98 LINE",
"519 98 LINE",
"519 335 LINE",
"774 335 LINE",
"774 430 LINE",
"519 430 LINE",
"519 632 LINE",
"794 632 LINE",
"794 730 LINE",
"313 730 LINE",
"12 0 LINE"
);
},
{
closed = 1;
nodes = (
"469 183 LINE",
"469 283 LINE",
"157 283 LINE",
"157 183 LINE"
);
}
);
width = 858;
},
{
anchors = (
{
name = bottom;
position = "{480, 0}";
},
{
name = top;
position = "{480, 730}";
}
);
layerId = "9E6B41AB-2970-4C41-8B35-4DBE0D296A43";
paths = (
{
closed = 1;
nodes = (
"227 0 LINE",
"377 570 LINE",
"407 570 LINE",
"407 0 LINE",
"857 0 LINE",
"857 160 LINE",
"607 160 LINE",
"607 298 LINE",
"837 298 LINE",
"837 453 LINE",
"607 453 LINE",
"607 570 LINE",
"857 570 LINE",
"857 730 LINE",
"247 730 LINE",
"7 0 LINE"
);
},
{
closed = 1;
nodes = (
"517 135 LINE",
"517 300 LINE",
"162 300 LINE",
"162 135 LINE"
);
}
);
width = 912;
}
);
leftKerningGroup = A;
leftMetricsKey = "=A";
rightKerningGroup = E;
rightMetricsKey = "=E";
unicode = 00C6;
},
{
color = 0;
glyphname = B;
lastChange = "2019-12-20 14:06:42 +0000";
layers = (
{
layerId = "9527F797-22C1-480E-A1FE-2CDBEBE1FD4C";
rightMetricsKey = "=|*.45";
paths = (
{
closed = 1;
nodes = (
"300 0 LINE SMOOTH",
"508 0 OFFCURVE",
"610 67 OFFCURVE",
"610 205 CURVE SMOOTH",
"610 308 OFFCURVE",
"553 370 OFFCURVE",
"443 387 CURVE",
"443 389 LINE",
"530 407 OFFCURVE",
"580 466 OFFCURVE",
"580 553 CURVE SMOOTH",
"580 672 OFFCURVE",
"487 730 OFFCURVE",
"295 730 CURVE SMOOTH",
"80 730 LINE",
"80 0 LINE"
);
},
{
closed = 1;
nodes = (
"190 632 LINE",
"300 632 LINE SMOOTH",
"420 632 OFFCURVE",
"470 603 OFFCURVE",
"470 534 CURVE SMOOTH",
"470 463 OFFCURVE",
"417 430 OFFCURVE",
"300 430 CURVE SMOOTH",
"135 430 LINE",
"135 335 LINE",
"300 335 LINE SMOOTH",
"436 335 OFFCURVE",
"498 298 OFFCURVE",
"498 216 CURVE SMOOTH",
"498 134 OFFCURVE",
"437 98 OFFCURVE",
"300 98 CURVE SMOOTH",
"190 98 LINE"
);
}
);
width = 646;
},
{
layerId = "9E6B41AB-2970-4C41-8B35-4DBE0D296A43";
rightMetricsKey = "=|*.5";
paths = (
{
closed = 1;
nodes = (
"325 0 LINE SMOOTH",
"533 0 OFFCURVE",
"645 73 OFFCURVE",
"645 210 CURVE SMOOTH",
"645 310 OFFCURVE",
"586 370 OFFCURVE",
"475 384 CURVE",
"475 386 LINE",
"569 400 OFFCURVE",
"625 461 OFFCURVE",
"625 550 CURVE SMOOTH",
"625 668 OFFCURVE",
"518 730 OFFCURVE",
"315 730 CURVE SMOOTH",
"65 730 LINE",
"65 0 LINE"
);
},
{
closed = 1;
nodes = (
"265 575 LINE",
"325 575 LINE SMOOTH",
"398 575 OFFCURVE",
"425 558 OFFCURVE",
"425 512 CURVE SMOOTH",
"425 466 OFFCURVE",
"399 450 OFFCURVE",
"325 450 CURVE SMOOTH",
"165 450 LINE",
"165 300 LINE",
"325 300 LINE SMOOTH",
"405 300 OFFCURVE",
"440 278 OFFCURVE",
"440 228 CURVE SMOOTH",
"440 178 OFFCURVE",
"404 155 OFFCURVE",
"325 155 CURVE SMOOTH",
"265 155 LINE"
);
}
);
width = 678;
},
{
layerId = "D65C9A1E-0FCA-4B2D-8EDF-9F36CA9182A1";
rightMetricsKey = "=|*.4";
paths = (
{
closed = 1;
nodes = (
"275 0 LINE SMOOTH",
"479 0 OFFCURVE",
"575 63 OFFCURVE",
"575 200 CURVE SMOOTH",
"575 308 OFFCURVE",
"516 369 OFFCURVE",
"391 390 CURVE",
"391 392 LINE",
"487 414 OFFCURVE",
"535 467 OFFCURVE",
"535 555 CURVE SMOOTH",
"535 673 OFFCURVE",
"448 730 OFFCURVE",
"275 730 CURVE SMOOTH",
"95 730 LINE",
"95 0 LINE"
);
},
{
closed = 1;
nodes = (
"115 710 LINE",
"275 710 LINE SMOOTH",
"438 710 OFFCURVE",
"515 660 OFFCURVE",
"515 555 CURVE SMOOTH",
"515 450 OFFCURVE",
"438 400 OFFCURVE",
"275 400 CURVE SMOOTH",
"105 400 LINE",
"105 380 LINE",
"275 380 LINE SMOOTH",
"468 380 OFFCURVE",
"555 324 OFFCURVE",
"555 200 CURVE SMOOTH",
"555 76 OFFCURVE",
"468 20 OFFCURVE",
"275 20 CURVE SMOOTH",
"115 20 LINE"
);
}
);
width = 613;
}
);
leftKerningGroup = H;
leftMetricsKey = "=H";
rightKerningGroup = B;
rightMetricsKey = "=|*.5";
unicode = 0042;
},
{
color = 0;
glyphname = C;
lastChange = "2020-01-01 07:22:25 +0000";
layers = (
{
anchors = (
{
name = bottom;
position = "{380, 0}";
},
{
name = top;
position = "{380, 730}";
}
);
layerId = "D65C9A1E-0FCA-4B2D-8EDF-9F36CA9182A1";
paths = (
{
closed = 1;
nodes = (
"486 -10 OFFCURVE",
"563 12 OFFCURVE",
"627 55 CURVE",
"616 72 LINE",
"555 31 OFFCURVE",
"483 10 OFFCURVE",
"403 10 CURVE SMOOTH",
"198 10 OFFCURVE",
"67 149 OFFCURVE",
"67 365 CURVE SMOOTH",
"67 581 OFFCURVE",
"199 720 OFFCURVE",
"403 720 CURVE SMOOTH",
"483 720 OFFCURVE",
"555 699 OFFCURVE",
"616 658 CURVE",
"627 675 LINE",
"563 718 OFFCURVE",
"486 740 OFFCURVE",
"403 740 CURVE SMOOTH",
"188 740 OFFCURVE",
"47 592 OFFCURVE",
"47 365 CURVE SMOOTH",
"47 138 OFFCURVE",
"187 -10 OFFCURVE",
"403 -10 CURVE SMOOTH"
);
}
);
width = 684;
},
{
anchors = (
{
name = bottom;
position = "{380, 0}";
},
{
name = top;
position = "{380, 730}";
}
);
layerId = "9527F797-22C1-480E-A1FE-2CDBEBE1FD4C";
paths = (
{
closed = 1;
nodes = (
"493 -10 OFFCURVE",
"575 12 OFFCURVE",
"643 56 CURVE",
"597 145 LINE",
"539 109 OFFCURVE",
"476 90 OFFCURVE",
"408 90 CURVE SMOOTH",
"249 90 OFFCURVE",
"153 194 OFFCURVE",
"153 365 CURVE SMOOTH",
"153 536 OFFCURVE",
"249 640 OFFCURVE",
"408 640 CURVE SMOOTH",
"476 640 OFFCURVE",
"539 621 OFFCURVE",
"597 585 CURVE",
"643 674 LINE",
"575 718 OFFCURVE",
"493 740 OFFCURVE",
"403 740 CURVE SMOOTH",
"176 740 OFFCURVE",
"40 599 OFFCURVE",
"40 365 CURVE SMOOTH",
"40 131 OFFCURVE",
"176 -10 OFFCURVE",
"403 -10 CURVE SMOOTH"
);
}
);
width = 691;
},
{
anchors = (
{
name = bottom;
position = "{380, 0}";
},
{
name = top;
position = "{380, 730}";
}
);
layerId = "9E6B41AB-2970-4C41-8B35-4DBE0D296A43";
paths = (
{
closed = 1;
nodes = (
"498 -10 OFFCURVE",
"583 12 OFFCURVE",
"657 56 CURVE",
"577 211 LINE",
"516 176 OFFCURVE",
"465 160 OFFCURVE",
"412 160 CURVE SMOOTH",
"299 160 OFFCURVE",
"237 233 OFFCURVE",
"237 365 CURVE SMOOTH",
"237 497 OFFCURVE",
"299 570 OFFCURVE",
"412 570 CURVE SMOOTH",
"465 570 OFFCURVE",
"516 554 OFFCURVE",
"577 519 CURVE",
"657 674 LINE",
"583 718 OFFCURVE",
"498 740 OFFCURVE",
"402 740 CURVE SMOOTH",
"164 740 OFFCURVE",
"32 606 OFFCURVE",
"32 365 CURVE SMOOTH",
"32 124 OFFCURVE",
"164 -10 OFFCURVE",
"402 -10 CURVE SMOOTH"
);
}
);
width = 696;
}
);
leftKerningGroup = O;
leftMetricsKey = "=O";
rightKerningGroup = C;
rightMetricsKey = "=H*.6";
unicode = 0043;
},
{
color = 0;
glyphname = D;
lastChange = "2020-01-01 07:49:54 +0000";
layers = (
{
anchors = (
{
name = bottom;
position = "{336, 0}";
},
{
name = center;
position = "{336, 365}";
},
{
name = top;
position = "{336, 730}";
}
);
layerId = "D65C9A1E-0FCA-4B2D-8EDF-9F36CA9182A1";
paths = (
{
closed = 1;
nodes = (
"255 0 LINE SMOOTH",
"497 0 OFFCURVE",
"625 126 OFFCURVE",
"625 365 CURVE SMOOTH",
"625 604 OFFCURVE",
"497 730 OFFCURVE",
"255 730 CURVE SMOOTH",
"95 730 LINE",
"95 0 LINE"
);
},
{
closed = 1;
nodes = (
"115 710 LINE",
"255 710 LINE SMOOTH",
"487 710 OFFCURVE",
"605 593 OFFCURVE",
"605 365 CURVE SMOOTH",
"605 137 OFFCURVE",
"487 20 OFFCURVE",
"255 20 CURVE SMOOTH",
"115 20 LINE"
);
}
);
width = 672;
},
{
anchors = (
{
name = bottom;
position = "{343, 0}";
},
{
name = center;
position = "{343, 365}";
},
{
name = top;
position = "{343, 730}";
}
);
layerId = "9527F797-22C1-480E-A1FE-2CDBEBE1FD4C";
paths = (
{
closed = 1;
nodes = (
"275 0 LINE SMOOTH",
"526 0 OFFCURVE",
"645 117 OFFCURVE",
"645 365 CURVE SMOOTH",
"645 613 OFFCURVE",
"526 730 OFFCURVE",
"275 730 CURVE SMOOTH",
"80 730 LINE",
"80 0 LINE"
);
},
{
closed = 1;
nodes = (
"190 630 LINE",
"282 630 LINE SMOOTH",
"459 630 OFFCURVE",
"533 552 OFFCURVE",
"533 365 CURVE SMOOTH",
"533 178 OFFCURVE",
"459 100 OFFCURVE",
"282 100 CURVE SMOOTH",
"190 100 LINE"
);
}
);
width = 685;
},
{
anchors = (
{
name = bottom;
position = "{349, 0}";
},
{
name = center;
position = "{349, 365}";
},
{
name = top;
position = "{349, 730}";
}
);
layerId = "9E6B41AB-2970-4C41-8B35-4DBE0D296A43";
paths = (
{
closed = 1;
nodes = (
"295 0 LINE SMOOTH",
"554 0 OFFCURVE",
"665 109 OFFCURVE",
"665 365 CURVE SMOOTH",
"665 621 OFFCURVE",
"554 730 OFFCURVE",
"295 730 CURVE",
"65 730 LINE",
"65 0 LINE"
);
},
{
closed = 1;
nodes = (
"265 570 LINE",
"308 570 LINE SMOOTH",
"426 570 OFFCURVE",
"460 524 OFFCURVE",
"460 365 CURVE SMOOTH",
"460 206 OFFCURVE",
"426 160 OFFCURVE",
"308 160 CURVE SMOOTH",
"265 160 LINE"
);
}
);
width = 697;
}
);
leftKerningGroup = H;
leftMetricsKey = "=H";
rightKerningGroup = O;
rightMetricsKey = "=O";
unicode = 0044;
},
{
color = 3;
glyphname = Eth;
lastChange = "2020-01-07 03:17:23 +0000";
layers = (
{
anchors = (
{
name = bottom;
position = "{391, 0}";
},
{
name = center;
position = "{391, 365}";
},
{
name = top;
position = "{391, 730}";
}
);
components = (
{
name = D;
transform = "{1, 0, 0, 1, 55, 0}";
}
);
layerId = "D65C9A1E-0FCA-4B2D-8EDF-9F36CA9182A1";
paths = (
{
closed = 1;
nodes = (
"450 355 LINE",
"450 375 LINE",
"30 375 LINE",
"30 355 LINE"
);
}
);
width = 727;
},
{
anchors = (
{
name = bottom;
position = "{399, 0}";
},
{
name = center;
position = "{399, 365}";
},
{
name = top;
position = "{399, 730}";
}
);
components = (
{
alignment = -1;
name = D;
transform = "{1, 0, 0, 1, 56, 0}";
}
);
layerId = "9527F797-22C1-480E-A1FE-2CDBEBE1FD4C";
paths = (
{
closed = 1;
nodes = (
"446 320 LINE",
"446 410 LINE",
"26 410 LINE",
"26 320 LINE"
);
}
);
width = 741;
},
{
anchors = (
{
name = bottom;
position = "{406, 0}";
},
{
name = center;
position = "{406, 365}";
},
{
name = top;
position = "{406, 730}";
}
);
components = (
{
name = D;
transform = "{1, 0, 0, 1, 57, 0}";
}
);
layerId = "9E6B41AB-2970-4C41-8B35-4DBE0D296A43";
paths = (
{
closed = 1;
nodes = (
"442 295 LINE",
"442 435 LINE",
"22 435 LINE",
"22 295 LINE"
);
}
);
width = 754;
}
);
leftKerningGroup = f;
leftMetricsKey = "=f*1.2";
rightKerningGroup = O;
rightMetricsKey = "=O";
unicode = 00D0;
},
{
color = 0;
glyphname = E;
lastChange = "2020-01-01 12:30:03 +0000";
layers = (
{
anchors = (
{
name = bottom;
position = "{310, 0}";
},
{
name = ogonek;
position = "{515, 0}";
},
{
name = top;
position = "{310, 730}";
},
{
name = topleft;
position = "{20, 730}";
}
);
layerId = "D65C9A1E-0FCA-4B2D-8EDF-9F36CA9182A1";
rightMetricsKey = "=H*.75";
paths = (
{
closed = 1;
nodes = (
"515 0 LINE",
"515 20 LINE",
"115 20 LINE",
"115 380 LINE",
"495 380 LINE",
"495 400 LINE",
"115 400 LINE",
"115 710 LINE",
"515 710 LINE",
"515 730 LINE",
"95 730 LINE",
"95 0 LINE"
);
}
);
width = 586;
},
{
anchors = (
{
name = bottom;
position = "{310, 0}";
},
{
name = ogonek;
position = "{535, 0}";
},
{
name = top;
position = "{310, 730}";
},
{
name = topleft;
position = "{20, 730}";
}
);
layerId = "9527F797-22C1-480E-A1FE-2CDBEBE1FD4C";
rightMetricsKey = "=H*.8";
paths = (
{
closed = 1;
nodes = (
"535 0 LINE",
"535 98 LINE",
"190 98 LINE",
"190 335 LINE",
"515 335 LINE",
"515 430 LINE",
"190 430 LINE",
"190 632 LINE",
"535 632 LINE",
"535 730 LINE",
"80 730 LINE",
"80 0 LINE"
);
}
);
width = 599;
},
{
anchors = (
{
name = bottom;
position = "{310, 0}";
},
{
name = ogonek;
position = "{555, 0}";
},
{
name = top;
position = "{310, 730}";
},
{
name = topleft;
position = "{20, 730}";
}
);
layerId = "9E6B41AB-2970-4C41-8B35-4DBE0D296A43";
rightMetricsKey = "=H*.85";
paths = (
{
closed = 1;
nodes = (
"555 0 LINE",
"555 160 LINE",
"265 160 LINE",
"265 298 LINE",
"535 298 LINE",
"535 453 LINE",
"265 453 LINE",
"265 570 LINE",
"555 570 LINE",
"555 730 LINE",
"65 730 LINE",
"65 0 LINE"
);
}
);
width = 610;
}
);
leftKerningGroup = H;
leftMetricsKey = "=H";
rightKerningGroup = E;
rightMetricsKey = "=H*.85";
unicode = 0045;
},
{
color = 0;
glyphname = F;
lastChange = "2019-12-20 14:06:42 +0000";
layers = (
{
layerId = "D65C9A1E-0FCA-4B2D-8EDF-9F36CA9182A1";
rightMetricsKey = "=H*.55";
paths = (
{
closed = 1;
nodes = (
"115 0 LINE",
"115 380 LINE",
"495 380 LINE",
"495 400 LINE",
"115 400 LINE",
"115 710 LINE",
"515 710 LINE",
"515 730 LINE",
"95 730 LINE",
"95 0 LINE"
);
}
);
width = 567;
},
{
layerId = "9527F797-22C1-480E-A1FE-2CDBEBE1FD4C";
rightMetricsKey = "=H*.65";
paths = (
{
closed = 1;
nodes = (
"190 0 LINE",
"190 317 LINE",
"515 317 LINE",
"515 415 LINE",
"190 415 LINE",
"190 630 LINE",
"535 630 LINE",
"535 730 LINE",
"80 730 LINE",
"80 0 LINE"
);
}
);
width = 587;
},
{
layerId = "9E6B41AB-2970-4C41-8B35-4DBE0D296A43";
rightMetricsKey = "=H*.75";
paths = (
{
closed = 1;
nodes = (
"265 0 LINE",
"265 270 LINE",
"535 270 LINE",
"535 430 LINE",
"265 430 LINE",
"265 565 LINE",
"555 565 LINE",
"555 730 LINE",
"65 730 LINE",
"65 0 LINE"
);
}
);
width = 604;
}
);
leftKerningGroup = H;
leftMetricsKey = "=H";
rightKerningGroup = F;
rightMetricsKey = "=H*.75";
unicode = 0046;
},
{
color = 0;
glyphname = G;
lastChange = "2020-01-01 12:50:02 +0000";
layers = (
{
anchors = (
{
name = bottom;
position = "{410, 0}";
},
{
name = top;
position = "{410, 730}";
}
);
layerId = "D65C9A1E-0FCA-4B2D-8EDF-9F36CA9182A1";
paths = (
{
closed = 1;
nodes = (
"523 -10 OFFCURVE",
"627 11 OFFCURVE",
"697 44 CURVE",
"697 400 LINE",
"356 400 LINE",
"356 380 LINE",
"677 380 LINE",
"677 45 LINE",
"688 62 LINE",
"621 30 OFFCURVE",
"520 10 OFFCURVE",
"431 10 CURVE SMOOTH",
"203 10 OFFCURVE",
"67 142 OFFCURVE",
"67 365 CURVE SMOOTH",
"67 588 OFFCURVE",
"203 720 OFFCURVE",
"431 720 CURVE SMOOTH",
"518 720 OFFCURVE",
"595 701 OFFCURVE",
"660 663 CURVE",
"670 680 LINE",
"602 720 OFFCURVE",
"521 740 OFFCURVE",
"431 740 CURVE SMOOTH",
"192 740 OFFCURVE",
"47 599 OFFCURVE",
"47 365 CURVE SMOOTH",
"47 131 OFFCURVE",
"192 -10 OFFCURVE",
"431 -10 CURVE SMOOTH"
);
}
);
width = 778;
},
{
anchors = (
{
name = bottom;
position = "{405, 0}";
},
{
name = top;
position = "{405, 730}";
}
);
layerId = "9527F797-22C1-480E-A1FE-2CDBEBE1FD4C";
paths = (
{
closed = 1;
nodes = (
"531 -10 OFFCURVE",
"632 11 OFFCURVE",
"705 47 CURVE",
"705 427 LINE",
"365 427 LINE",
"365 332 LINE",
"595 332 LINE",
"595 83 LINE",
"616 125 LINE",
"567 102 OFFCURVE",
"498 88 OFFCURVE",
"432 88 CURVE SMOOTH",
"253 88 OFFCURVE",
"153 187 OFFCURVE",
"153 365 CURVE SMOOTH",
"153 543 OFFCURVE",
"253 642 OFFCURVE",
"432 642 CURVE SMOOTH",
"507 642 OFFCURVE",
"576 624 OFFCURVE",
"635 591 CURVE",
"679 677 LINE",
"613 719 OFFCURVE",
"529 740 OFFCURVE",
"432 740 CURVE SMOOTH",
"187 740 OFFCURVE",
"40 600 OFFCURVE",
"40 365 CURVE SMOOTH",
"40 130 OFFCURVE",
"187 -10 OFFCURVE",
"432 -10 CURVE SMOOTH"
);
}
);
width = 773;
},
{
anchors = (
{
name = bottom;
position = "{400, 0}";
},
{
name = top;
position = "{400, 730}";
}
);
layerId = "9E6B41AB-2970-4C41-8B35-4DBE0D296A43";
paths = (
{
closed = 1;
nodes = (
"538 -10 OFFCURVE",
"636 11 OFFCURVE",
"712 50 CURVE",
"712 452 LINE",
"367 452 LINE",
"367 287 LINE",
"512 287 LINE",
"512 121 LINE",
"542 177 LINE",
"506 162 OFFCURVE",
"473 155 OFFCURVE",
"432 155 CURVE SMOOTH",
"302 155 OFFCURVE",
"237 226 OFFCURVE",
"237 365 CURVE SMOOTH",
"237 504 OFFCURVE",
"302 575 OFFCURVE",
"432 575 CURVE SMOOTH",
"494 575 OFFCURVE",
"552 559 OFFCURVE",
"612 524 CURVE",
"687 674 LINE",
"622 717 OFFCURVE",
"535 740 OFFCURVE",
"432 740 CURVE SMOOTH",
"180 740 OFFCURVE",
"32 601 OFFCURVE",
"32 365 CURVE SMOOTH",
"32 129 OFFCURVE",
"180 -10 OFFCURVE",
"432 -10 CURVE SMOOTH"
);
}
);
width = 767;
}
);
leftKerningGroup = O;
leftMetricsKey = "=O";
rightKerningGroup = G;
rightMetricsKey = "=H*.85";
unicode = 0047;
},
{
color = 0;
glyphname = H;
lastChange = "2020-01-01 12:57:10 +0000";
layers = (
{
anchors = (
{
name = bottom;
position = "{350, 0}";
},
{
name = center;
position = "{350, 365}";
},
{
name = top;
position = "{350, 730}";
},
{
name = topleft;
position = "{20, 730}";
}
);
layerId = "D65C9A1E-0FCA-4B2D-8EDF-9F36CA9182A1";
paths = (
{
closed = 1;
nodes = (
"605 0 LINE",
"605 730 LINE",
"585 730 LINE",
"585 0 LINE"
);
},
{
closed = 1;
nodes = (
"115 0 LINE",
"115 730 LINE",
"95 730 LINE",
"95 0 LINE"
);
},
{
closed = 1;
nodes = (
"595 380 LINE",
"595 400 LINE",
"105 400 LINE",
"105 380 LINE"
);
}
);
width = 700;
},
{
anchors = (
{
name = bottom;
position = "{358, 0}";
},
{
name = center;
position = "{358, 365}";
},
{
name = top;
position = "{358, 730}";
},
{
name = topleft;
position = "{20, 730}";
}
);
layerId = "9527F797-22C1-480E-A1FE-2CDBEBE1FD4C";
paths = (
{
closed = 1;
nodes = (
"635 0 LINE",
"635 730 LINE",
"525 730 LINE",
"525 0 LINE"
);
},
{
closed = 1;
nodes = (
"190 0 LINE",
"190 730 LINE",
"80 730 LINE",
"80 0 LINE"
);
},
{
closed = 1;
nodes = (
"580 335 LINE",
"580 435 LINE",
"135 435 LINE",
"135 335 LINE"
);
}
);
width = 715;
},
{
anchors = (
{
name = bottom;
position = "{365, 0}";
},
{
name = center;
position = "{365, 365}";
},
{
name = top;
position = "{365, 730}";
},
{
name = topleft;
position = "{20, 730}";
}
);
layerId = "9E6B41AB-2970-4C41-8B35-4DBE0D296A43";
paths = (
{
closed = 1;
nodes = (
"665 0 LINE",
"665 730 LINE",
"465 730 LINE",
"465 0 LINE"
);
},
{
closed = 1;
nodes = (
"265 0 LINE",
"265 730 LINE",
"65 730 LINE",
"65 0 LINE"
);
},
{
closed = 1;
nodes = (
"565 295 LINE",
"565 465 LINE",
"165 465 LINE",
"165 295 LINE"
);
}
);
width = 730;
}
);
leftKerningGroup = H;
rightKerningGroup = H;
rightMetricsKey = "=|";
unicode = 0048;
},
{
glyphname = Hbar;
lastChange = "2020-01-01 13:03:09 +0000";
layers = (
{
components = (
{
name = H;
transform = "{1, 0, 0, 1, 30, 0}";
}
);
layerId = "D65C9A1E-0FCA-4B2D-8EDF-9F36CA9182A1";
paths = (
{
closed = 1;
nodes = (
"730 586 LINE",
"730 606 LINE",
"30 606 LINE",
"30 586 LINE"
);
}
);
width = 760;
},
{
components = (
{
alignment = -1;
name = H;
transform = "{1, 0, 0, 1, 40, 0}";
}
);
layerId = "9527F797-22C1-480E-A1FE-2CDBEBE1FD4C";
paths = (
{
closed = 1;
nodes = (
"768 551 LINE",
"768 641 LINE",
"28 641 LINE",
"28 551 LINE"
);
}
);
width = 796;
},
{
components = (
{
name = H;
transform = "{1, 0, 0, 1, 46, 0}";
}
);
layerId = "9E6B41AB-2970-4C41-8B35-4DBE0D296A43";
paths = (
{
closed = 1;
nodes = (
"801 526 LINE",
"801 666 LINE",
"21 666 LINE",
"21 526 LINE"
);
}
);
width = 822;
}
);
leftKerningGroup = W;
leftMetricsKey = "=W";
rightKerningGroup = W;
rightMetricsKey = "=|";
unicode = 0126;
},
{
color = 0;
glyphname = I;
lastChange = "2020-01-01 13:54:00 +0000";
layers = (
{
anchors = (
{
name = bottom;
position = "{115, 0}";
},
{
name = ogonek;
position = "{125, 0}";
},
{
name = top;
position = "{115, 730}";
},
{
name = topleft;
position = "{20, 730}";
}
);
layerId = "D65C9A1E-0FCA-4B2D-8EDF-9F36CA9182A1";
paths = (
{
closed = 1;
nodes = (
"125 0 LINE",
"125 730 LINE",
"105 730 LINE",
"105 0 LINE"
);
}
);
width = 230;
},
{
anchors = (
{
name = bottom;
position = "{145, 0}";
},
{
name = ogonek;
position = "{202, 0}";
},
{
name = top;
position = "{145, 730}";
},
{
name = topleft;
position = "{20, 730}";
}
);
layerId = "9527F797-22C1-480E-A1FE-2CDBEBE1FD4C";
paths = (
{
closed = 1;
nodes = (
"202 0 LINE",
"202 730 LINE",
"88 730 LINE",
"88 0 LINE"
);
}
);
width = 290;
},
{
anchors = (
{
name = bottom;
position = "{177, 0}";
},
{
name = ogonek;
position = "{282, 0}";
},
{
name = top;
position = "{177, 730}";
},
{
name = topleft;
position = "{20, 730}";
}
);
layerId = "9E6B41AB-2970-4C41-8B35-4DBE0D296A43";
paths = (
{
closed = 1;
nodes = (
"282 0 LINE",
"282 730 LINE",
"72 730 LINE",
"72 0 LINE"
);
}
);
width = 354;
}
);
leftKerningGroup = I;
leftMetricsKey = "=H*1.1";
rightKerningGroup = I;
rightMetricsKey = "=|";
unicode = 0049;
},
{
color = 0;
glyphname = J;
lastChange = "2020-01-01 14:06:20 +0000";
layers = (
{
anchors = (
{
name = bottom;
position = "{275, 0}";
},
{
name = top;
position = "{275, 730}";
}
);
layerId = "D65C9A1E-0FCA-4B2D-8EDF-9F36CA9182A1";
leftMetricsKey = "=H*.15";
paths = (
{
closed = 1;
nodes = (
"385 -10 OFFCURVE",
"464 85 OFFCURVE",
"464 280 CURVE SMOOTH",
"464 730 LINE",
"444 730 LINE",
"444 280 LINE SMOOTH",
"444 96 OFFCURVE",
"373 10 OFFCURVE",
"223 10 CURVE SMOOTH",
"149 10 OFFCURVE",
"76 31 OFFCURVE",
"26 66 CURVE",
"14 50 LINE",
"68 12 OFFCURVE",
"145 -10 OFFCURVE",
"223 -10 CURVE SMOOTH"
);
}
);
width = 549;
},
{
anchors = (
{
name = bottom;
position = "{284, 0}";
},
{
name = top;
position = "{284, 730}";
}
);
layerId = "9527F797-22C1-480E-A1FE-2CDBEBE1FD4C";
leftMetricsKey = "=H*.1";
paths = (
{
closed = 1;
nodes = (
"412 -10 OFFCURVE",
"495 82 OFFCURVE",
"495 280 CURVE SMOOTH",
"495 730 LINE",
"382 730 LINE",
"382 280 LINE SMOOTH",
"382 150 OFFCURVE",
"331 90 OFFCURVE",
"222 90 CURVE SMOOTH",
"164 90 OFFCURVE",
"103 107 OFFCURVE",
"46 138 CURVE",
"8 45 LINE",
"72 9 OFFCURVE",
"149 -10 OFFCURVE",
"232 -10 CURVE SMOOTH"
);
}
);
width = 567;
},
{
anchors = (
{
name = bottom;
position = "{293, 0}";
},
{
name = top;
position = "{293, 730}";
}
);
layerId = "9E6B41AB-2970-4C41-8B35-4DBE0D296A43";
leftMetricsKey = "=H*.05";
paths = (
{
closed = 1;
nodes = (
"440 -10 OFFCURVE",
"526 78 OFFCURVE",
"526 280 CURVE SMOOTH",
"526 730 LINE",
"321 730 LINE",
"321 280 LINE SMOOTH",
"321 201 OFFCURVE",
"289 165 OFFCURVE",
"221 165 CURVE SMOOTH",
"177 165 OFFCURVE",
"120 180 OFFCURVE",
"48 209 CURVE",
"3 39 LINE",
"76 6 OFFCURVE",
"165 -10 OFFCURVE",
"241 -10 CURVE SMOOTH"
);
}
);
width = 585;
}
);
leftKerningGroup = J;
leftMetricsKey = "=H*.05";
rightKerningGroup = U;
rightMetricsKey = "=U";
unicode = 004A;
},
{
color = 0;
glyphname = K;
lastChange = "2020-01-01 14:23:51 +0000";
layers = (
{
anchors = (
{
name = bottom;
position = "{280, 0}";
},
{
name = top;
position = "{280, 730}";
}
);
layerId = "D65C9A1E-0FCA-4B2D-8EDF-9F36CA9182A1";
rightMetricsKey = "=H*.3";
paths = (
{
closed = 1;
nodes = (
"115 0 LINE",
"115 376 LINE",
"117 376 LINE",
"545 0 LINE",
"575 0 LINE",
"130 390 LINE",
"565 730 LINE",
"532 730 LINE",
"117 404 LINE",
"115 404 LINE",
"115 730 LINE",
"95 730 LINE",
"95 0 LINE"
);
}
);
width = 604;
},
{
anchors = (
{
name = bottom;
position = "{310, 0}";
},
{
name = top;
position = "{310, 730}";
}
);
layerId = "9527F797-22C1-480E-A1FE-2CDBEBE1FD4C";
rightMetricsKey = "=H*.25";
paths = (
{
closed = 1;
nodes = (
"190 0 LINE",
"190 350 LINE",
"192 350 LINE",
"499 0 LINE",
"635 0 LINE",
"293 385 LINE",
"625 730 LINE",
"489 730 LINE",
"192 421 LINE",
"190 421 LINE",
"190 730 LINE",
"80 730 LINE",
"80 0 LINE"
);
}
);
width = 655;
},
{
anchors = (
{
name = bottom;
position = "{340, 0}";
},
{
name = top;
position = "{340, 730}";
}
);
layerId = "9E6B41AB-2970-4C41-8B35-4DBE0D296A43";
rightMetricsKey = "=H*.2";
paths = (
{
closed = 1;
nodes = (
"265 0 LINE",
"265 340 LINE",
"267 340 LINE",
"465 0 LINE",
"695 0 LINE",
"455 380 LINE",
"685 730 LINE",
"455 730 LINE",
"267 420 LINE",
"265 420 LINE",
"265 730 LINE",
"65 730 LINE",
"65 0 LINE"
);
}
);
width = 708;
}
);
leftKerningGroup = H;
leftMetricsKey = "=H";
rightKerningGroup = K;
rightMetricsKey = "=H*.2";
unicode = 004B;
},
{
color = 0;
glyphname = L;
lastChange = "2020-01-02 02:14:43 +0000";
layers = (
{
anchors = (
{
name = bottom;
position = "{292, 0}";
},
{
name = center;
position = "{292, 375}";
},
{
name = pdcenter;
position = "{535, 375}";
},
{
name = top;
position = "{292, 730}";
},
{
name = topright;
position = "{563, 730}";
}
);
layerId = "D65C9A1E-0FCA-4B2D-8EDF-9F36CA9182A1";
rightMetricsKey = "=H*.5";
paths = (
{
closed = 1;
nodes = (
"535 0 LINE",
"535 20 LINE",
"115 20 LINE",
"115 730 LINE",
"95 730 LINE",
"95 0 LINE"
);
}
);
width = 583;
},
{
anchors = (
{
name = bottom;
position = "{293, 0}";
},
{
name = center;
position = "{293, 375}";
},
{
name = pdcenter;
position = "{550, 375}";
},
{
name = top;
position = "{293, 730}";
},
{
name = topright;
position = "{566, 730}";
}
);
layerId = "9527F797-22C1-480E-A1FE-2CDBEBE1FD4C";
rightMetricsKey = "=H*.45";
paths = (
{
closed = 1;
nodes = (
"550 0 LINE",
"550 100 LINE",
"193 100 LINE",
"193 730 LINE",
"80 730 LINE",
"80 0 LINE"
);
}
);
width = 586;
},
{
anchors = (
{
name = bottom;
position = "{296, 0}";
},
{
name = center;
position = "{296, 375}";
},
{
name = pdcenter;
position = "{565, 375}";
},
{
name = top;
position = "{296, 730}";
},
{
name = topright;
position = "{571, 730}";
}
);
layerId = "9E6B41AB-2970-4C41-8B35-4DBE0D296A43";
rightMetricsKey = "=H*.4";
paths = (
{
closed = 1;
nodes = (
"565 0 LINE",
"565 170 LINE",
"270 170 LINE",
"270 730 LINE",
"65 730 LINE",
"65 0 LINE"
);
}
);
width = 591;
}
);
leftKerningGroup = H;
leftMetricsKey = "=H";
rightKerningGroup = L;
rightMetricsKey = "=H*.4";
unicode = 004C;
},
{
glyphname = Lslash;
lastChange = "2020-01-02 02:54:52 +0000";
layers = (
{
components = (
{
name = L;
transform = "{1, 0, 0, 1, 82, 0}";
}
);
layerId = "D65C9A1E-0FCA-4B2D-8EDF-9F36CA9182A1";
paths = (
{
closed = 1;
nodes = (
"356 431 LINE",
"348 449 LINE",
"18 299 LINE",
"26 281 LINE"
);
}
);
width = 665;
},
{
components = (
{
name = L;
transform = "{1, 0, 0, 1, 89, 0}";
}
);
layerId = "9527F797-22C1-480E-A1FE-2CDBEBE1FD4C";
paths = (
{
closed = 1;
nodes = (
"445 407 LINE",
"409 491 LINE",
"9 323 LINE",
"45 239 LINE"
);
}
);
width = 675;
},
{
components = (
{
name = L;
transform = "{1, 0, 0, 1, 99, 0}";
}
);
layerId = "9E6B41AB-2970-4C41-8B35-4DBE0D296A43";
paths = (
{
closed = 1;
nodes = (
"531 393 LINE",
"476 523 LINE",
"7 337 LINE",
"62 207 LINE"
);
}
);
width = 690;
}
);
leftKerningGroup = t;
leftMetricsKey = "=t*.5";
rightKerningGroup = L;
rightMetricsKey = "=L";
unicode = 0141;
},
{
color = 0;
glyphname = M;
lastChange = "2019-12-28 11:14:32 +0000";
layers = (
{
layerId = "D65C9A1E-0FCA-4B2D-8EDF-9F36CA9182A1";
paths = (
{
closed = 1;
nodes = (
"115 0 LINE",
"115 709 LINE",
"117 709 LINE",
"413 155 LINE",
"437 155 LINE",
"733 709 LINE",
"735 709 LINE",
"735 0 LINE",
"755 0 LINE",
"755 730 LINE",
"724 730 LINE",
"426 174 LINE",
"424 174 LINE",
"126 730 LINE",
"95 730 LINE",
"95 0 LINE"
);
}
);
width = 850;
},
{
layerId = "9527F797-22C1-480E-A1FE-2CDBEBE1FD4C";
paths = (
{
closed = 1;
nodes = (
"190 0 LINE",
"190 545 LINE",
"192 545 LINE",
"383 155 LINE",
"487 155 LINE",
"678 545 LINE",
"680 545 LINE",
"680 0 LINE",
"790 0 LINE",
"790 730 LINE",
"650 730 LINE",
"436 293 LINE",
"434 293 LINE",
"220 730 LINE",
"80 730 LINE",
"80 0 LINE"
);
}
);
width = 870;
},
{
layerId = "9E6B41AB-2970-4C41-8B35-4DBE0D296A43";
paths = (
{
closed = 1;
nodes = (
"265 0 LINE",
"265 400 LINE",
"267 400 LINE",
"355 155 LINE",
"535 155 LINE",
"623 400 LINE",
"625 400 LINE",
"625 0 LINE",
"825 0 LINE",
"825 730 LINE",
"577 730 LINE",
"446 360 LINE",
"444 360 LINE",
"313 730 LINE",
"65 730 LINE",
"65 0 LINE"
);
}
);
width = 890;
}
);
leftKerningGroup = H;
leftMetricsKey = "=H";
rightKerningGroup = H;
rightMetricsKey = "=|";
unicode = 004D;
},
{
color = 0;
glyphname = N;
lastChange = "2020-01-02 03:22:42 +0000";
layers = (
{
anchors = (
{
name = bottom;
position = "{355, 0}";
},
{
name = top;
position = "{355, 730}";
}
);
layerId = "D65C9A1E-0FCA-4B2D-8EDF-9F36CA9182A1";
paths = (
{
closed = 1;
nodes = (
"115 0 LINE",
"115 709 LINE",
"117 709 LINE",
"583 0 LINE",
"615 0 LINE",
"615 730 LINE",
"595 730 LINE",
"595 21 LINE",
"593 21 LINE",
"127 730 LINE",
"95 730 LINE",
"95 0 LINE"
);
}
);
width = 710;
},
{
anchors = (
{
name = bottom;
position = "{363, 0}";
},
{
name = top;
position = "{363, 730}";
}
);
layerId = "9527F797-22C1-480E-A1FE-2CDBEBE1FD4C";
paths = (
{
closed = 1;
nodes = (
"190 0 LINE",
"190 540 LINE",
"192 540 LINE",
"524 0 LINE",
"645 0 LINE",
"645 730 LINE",
"535 730 LINE",
"535 190 LINE",
"533 190 LINE",
"201 730 LINE",
"80 730 LINE",
"80 0 LINE"
);
}
);
width = 725;
},
{
anchors = (
{
name = bottom;
position = "{370, 0}";
},
{
name = top;
position = "{370, 730}";
}
);
layerId = "9E6B41AB-2970-4C41-8B35-4DBE0D296A43";
paths = (
{
closed = 1;
nodes = (
"265 0 LINE",
"265 380 LINE",
"267 380 LINE",
"475 0 LINE",
"675 0 LINE",
"675 730 LINE",
"475 730 LINE",
"475 350 LINE",
"473 350 LINE",
"265 730 LINE",
"65 730 LINE",
"65 0 LINE"
);
}
);
width = 740;
}
);
leftKerningGroup = H;
leftMetricsKey = "=H";
rightKerningGroup = H;
rightMetricsKey = "=|";
unicode = 004E;
},
{
glyphname = Eng;
lastChange = "2020-01-02 03:44:18 +0000";
layers = (
{
anchors = (
{
name = bottom;
position = "{355, 0}";
},
{
name = top;
position = "{355, 730}";
}
);
layerId = "D65C9A1E-0FCA-4B2D-8EDF-9F36CA9182A1";
paths = (
{
closed = 1;
nodes = (
"615 0 LINE",
"615 730 LINE",
"595 730 LINE",
"595 21 LINE",
"593 21 LINE",
"127 730 LINE",
"95 730 LINE",
"95 0 LINE",
"115 0 LINE",
"115 709 LINE",
"117 709 LINE",
"608 -38 LINE"
);
},
{
closed = 1;
nodes = (
"572 -211 OFFCURVE",
"615 -164 OFFCURVE",
"615 -61 CURVE SMOOTH",
"615 10 LINE",
"595 10 LINE",
"595 -61 LINE SMOOTH",
"595 -153 OFFCURVE",
"560 -191 OFFCURVE",
"475 -191 CURVE SMOOTH",
"450 -191 OFFCURVE",
"424 -186 OFFCURVE",
"402 -177 CURVE",
"395 -196 LINE",
"419 -205 OFFCURVE",
"448 -211 OFFCURVE",
"475 -211 CURVE SMOOTH"
);
}
);
width = 710;
},
{
anchors = (
{
name = bottom;
position = "{363, 0}";
},
{
name = top;
position = "{363, 730}";
}
);
layerId = "9527F797-22C1-480E-A1FE-2CDBEBE1FD4C";
paths = (
{
closed = 1;
nodes = (
"645 0 LINE",
"645 730 LINE",
"535 730 LINE",
"535 190 LINE",
"533 190 LINE",
"201 730 LINE",
"80 730 LINE",
"80 0 LINE",
"190 0 LINE",
"190 540 LINE",
"192 540 LINE",
"548 -38 LINE"
);
},
{
closed = 1;
nodes = (
"593 -221 OFFCURVE",
"645 -163 OFFCURVE",
"645 -26 CURVE SMOOTH",
"645 10 LINE",
"537 10 LINE",
"537 -26 LINE SMOOTH",
"537 -97 OFFCURVE",
"511 -126 OFFCURVE",
"447 -126 CURVE SMOOTH",
"422 -126 OFFCURVE",
"396 -122 OFFCURVE",
"372 -114 CURVE",
"355 -205 LINE",
"393 -216 OFFCURVE",
"431 -221 OFFCURVE",
"469 -221 CURVE SMOOTH"
);
}
);
width = 725;
},
{
anchors = (
{
name = bottom;
position = "{370, 0}";
},
{
name = top;
position = "{370, 730}";
}
);
layerId = "9E6B41AB-2970-4C41-8B35-4DBE0D296A43";
paths = (
{
closed = 1;
nodes = (
"675 0 LINE",
"675 730 LINE",
"475 730 LINE",
"475 350 LINE",
"473 350 LINE",
"265 730 LINE",
"65 730 LINE",
"65 0 LINE",
"265 0 LINE",
"265 380 LINE",
"267 380 LINE",
"497 -39 LINE"
);
},
{
closed = 1;
nodes = (
"620 -229 OFFCURVE",
"675 -166 OFFCURVE",
"675 10 CURVE SMOOTH",
"675 10 LINE",
"475 10 LINE",
"475 10 LINE SMOOTH",
"475 -53 OFFCURVE",
"463 -70 OFFCURVE",
"420 -70 CURVE SMOOTH",
"399 -70 OFFCURVE",
"365 -66 OFFCURVE",
"337 -59 CURVE",
"317 -214 LINE",
"365 -223 OFFCURVE",
"415 -229 OFFCURVE",
"463 -229 CURVE SMOOTH"
);
}
);
width = 740;
}
);
leftKerningGroup = H;
leftMetricsKey = "=N";
rightKerningGroup = H;
rightMetricsKey = "=N";
unicode = 014A;
},
{
color = 0;
glyphname = O;
lastChange = "2020-01-02 06:40:11 +0000";
layers = (
{
anchors = (
{
name = bottom;
position = "{397, 0}";
},
{
name = center;
position = "{397, 365}";
},
{
name = ogonek;
position = "{446, 0}";
},
{
name = top;
position = "{397, 730}";
},
{
name = topleft;
position = "{20, 730}";
},
{
name = topright;
position = "{584, 690}";
}
);
layerId = "D65C9A1E-0FCA-4B2D-8EDF-9F36CA9182A1";
paths = (
{
closed = 1;
nodes = (
"606 -10 OFFCURVE",
"747 142 OFFCURVE",
"747 365 CURVE SMOOTH",
"747 588 OFFCURVE",
"606 740 OFFCURVE",
"397 740 CURVE SMOOTH",
"188 740 OFFCURVE",
"47 588 OFFCURVE",
"47 365 CURVE SMOOTH",
"47 142 OFFCURVE",
"188 -10 OFFCURVE",
"397 -10 CURVE SMOOTH"
);
},
{
closed = 1;
nodes = (
"200 10 OFFCURVE",
"67 152 OFFCURVE",
"67 365 CURVE SMOOTH",
"67 578 OFFCURVE",
"200 720 OFFCURVE",
"397 720 CURVE SMOOTH",
"594 720 OFFCURVE",
"727 578 OFFCURVE",
"727 365 CURVE SMOOTH",
"727 152 OFFCURVE",
"594 10 OFFCURVE",
"397 10 CURVE SMOOTH"
);
}
);
width = 794;
},
{
anchors = (
{
name = bottom;
position = "{403, 0}";
},
{
name = center;
position = "{403, 365}";
},
{
name = ogonek;
position = "{463, 0}";
},
{
name = top;
position = "{403, 730}";
},
{
name = topleft;
position = "{20, 730}";
},
{
name = topright;
position = "{594, 690}";
}
);
layerId = "9527F797-22C1-480E-A1FE-2CDBEBE1FD4C";
paths = (
{
closed = 1;
nodes = (
"626 -10 OFFCURVE",
"766 135 OFFCURVE",
"766 365 CURVE SMOOTH",
"766 595 OFFCURVE",
"626 740 OFFCURVE",
"403 740 CURVE SMOOTH",
"180 740 OFFCURVE",
"40 595 OFFCURVE",
"40 365 CURVE SMOOTH",
"40 135 OFFCURVE",
"180 -10 OFFCURVE",
"403 -10 CURVE SMOOTH"
);
},
{
closed = 1;
nodes = (
"247 90 OFFCURVE",
"153 193 OFFCURVE",
"153 365 CURVE SMOOTH",
"153 537 OFFCURVE",
"247 640 OFFCURVE",
"403 640 CURVE SMOOTH",
"559 640 OFFCURVE",
"653 537 OFFCURVE",
"653 365 CURVE SMOOTH",
"653 193 OFFCURVE",
"559 90 OFFCURVE",
"403 90 CURVE SMOOTH"
);
}
);
width = 806;
},
{
anchors = (
{
name = bottom;
position = "{407, 0}";
},
{
name = center;
position = "{407, 365}";
},
{
name = ogonek;
position = "{480, 0}";
},
{
name = top;
position = "{407, 730}";
},
{
name = topleft;
position = "{20, 730}";
},
{
name = topright;
position = "{604, 690}";
}
);
layerId = "9E6B41AB-2970-4C41-8B35-4DBE0D296A43";
paths = (
{
closed = 1;
nodes = (
"643 -10 OFFCURVE",
"782 129 OFFCURVE",
"782 365 CURVE SMOOTH",
"782 601 OFFCURVE",
"643 740 OFFCURVE",
"407 740 CURVE SMOOTH",
"171 740 OFFCURVE",
"32 601 OFFCURVE",
"32 365 CURVE SMOOTH",
"32 129 OFFCURVE",
"171 -10 OFFCURVE",
"407 -10 CURVE SMOOTH"
);
},
{
closed = 1;
nodes = (
"294 160 OFFCURVE",
"237 229 OFFCURVE",
"237 365 CURVE SMOOTH",
"237 501 OFFCURVE",
"294 570 OFFCURVE",
"407 570 CURVE SMOOTH",
"520 570 OFFCURVE",
"577 501 OFFCURVE",
"577 365 CURVE SMOOTH",
"577 229 OFFCURVE",
"520 160 OFFCURVE",
"407 160 CURVE SMOOTH"
);
}
);
width = 814;
}
);
leftKerningGroup = O;
leftMetricsKey = "=H*.5";
rightKerningGroup = O;
rightMetricsKey = "=|";
unicode = 004F;
},
{
color = 3;
glyphname = Oslash;
lastChange = "2020-01-07 03:17:23 +0000";
layers = (
{
anchors = (
{
name = bottom;
position = "{397, 0}";
},
{
name = top;
position = "{397, 730}";
}
);
components = (
{
name = O;
}
);
layerId = "D65C9A1E-0FCA-4B2D-8EDF-9F36CA9182A1";
paths = (
{
closed = 1;
nodes = (
"685 734 LINE",
"669 746 LINE",
"109 -4 LINE",
"125 -16 LINE"
);
}
);
width = 794;
},
{
anchors = (
{
name = bottom;
position = "{403, 0}";
},
{
name = top;
position = "{403, 730}";
}
);
components = (
{
name = O;
}
);
layerId = "9527F797-22C1-480E-A1FE-2CDBEBE1FD4C";
paths = (
{
closed = 1;
nodes = (
"719 713 LINE",
"647 767 LINE",
"87 17 LINE",
"159 -37 LINE"
);
}
);
width = 806;
},
{
anchors = (
{
name = bottom;
position = "{407, 0}";
},
{
name = top;
position = "{407, 730}";
}
);
components = (
{
name = O;
}
);
layerId = "9E6B41AB-2970-4C41-8B35-4DBE0D296A43";
paths = (
{
closed = 1;
nodes = (
"747 695 LINE",
"627 785 LINE",
"67 35 LINE",
"187 -55 LINE"
);
}
);
width = 814;
}
);
leftKerningGroup = O;
rightKerningGroup = O;
unicode = 00D8;
},
{
glyphname = OE;
lastChange = "2020-01-02 14:11:28 +0000";
layers = (
{
components = (
{
name = E;
transform = "{1, 0, 0, 1, 391, 0}";
}
);
layerId = "D65C9A1E-0FCA-4B2D-8EDF-9F36CA9182A1";
paths = (
{
closed = 1;
nodes = (
"434 -10 OFFCURVE",
"469 -5 OFFCURVE",
"502 4 CURVE",
"495 23 LINE",
"465 14 OFFCURVE",
"432 10 OFFCURVE",
"397 10 CURVE SMOOTH",
"200 10 OFFCURVE",
"67 152 OFFCURVE",
"67 365 CURVE SMOOTH",
"67 578 OFFCURVE",
"200 720 OFFCURVE",
"397 720 CURVE SMOOTH",
"432 720 OFFCURVE",
"465 716 OFFCURVE",
"495 707 CURVE",
"502 726 LINE",
"469 735 OFFCURVE",
"434 740 OFFCURVE",
"397 740 CURVE SMOOTH",
"188 740 OFFCURVE",
"47 588 OFFCURVE",
"47 365 CURVE SMOOTH",
"47 142 OFFCURVE",
"188 -10 OFFCURVE",
"397 -10 CURVE SMOOTH"
);
}
);
width = 977;
},
{
components = (
{
name = E;
transform = "{1, 0, 0, 1, 419, 0}";
}
);
layerId = "9527F797-22C1-480E-A1FE-2CDBEBE1FD4C";
paths = (
{
closed = 1;
nodes = (
"473 -10 OFFCURVE",
"534 4 OFFCURVE",
"586 31 CURVE",
"534 121 LINE",
"497 101 OFFCURVE",
"453 90 OFFCURVE",
"403 90 CURVE SMOOTH",
"247 90 OFFCURVE",
"153 193 OFFCURVE",
"153 365 CURVE SMOOTH",
"153 537 OFFCURVE",
"247 640 OFFCURVE",
"403 640 CURVE SMOOTH",
"453 640 OFFCURVE",
"497 629 OFFCURVE",
"534 609 CURVE",
"586 699 LINE",
"534 726 OFFCURVE",
"473 740 OFFCURVE",
"403 740 CURVE SMOOTH",
"180 740 OFFCURVE",
"40 595 OFFCURVE",
"40 365 CURVE SMOOTH",
"40 135 OFFCURVE",
"180 -10 OFFCURVE",
"403 -10 CURVE SMOOTH"
);
}
);
width = 1018;
},
{
components = (
{
name = E;
transform = "{1, 0, 0, 1, 445, 0}";
}
);
layerId = "9E6B41AB-2970-4C41-8B35-4DBE0D296A43";
paths = (
{
closed = 1;
nodes = (
"529 -10 OFFCURVE",
"626 27 OFFCURVE",
"690 96 CURVE",
"550 235 LINE",
"523 185 OFFCURVE",
"475 160 OFFCURVE",
"407 160 CURVE SMOOTH",
"294 160 OFFCURVE",
"237 229 OFFCURVE",
"237 365 CURVE SMOOTH",
"237 501 OFFCURVE",
"294 570 OFFCURVE",
"407 570 CURVE SMOOTH",
"475 570 OFFCURVE",
"523 545 OFFCURVE",
"550 495 CURVE",
"690 634 LINE",
"626 703 OFFCURVE",
"529 740 OFFCURVE",
"407 740 CURVE SMOOTH",
"171 740 OFFCURVE",
"32 601 OFFCURVE",
"32 365 CURVE SMOOTH",
"32 129 OFFCURVE",
"171 -10 OFFCURVE",
"407 -10 CURVE SMOOTH"
);
}
);
width = 1055;
}
);
leftKerningGroup = O;
leftMetricsKey = "=O";
rightKerningGroup = E;
rightMetricsKey = "=E";
unicode = 0152;
},
{
color = 0;
glyphname = P;
lastChange = "2019-12-26 08:55:43 +0000";
layers = (
{
layerId = "D65C9A1E-0FCA-4B2D-8EDF-9F36CA9182A1";
rightMetricsKey = "=H*.3";
paths = (
{
closed = 1;
nodes = (
"115 0 LINE",
"115 710 LINE",
"245 710 LINE SMOOTH",
"436 710 OFFCURVE",
"515 654 OFFCURVE",
"515 520 CURVE SMOOTH",
"515 386 OFFCURVE",
"436 330 OFFCURVE",
"245 330 CURVE SMOOTH",
"105 330 LINE",
"105 310 LINE",
"245 310 LINE SMOOTH",
"447 310 OFFCURVE",
"535 374 OFFCURVE",
"535 520 CURVE SMOOTH",
"535 666 OFFCURVE",
"447 730 OFFCURVE",
"245 730 CURVE SMOOTH",
"95 730 LINE",
"95 0 LINE"
);
}
);
width = 564;
},
{
layerId = "9527F797-22C1-480E-A1FE-2CDBEBE1FD4C";
rightMetricsKey = "=H*.35";
paths = (
{
closed = 1;
nodes = (
"190 0 LINE",
"190 630 LINE",
"275 630 LINE SMOOTH",
"413 630 OFFCURVE",
"473 589 OFFCURVE",
"473 496 CURVE SMOOTH",
"473 403 OFFCURVE",
"413 362 OFFCURVE",
"275 362 CURVE SMOOTH",
"135 362 LINE",
"135 264 LINE",
"290 264 LINE SMOOTH",
"488 264 OFFCURVE",
"585 340 OFFCURVE",
"585 497 CURVE SMOOTH",
"585 656 OFFCURVE",
"485 730 OFFCURVE",
"270 730 CURVE SMOOTH",
"80 730 LINE",
"80 0 LINE"
);
}
);
width = 613;
},
{
layerId = "9E6B41AB-2970-4C41-8B35-4DBE0D296A43";
rightMetricsKey = "=H*.4";
paths = (
{
closed = 1;
nodes = (
"265 0 LINE",
"265 570 LINE",
"305 570 LINE SMOOTH",
"391 570 OFFCURVE",
"430 540 OFFCURVE",
"430 475 CURVE SMOOTH",
"430 410 OFFCURVE",
"391 380 OFFCURVE",
"305 380 CURVE SMOOTH",
"165 380 LINE",
"165 220 LINE",
"335 220 LINE SMOOTH",
"530 220 OFFCURVE",
"635 309 OFFCURVE",
"635 475 CURVE SMOOTH",
"635 647 OFFCURVE",
"524 730 OFFCURVE",
"295 730 CURVE SMOOTH",
"65 730 LINE",
"65 0 LINE"
);
}
);
width = 661;
}
);
leftKerningGroup = H;
leftMetricsKey = "=H";
rightKerningGroup = P;
rightMetricsKey = "=H*.4";
unicode = 0050;
},
{
color = 3;
glyphname = Thorn;
lastChange = "2020-01-07 03:17:23 +0000";
layers = (
{
layerId = "D65C9A1E-0FCA-4B2D-8EDF-9F36CA9182A1";
paths = (
{
closed = 1;
nodes = (
"245 165 LINE SMOOTH",
"447 165 OFFCURVE",
"535 229 OFFCURVE",
"535 375 CURVE SMOOTH",
"535 521 OFFCURVE",
"447 585 OFFCURVE",
"245 585 CURVE SMOOTH",
"105 585 LINE",
"105 565 LINE",
"245 565 LINE SMOOTH",
"436 565 OFFCURVE",
"515 509 OFFCURVE",
"515 375 CURVE SMOOTH",
"515 241 OFFCURVE",
"436 185 OFFCURVE",
"245 185 CURVE SMOOTH",
"105 185 LINE",
"105 165 LINE"
);
},
{
closed = 1;
nodes = (
"115 0 LINE",
"115 730 LINE",
"95 730 LINE",
"95 0 LINE"
);
}
);
width = 564;
},
{
layerId = "9527F797-22C1-480E-A1FE-2CDBEBE1FD4C";
paths = (
{
closed = 1;
nodes = (
"290 142 LINE SMOOTH",
"488 142 OFFCURVE",
"585 218 OFFCURVE",
"585 375 CURVE SMOOTH",
"585 534 OFFCURVE",
"485 608 OFFCURVE",
"270 608 CURVE SMOOTH",
"135 608 LINE",
"135 508 LINE",
"275 508 LINE SMOOTH",
"413 508 OFFCURVE",
"473 467 OFFCURVE",
"473 374 CURVE SMOOTH",
"473 281 OFFCURVE",
"413 240 OFFCURVE",
"275 240 CURVE SMOOTH",
"135 240 LINE",
"135 142 LINE"
);
},
{
closed = 1;
nodes = (
"190 0 LINE",
"190 730 LINE",
"80 730 LINE",
"80 0 LINE"
);
}
);
width = 613;
},
{
layerId = "9E6B41AB-2970-4C41-8B35-4DBE0D296A43";
paths = (
{
closed = 1;
nodes = (
"335 120 LINE SMOOTH",
"530 120 OFFCURVE",
"635 209 OFFCURVE",
"635 375 CURVE SMOOTH",
"635 547 OFFCURVE",
"524 630 OFFCURVE",
"295 630 CURVE SMOOTH",
"165 630 LINE",
"165 470 LINE",
"305 470 LINE SMOOTH",
"391 470 OFFCURVE",
"430 440 OFFCURVE",
"430 375 CURVE SMOOTH",
"430 310 OFFCURVE",
"391 280 OFFCURVE",
"305 280 CURVE SMOOTH",
"165 280 LINE",
"165 120 LINE"
);
},
{
closed = 1;
nodes = (
"265 0 LINE",
"265 730 LINE",
"65 730 LINE",
"65 0 LINE"
);
}
);
width = 661;
}
);
leftKerningGroup = H;
leftMetricsKey = "=P";
rightKerningGroup = O;
rightMetricsKey = "=P";
unicode = 00DE;
},
{
color = 0;
glyphname = Q;
lastChange = "2019-12-20 14:06:42 +0000";
layers = (
{
layerId = "9527F797-22C1-480E-A1FE-2CDBEBE1FD4C";
rightMetricsKey = "=O-11";
paths = (
{
closed = 1;
nodes = (
"780 -71 LINE",
"725 -11 OFFCURVE",
"643 33 OFFCURVE",
"539 56 CURVE",
"545 23 LINE",
"684 71 OFFCURVE",
"766 194 OFFCURVE",
"766 365 CURVE SMOOTH",
"766 595 OFFCURVE",
"626 740 OFFCURVE",
"403 740 CURVE SMOOTH",
"180 740 OFFCURVE",
"40 595 OFFCURVE",
"40 365 CURVE SMOOTH",
"40 135 OFFCURVE",
"180 -10 OFFCURVE",
"403 -10 CURVE SMOOTH",
"527 -10 OFFCURVE",
"631 -54 OFFCURVE",
"693 -133 CURVE"
);
},
{
closed = 1;
nodes = (
"247 90 OFFCURVE",
"153 193 OFFCURVE",
"153 365 CURVE SMOOTH",
"153 537 OFFCURVE",
"247 640 OFFCURVE",
"403 640 CURVE SMOOTH",
"559 640 OFFCURVE",
"653 537 OFFCURVE",
"653 365 CURVE SMOOTH",
"653 193 OFFCURVE",
"559 90 OFFCURVE",
"403 90 CURVE SMOOTH"
);
}
);
width = 809;
},
{
layerId = "9E6B41AB-2970-4C41-8B35-4DBE0D296A43";
rightMetricsKey = "=O-12";
paths = (
{
closed = 1;
nodes = (
"797 -40 LINE",
"747 25 OFFCURVE",
"670 77 OFFCURVE",
"573 110 CURVE",
"583 32 LINE",
"712 85 OFFCURVE",
"783 203 OFFCURVE",
"782 365 CURVE SMOOTH",
"783 601 OFFCURVE",
"644 740 OFFCURVE",
"407 740 CURVE SMOOTH",
"172 740 OFFCURVE",
"33 601 OFFCURVE",
"32 365 CURVE SMOOTH",
"33 129 OFFCURVE",
"172 -10 OFFCURVE",
"407 -10 CURVE SMOOTH",
"518 -10 OFFCURVE",
"569 -41 OFFCURVE",
"637 -150 CURVE"
);
},
{
closed = 1;
nodes = (
"295 160 OFFCURVE",
"238 229 OFFCURVE",
"237 365 CURVE SMOOTH",
"238 501 OFFCURVE",
"295 570 OFFCURVE",
"407 570 CURVE SMOOTH",
"521 570 OFFCURVE",
"578 501 OFFCURVE",
"577 365 CURVE SMOOTH",
"578 229 OFFCURVE",
"520 160 OFFCURVE",
"407 160 CURVE SMOOTH"
);
}
);
width = 817;
},
{
layerId = "D65C9A1E-0FCA-4B2D-8EDF-9F36CA9182A1";
rightMetricsKey = "=O";
paths = (
{
closed = 1;
nodes = (
"761 -102 LINE",
"701 -45 OFFCURVE",
"613 -10 OFFCURVE",
"501 3 CURVE",
"501 5 LINE",
"651 47 OFFCURVE",
"747 182 OFFCURVE",
"747 365 CURVE SMOOTH",
"747 588 OFFCURVE",
"606 740 OFFCURVE",
"397 740 CURVE SMOOTH",
"188 740 OFFCURVE",
"47 588 OFFCURVE",
"47 365 CURVE SMOOTH",
"47 142 OFFCURVE",
"188 -10 OFFCURVE",
"397 -10 CURVE SMOOTH",
"555 -10 OFFCURVE",
"674 -46 OFFCURVE",
"747 -116 CURVE"
);
},
{
closed = 1;
nodes = (
"200 10 OFFCURVE",
"67 152 OFFCURVE",
"67 365 CURVE SMOOTH",
"67 578 OFFCURVE",
"200 720 OFFCURVE",
"397 720 CURVE SMOOTH",
"594 720 OFFCURVE",
"727 578 OFFCURVE",
"727 365 CURVE SMOOTH",
"727 152 OFFCURVE",
"594 10 OFFCURVE",
"397 10 CURVE SMOOTH"
);
}
);
width = 808;
}
);
leftKerningGroup = O;
leftMetricsKey = "=O";
rightKerningGroup = O;
rightMetricsKey = "=O-12";
unicode = 0051;
},
{
color = 0;
glyphname = R;
lastChange = "2020-01-02 08:13:13 +0000";
layers = (
{
anchors = (
{
name = bottom;
position = "{310, 0}";
},
{
name = top;
position = "{310, 730}";
}
);
layerId = "9527F797-22C1-480E-A1FE-2CDBEBE1FD4C";
paths = (
{
closed = 1;
nodes = (
"190 0 LINE",
"190 630 LINE",
"275 630 LINE SMOOTH",
"414 630 OFFCURVE",
"473 595 OFFCURVE",
"473 515 CURVE SMOOTH",
"473 435 OFFCURVE",
"414 400 OFFCURVE",
"275 400 CURVE SMOOTH",
"135 400 LINE",
"135 302 LINE",
"290 302 LINE SMOOTH",
"489 302 OFFCURVE",
"585 372 OFFCURVE",
"585 518 CURVE SMOOTH",
"585 664 OFFCURVE",
"486 730 OFFCURVE",
"270 730 CURVE SMOOTH",
"80 730 LINE",
"80 0 LINE"
);
},
{
closed = 1;
nodes = (
"610 0 LINE",
"278 355 LINE",
"144 355 LINE",
"466 0 LINE"
);
}
);
width = 642;
},
{
anchors = (
{
name = bottom;
position = "{330, 0}";
},
{
name = top;
position = "{330, 730}";
}
);
layerId = "9E6B41AB-2970-4C41-8B35-4DBE0D296A43";
paths = (
{
closed = 1;
nodes = (
"265 0 LINE",
"265 570 LINE",
"305 570 LINE SMOOTH",
"390 570 OFFCURVE",
"430 543 OFFCURVE",
"430 485 CURVE SMOOTH",
"430 427 OFFCURVE",
"390 400 OFFCURVE",
"305 400 CURVE SMOOTH",
"165 400 LINE",
"165 255 LINE",
"335 255 LINE SMOOTH",
"530 255 OFFCURVE",
"635 339 OFFCURVE",
"635 495 CURVE SMOOTH",
"635 654 OFFCURVE",
"524 730 OFFCURVE",
"295 730 CURVE SMOOTH",
"65 730 LINE",
"65 0 LINE"
);
},
{
closed = 1;
nodes = (
"665 0 LINE",
"428 340 LINE",
"208 340 LINE",
"445 0 LINE"
);
}
);
width = 691;
},
{
anchors = (
{
name = bottom;
position = "{290, 0}";
},
{
name = top;
position = "{290, 730}";
}
);
layerId = "D65C9A1E-0FCA-4B2D-8EDF-9F36CA9182A1";
paths = (
{
closed = 1;
nodes = (
"115 0 LINE",
"115 710 LINE",
"245 710 LINE SMOOTH",
"437 710 OFFCURVE",
"515 659 OFFCURVE",
"515 540 CURVE SMOOTH",
"515 421 OFFCURVE",
"437 370 OFFCURVE",
"245 370 CURVE SMOOTH",
"105 370 LINE",
"105 350 LINE",
"245 350 LINE SMOOTH",
"447 350 OFFCURVE",
"535 407 OFFCURVE",
"535 540 CURVE SMOOTH",
"535 673 OFFCURVE",
"447 730 OFFCURVE",
"245 730 CURVE SMOOTH",
"95 730 LINE",
"95 0 LINE"
);
},
{
closed = 1;
nodes = (
"555 0 LINE",
"135 360 LINE",
"106 360 LINE",
"525 0 LINE"
);
}
);
width = 593;
}
);
leftKerningGroup = H;
leftMetricsKey = "=H";
rightKerningGroup = R;
rightMetricsKey = "=H*.4";
unicode = 0052;
},
{
color = 0;
glyphname = S;
lastChange = "2020-01-02 08:18:44 +0000";
layers = (
{
anchors = (
{
name = bottom;
position = "{302, 0}";
},
{
name = top;
position = "{302, 730}";
}
);
layerId = "D65C9A1E-0FCA-4B2D-8EDF-9F36CA9182A1";
leftMetricsKey = "=H*.7";
paths = (
{
closed = 1;
nodes = (
"450 -10 OFFCURVE",
"537 60 OFFCURVE",
"537 180 CURVE SMOOTH",
"537 283 OFFCURVE",
"475 340 OFFCURVE",
"305 399 CURVE SMOOTH",
"152 452 OFFCURVE",
"98 500 OFFCURVE",
"98 580 CURVE SMOOTH",
"98 670 OFFCURVE",
"170 720 OFFCURVE",
"302 720 CURVE SMOOTH",
"382 720 OFFCURVE",
"453 701 OFFCURVE",
"516 663 CURVE",
"526 680 LINE",
"460 720 OFFCURVE",
"385 740 OFFCURVE",
"302 740 CURVE SMOOTH",
"159 740 OFFCURVE",
"78 682 OFFCURVE",
"78 580 CURVE SMOOTH",
"78 490 OFFCURVE",
"138 437 OFFCURVE",
"299 381 CURVE SMOOTH",
"461 325 OFFCURVE",
"517 273 OFFCURVE",
"517 180 CURVE SMOOTH",
"517 72 OFFCURVE",
"440 10 OFFCURVE",
"302 10 CURVE SMOOTH",
"218 10 OFFCURVE",
"138 34 OFFCURVE",
"79 76 CURVE",
"67 60 LINE",
"130 15 OFFCURVE",
"214 -10 OFFCURVE",
"302 -10 CURVE SMOOTH"
);
}
);
width = 604;
},
{
anchors = (
{
name = bottom;
position = "{310, 0}";
},
{
name = top;
position = "{310, 730}";
}
);
layerId = "9527F797-22C1-480E-A1FE-2CDBEBE1FD4C";
leftMetricsKey = "=H*.65";
paths = (
{
closed = 1;
nodes = (
"470 -10 OFFCURVE",
"568 66 OFFCURVE",
"568 198 CURVE SMOOTH",
"568 305 OFFCURVE",
"502 369 OFFCURVE",
"323 433 CURVE SMOOTH",
"216 469 OFFCURVE",
"176 502 OFFCURVE",
"176 553 CURVE SMOOTH",
"176 611 OFFCURVE",
"225 640 OFFCURVE",
"323 640 CURVE SMOOTH",
"397 640 OFFCURVE",
"461 623 OFFCURVE",
"532 586 CURVE",
"555 685 LINE",
"490 721 OFFCURVE",
"407 740 OFFCURVE",
"318 740 CURVE SMOOTH",
"152 740 OFFCURVE",
"61 674 OFFCURVE",
"61 553 CURVE SMOOTH",
"61 448 OFFCURVE",
"128 384 OFFCURVE",
"302 324 CURVE SMOOTH",
"413 286 OFFCURVE",
"453 253 OFFCURVE",
"453 195 CURVE SMOOTH",
"453 128 OFFCURVE",
"399 90 OFFCURVE",
"303 90 CURVE SMOOTH",
"225 90 OFFCURVE",
"145 115 OFFCURVE",
"82 160 CURVE",
"52 62 LINE",
"116 16 OFFCURVE",
"206 -10 OFFCURVE",
"303 -10 CURVE SMOOTH"
);
}
);
width = 620;
},
{
anchors = (
{
name = bottom;
position = "{321, 0}";
},
{
name = top;
position = "{321, 730}";
}
);
layerId = "9E6B41AB-2970-4C41-8B35-4DBE0D296A43";
leftMetricsKey = "=H*.6";
paths = (
{
closed = 1;
nodes = (
"490 -10 OFFCURVE",
"602 76 OFFCURVE",
"602 215 CURVE SMOOTH",
"602 325 OFFCURVE",
"535 388 OFFCURVE",
"342 458 CURVE SMOOTH",
"279 480 OFFCURVE",
"257 497 OFFCURVE",
"257 525 CURVE SMOOTH",
"257 558 OFFCURVE",
"288 575 OFFCURVE",
"347 575 CURVE SMOOTH",
"406 575 OFFCURVE",
"471 558 OFFCURVE",
"537 525 CURVE",
"587 690 LINE",
"524 721 OFFCURVE",
"429 740 OFFCURVE",
"337 740 CURVE SMOOTH",
"149 740 OFFCURVE",
"47 664 OFFCURVE",
"47 525 CURVE SMOOTH",
"47 408 OFFCURVE",
"118 341 OFFCURVE",
"312 275 CURVE SMOOTH",
"373 254 OFFCURVE",
"392 239 OFFCURVE",
"392 210 CURVE SMOOTH",
"392 174 OFFCURVE",
"362 155 OFFCURVE",
"307 155 CURVE SMOOTH",
"240 155 OFFCURVE",
"154 184 OFFCURVE",
"89 229 CURVE",
"39 64 LINE",
"102 16 OFFCURVE",
"197 -10 OFFCURVE",
"307 -10 CURVE SMOOTH"
);
}
);
width = 641;
}
);
leftKerningGroup = S;
leftMetricsKey = "=H*.6";
rightKerningGroup = S;
rightMetricsKey = "=|";
unicode = 0053;
},
{
glyphname = Germandbls;
lastChange = "2020-01-03 01:19:17 +0000";
layers = (
{
layerId = "D65C9A1E-0FCA-4B2D-8EDF-9F36CA9182A1";
paths = (
{
closed = 1;
nodes = (
"526 -10 OFFCURVE",
"615 58 OFFCURVE",
"615 180 CURVE SMOOTH",
"615 302 OFFCURVE",
"527 370 OFFCURVE",
"369 370 CURVE",
"369 372 LINE",
"528 565 LINE",
"528 681 OFFCURVE",
"459 740 OFFCURVE",
"323 740 CURVE SMOOTH",
"169 740 OFFCURVE",
"95 664 OFFCURVE",
"95 505 CURVE SMOOTH",
"95 0 LINE",
"115 0 LINE",
"115 505 LINE SMOOTH",
"115 653 OFFCURVE",
"180 720 OFFCURVE",
"323 720 CURVE SMOOTH",
"445 720 OFFCURVE",
"505 672 OFFCURVE",
"508 572 CURVE",
"349 379 LINE",
"349 350 LINE",
"369 350 LINE SMOOTH",
"516 350 OFFCURVE",
"595 290 OFFCURVE",
"595 180 CURVE SMOOTH",
"595 70 OFFCURVE",
"515 10 OFFCURVE",
"366 10 CURVE SMOOTH",
"322 10 OFFCURVE",
"284 15 OFFCURVE",
"247 26 CURVE",
"241 7 LINE",
"282 -5 OFFCURVE",
"323 -10 OFFCURVE",
"366 -10 CURVE SMOOTH"
);
}
);
width = 642;
},
{
layerId = "9527F797-22C1-480E-A1FE-2CDBEBE1FD4C";
paths = (
{
closed = 1;
nodes = (
"568 -10 OFFCURVE",
"655 63 OFFCURVE",
"655 195 CURVE SMOOTH",
"655 307 OFFCURVE",
"592 373 OFFCURVE",
"474 383 CURVE",
"474 385 LINE",
"582 533 LINE",
"582 670 OFFCURVE",
"500 740 OFFCURVE",
"337 740 CURVE SMOOTH",
"164 740 OFFCURVE",
"80 662 OFFCURVE",
"80 503 CURVE SMOOTH",
"80 0 LINE",
"190 0 LINE",
"190 503 LINE SMOOTH",
"190 602 OFFCURVE",
"231 640 OFFCURVE",
"337 640 CURVE SMOOTH",
"424 640 OFFCURVE",
"470 613 OFFCURVE",
"472 561 CURVE",
"355 400 LINE",
"355 300 LINE",
"365 300 LINE SMOOTH",
"487 300 OFFCURVE",
"543 267 OFFCURVE",
"543 195 CURVE SMOOTH",
"543 128 OFFCURVE",
"490 90 OFFCURVE",
"396 90 CURVE SMOOTH",
"361 90 OFFCURVE",
"332 95 OFFCURVE",
"294 108 CURVE",
"278 11 LINE",
"321 -3 OFFCURVE",
"364 -10 OFFCURVE",
"411 -10 CURVE SMOOTH"
);
}
);
width = 680;
},
{
layerId = "9E6B41AB-2970-4C41-8B35-4DBE0D296A43";
paths = (
{
closed = 1;
nodes = (
"610 -10 OFFCURVE",
"695 68 OFFCURVE",
"695 210 CURVE SMOOTH",
"695 313 OFFCURVE",
"645 376 OFFCURVE",
"548 395 CURVE",
"548 397 LINE",
"635 500 LINE",
"635 660 OFFCURVE",
"540 740 OFFCURVE",
"350 740 CURVE SMOOTH",
"160 740 OFFCURVE",
"65 660 OFFCURVE",
"65 500 CURVE",
"65 0 LINE",
"265 0 LINE",
"265 500 LINE",
"265 550 OFFCURVE",
"289 570 OFFCURVE",
"350 570 CURVE SMOOTH",
"411 570 OFFCURVE",
"435 550 OFFCURVE",
"435 500 CURVE",
"360 400 LINE",
"360 280 LINE",
"360 280 LINE",
"461 280 OFFCURVE",
"490 267 OFFCURVE",
"490 220 CURVE SMOOTH",
"490 180 OFFCURVE",
"469 160 OFFCURVE",
"425 160 CURVE SMOOTH",
"401 160 OFFCURVE",
"374 166 OFFCURVE",
"340 180 CURVE",
"315 15 LINE",
"357 -1 OFFCURVE",
"405 -10 OFFCURVE",
"455 -10 CURVE SMOOTH"
);
}
);
width = 718;
}
);
leftKerningGroup = H;
leftMetricsKey = "=B";
rightKerningGroup = B;
rightMetricsKey = "=B*.7";
unicode = 1E9E;
},
{
glyphname = Schwa;
lastChange = "2020-01-03 00:56:51 +0000";
layers = (
{
background = {
paths = (
{
closed = 1;
nodes = (
"501 -10 OFFCURVE",
"599 14 OFFCURVE",
"675 54 CURVE",
"666 72 LINE",
"591 32 OFFCURVE",
"496 10 OFFCURVE",
"405 10 CURVE SMOOTH",
"185 10 OFFCURVE",
"65 134 OFFCURVE",
"65 365 CURVE",
"65 365 LINE",
"65 591 OFFCURVE",
"179 720 OFFCURVE",
"375 720 CURVE SMOOTH",
"571 720 OFFCURVE",
"685 591 OFFCURVE",
"685 365 CURVE",
"700 382 LINE",
"55 382 LINE",
"55 362 LINE",
"705 362 LINE",
"705 364 OFFCURVE",
"705 364 OFFCURVE",
"705 365 CURVE SMOOTH",
"705 601 OFFCURVE",
"583 740 OFFCURVE",
"375 740 CURVE SMOOTH",
"167 740 OFFCURVE",
"45 601 OFFCURVE",
"45 365 CURVE SMOOTH",
"45 124 OFFCURVE",
"173 -10 OFFCURVE",
"405 -10 CURVE SMOOTH"
);
}
);
};
layerId = "D65C9A1E-0FCA-4B2D-8EDF-9F36CA9182A1";
paths = (
{
closed = 1;
nodes = (
"249 740 OFFCURVE",
"151 716 OFFCURVE",
"75 676 CURVE",
"84 658 LINE",
"159 698 OFFCURVE",
"254 720 OFFCURVE",
"345 720 CURVE SMOOTH",
"565 720 OFFCURVE",
"685 596 OFFCURVE",
"685 365 CURVE",
"685 365 LINE",
"685 139 OFFCURVE",
"571 10 OFFCURVE",
"375 10 CURVE SMOOTH",
"179 10 OFFCURVE",
"65 139 OFFCURVE",
"65 365 CURVE",
"50 348 LINE",
"695 348 LINE",
"695 368 LINE",
"45 368 LINE",
"45 366 OFFCURVE",
"45 366 OFFCURVE",
"45 365 CURVE SMOOTH",
"45 129 OFFCURVE",
"167 -10 OFFCURVE",
"375 -10 CURVE SMOOTH",
"583 -10 OFFCURVE",
"705 129 OFFCURVE",
"705 365 CURVE SMOOTH",
"705 606 OFFCURVE",
"577 740 OFFCURVE",
"345 740 CURVE SMOOTH"
);
}
);
width = 752;
},
{
background = {
paths = (
{
closed = 1;
nodes = (
"514 -10 OFFCURVE",
"608 10 OFFCURVE",
"677 42 CURVE",
"655 137 LINE",
"582 107 OFFCURVE",
"499 90 OFFCURVE",
"416 90 CURVE SMOOTH",
"235 90 OFFCURVE",
"148 171 OFFCURVE",
"148 334 CURVE",
"148 376 LINE",
"148 550 OFFCURVE",
"228 640 OFFCURVE",
"378 640 CURVE SMOOTH",
"528 640 OFFCURVE",
"608 550 OFFCURVE",
"608 376 CURVE",
"649 416 LINE",
"116 416 LINE",
"116 317 LINE",
"715 317 LINE",
"717 327 OFFCURVE",
"718 353 OFFCURVE",
"718 372 CURVE SMOOTH",
"718 604 OFFCURVE",
"593 740 OFFCURVE",
"381 740 CURVE SMOOTH",
"166 740 OFFCURVE",
"38 600 OFFCURVE",
"38 365 CURVE SMOOTH",
"38 124 OFFCURVE",
"175 -10 OFFCURVE",
"423 -10 CURVE SMOOTH"
);
}
);
};
layerId = "9527F797-22C1-480E-A1FE-2CDBEBE1FD4C";
paths = (
{
closed = 1;
nodes = (
"242 740 OFFCURVE",
"148 720 OFFCURVE",
"79 688 CURVE",
"101 593 LINE",
"174 623 OFFCURVE",
"257 640 OFFCURVE",
"340 640 CURVE SMOOTH",
"521 640 OFFCURVE",
"608 559 OFFCURVE",
"608 396 CURVE",
"608 354 LINE",
"608 180 OFFCURVE",
"528 90 OFFCURVE",
"378 90 CURVE SMOOTH",
"228 90 OFFCURVE",
"148 180 OFFCURVE",
"148 354 CURVE",
"107 314 LINE",
"640 314 LINE",
"640 413 LINE",
"41 413 LINE",
"39 403 OFFCURVE",
"38 377 OFFCURVE",
"38 358 CURVE SMOOTH",
"38 126 OFFCURVE",
"163 -10 OFFCURVE",
"375 -10 CURVE SMOOTH",
"590 -10 OFFCURVE",
"718 130 OFFCURVE",
"718 365 CURVE SMOOTH",
"718 606 OFFCURVE",
"581 740 OFFCURVE",
"333 740 CURVE SMOOTH"
);
}
);
width = 758;
},
{
background = {
paths = (
{
closed = 1;
nodes = (
"527 -10 OFFCURVE",
"617 5 OFFCURVE",
"678 29 CURVE",
"644 194 LINE",
"573 171 OFFCURVE",
"502 160 OFFCURVE",
"427 160 CURVE SMOOTH",
"285 160 OFFCURVE",
"230 199 OFFCURVE",
"230 300 CURVE SMOOTH",
"230 387 LINE SMOOTH",
"230 515 OFFCURVE",
"276 570 OFFCURVE",
"380 570 CURVE SMOOTH",
"484 570 OFFCURVE",
"530 515 OFFCURVE",
"530 387 CURVE",
"597 440 LINE",
"176 440 LINE",
"176 282 LINE",
"725 282 LINE",
"728 297 OFFCURVE",
"730 346 OFFCURVE",
"730 379 CURVE SMOOTH",
"730 607 OFFCURVE",
"603 740 OFFCURVE",
"387 740 CURVE SMOOTH",
"165 740 OFFCURVE",
"30 599 OFFCURVE",
"30 365 CURVE SMOOTH",
"30 124 OFFCURVE",
"177 -10 OFFCURVE",
"440 -10 CURVE SMOOTH"
);
}
);
};
layerId = "9E6B41AB-2970-4C41-8B35-4DBE0D296A43";
paths = (
{
closed = 1;
nodes = (
"233 740 OFFCURVE",
"143 725 OFFCURVE",
"82 701 CURVE",
"116 536 LINE",
"187 559 OFFCURVE",
"258 570 OFFCURVE",
"333 570 CURVE SMOOTH",
"475 570 OFFCURVE",
"530 531 OFFCURVE",
"530 430 CURVE SMOOTH",
"530 343 LINE SMOOTH",
"530 215 OFFCURVE",
"484 160 OFFCURVE",
"380 160 CURVE SMOOTH",
"276 160 OFFCURVE",
"230 215 OFFCURVE",
"230 343 CURVE",
"163 290 LINE",
"584 290 LINE",
"584 448 LINE",
"35 448 LINE",
"32 433 OFFCURVE",
"30 384 OFFCURVE",
"30 351 CURVE SMOOTH",
"30 123 OFFCURVE",
"157 -10 OFFCURVE",
"373 -10 CURVE SMOOTH",
"595 -10 OFFCURVE",
"730 131 OFFCURVE",
"730 365 CURVE SMOOTH",
"730 606 OFFCURVE",
"583 740 OFFCURVE",
"320 740 CURVE SMOOTH"
);
}
);
width = 762;
}
);
leftKerningGroup = O;
leftMetricsKey = "=O*.95";
rightKerningGroup = O;
rightMetricsKey = "=O";
unicode = 018F;
},
{
color = 0;
glyphname = T;
lastChange = "2020-01-02 08:38:10 +0000";
layers = (
{
anchors = (
{
name = bottom;
position = "{308, 0}";
},
{
name = cedi;
position = "{298, 0}";
},
{
name = center;
position = "{308, 365}";
},
{
name = top;
position = "{308, 730}";
}
);
layerId = "D65C9A1E-0FCA-4B2D-8EDF-9F36CA9182A1";
leftMetricsKey = "=H*.3";
paths = (
{
closed = 1;
nodes = (
"318 0 LINE",
"318 710 LINE",
"588 710 LINE",
"588 730 LINE",
"28 730 LINE",
"28 710 LINE",
"298 710 LINE",
"298 0 LINE"
);
}
);
width = 616;
},
{
anchors = (
{
name = bottom;
position = "{318, 0}";
},
{
name = cedi;
position = "{261, 0}";
},
{
name = center;
position = "{318, 365}";
},
{
name = top;
position = "{318, 730}";
}
);
layerId = "9527F797-22C1-480E-A1FE-2CDBEBE1FD4C";
leftMetricsKey = "=H*.35";
paths = (
{
closed = 1;
nodes = (
"374 0 LINE",
"374 630 LINE",
"607 630 LINE",
"607 730 LINE",
"28 730 LINE",
"28 630 LINE",
"261 630 LINE",
"261 0 LINE"
);
}
);
width = 635;
},
{
anchors = (
{
name = bottom;
position = "{325, 0}";
},
{
name = cedi;
position = "{222, 0}";
},
{
name = center;
position = "{325, 365}";
},
{
name = top;
position = "{325, 730}";
}
);
layerId = "9E6B41AB-2970-4C41-8B35-4DBE0D296A43";
leftMetricsKey = "=H*.4";
paths = (
{
closed = 1;
nodes = (
"427 0 LINE",
"427 560 LINE",
"623 560 LINE",
"623 730 LINE",
"26 730 LINE",
"26 560 LINE",
"222 560 LINE",
"222 0 LINE"
);
}
);
width = 649;
}
);
leftKerningGroup = T;
leftMetricsKey = "=H*0.4";
rightKerningGroup = T;
rightMetricsKey = "=|";
unicode = 0054;
},
{
glyphname = Tbar;
lastChange = "2020-01-02 10:33:09 +0000";
layers = (
{
components = (
{
name = T;
transform = "{1, 0, 0, 1, 28, 0}";
}
);
layerId = "D65C9A1E-0FCA-4B2D-8EDF-9F36CA9182A1";
paths = (
{
closed = 1;
nodes = (
"546 305 LINE",
"546 325 LINE",
"126 325 LINE",
"126 305 LINE"
);
}
);
width = 672;
},
{
components = (
{
alignment = -1;
name = T;
transform = "{1, 0, 0, 1, 28, 0}";
}
);
layerId = "9527F797-22C1-480E-A1FE-2CDBEBE1FD4C";
paths = (
{
closed = 1;
nodes = (
"576 270 LINE",
"576 360 LINE",
"116 360 LINE",
"116 270 LINE"
);
}
);
width = 691;
},
{
components = (
{
name = T;
transform = "{1, 0, 0, 1, 26, 0}";
}
);
layerId = "9E6B41AB-2970-4C41-8B35-4DBE0D296A43";
paths = (
{
closed = 1;
nodes = (
"601 245 LINE",
"601 385 LINE",
"101 385 LINE",
"101 245 LINE"
);
}
);
width = 701;
}
);
leftKerningGroup = W;
leftMetricsKey = "=T*2";
rightKerningGroup = W;
rightMetricsKey = "=|";
unicode = 0166;
},
{
color = 0;
glyphname = U;
lastChange = "2020-01-02 12:53:44 +0000";
layers = (
{
anchors = (
{
name = bottom;
position = "{345, 0}";
},
{
name = ogonek;
position = "{454, 10}";
},
{
name = top;
position = "{345, 730}";
},
{
name = top_ring;
position = "{345, 700}";
},
{
name = topright;
position = "{605, 690}";
}
);
layerId = "D65C9A1E-0FCA-4B2D-8EDF-9F36CA9182A1";
paths = (
{
closed = 1;
nodes = (
"517 -10 OFFCURVE",
"605 85 OFFCURVE",
"605 270 CURVE SMOOTH",
"605 730 LINE",
"585 730 LINE",
"585 270 LINE SMOOTH",
"585 96 OFFCURVE",
"505 10 OFFCURVE",
"345 10 CURVE SMOOTH",
"185 10 OFFCURVE",
"105 96 OFFCURVE",
"105 270 CURVE SMOOTH",
"105 730 LINE",
"85 730 LINE",
"85 270 LINE SMOOTH",
"85 85 OFFCURVE",
"173 -10 OFFCURVE",
"345 -10 CURVE SMOOTH"
);
}
);
width = 690;
},
{
anchors = (
{
name = bottom;
position = "{352, 0}";
},
{
name = ogonek;
position = "{478, 10}";
},
{
name = top;
position = "{352, 730}";
},
{
name = top_ring;
position = "{352, 700}";
},
{
name = topright;
position = "{617, 690}";
}
);
layerId = "9527F797-22C1-480E-A1FE-2CDBEBE1FD4C";
paths = (
{
closed = 1;
nodes = (
"535 -10 OFFCURVE",
"632 87 OFFCURVE",
"632 270 CURVE SMOOTH",
"632 730 LINE",
"522 730 LINE",
"522 283 LINE SMOOTH",
"522 149 OFFCURVE",
"470 90 OFFCURVE",
"352 90 CURVE SMOOTH",
"234 90 OFFCURVE",
"182 149 OFFCURVE",
"182 283 CURVE SMOOTH",
"182 730 LINE",
"72 730 LINE",
"72 270 LINE SMOOTH",
"72 87 OFFCURVE",
"169 -10 OFFCURVE",
"352 -10 CURVE SMOOTH"
);
}
);
width = 704;
},
{
anchors = (
{
name = bottom;
position = "{359, 0}";
},
{
name = ogonek;
position = "{492, 10}";
},
{
name = top;
position = "{359, 730}";
},
{
name = top_ring;
position = "{359, 700}";
},
{
name = topright;
position = "{629, 690}";
}
);
layerId = "9E6B41AB-2970-4C41-8B35-4DBE0D296A43";
paths = (
{
closed = 1;
nodes = (
"554 -10 OFFCURVE",
"659 88 OFFCURVE",
"659 270 CURVE SMOOTH",
"659 730 LINE",
"459 730 LINE",
"459 295 LINE SMOOTH",
"459 194 OFFCURVE",
"434 160 OFFCURVE",
"359 160 CURVE SMOOTH",
"284 160 OFFCURVE",
"259 194 OFFCURVE",
"259 295 CURVE SMOOTH",
"259 730 LINE",
"59 730 LINE",
"59 270 LINE SMOOTH",
"59 88 OFFCURVE",
"164 -10 OFFCURVE",
"359 -10 CURVE SMOOTH"
);
}
);
width = 718;
}
);
leftKerningGroup = U;
leftMetricsKey = "=H*.9";
rightKerningGroup = U;
rightMetricsKey = "=|";
unicode = 0055;
},
{
color = 0;
glyphname = V;
lastChange = "2019-12-28 15:06:05 +0000";
layers = (
{
layerId = "D65C9A1E-0FCA-4B2D-8EDF-9F36CA9182A1";
paths = (
{
closed = 1;
nodes = (
"339 0 LINE",
"629 730 LINE",
"607 730 LINE",
"325 20 LINE",
"323 20 LINE",
"41 730 LINE",
"19 730 LINE",
"309 0 LINE"
);
}
);
width = 648;
},
{
layerId = "9527F797-22C1-480E-A1FE-2CDBEBE1FD4C";
paths = (
{
closed = 1;
nodes = (
"410 0 LINE",
"662 730 LINE",
"541 730 LINE",
"338 110 LINE",
"336 110 LINE",
"133 730 LINE",
"12 730 LINE",
"265 0 LINE"
);
}
);
width = 674;
},
{
layerId = "9E6B41AB-2970-4C41-8B35-4DBE0D296A43";
paths = (
{
closed = 1;
nodes = (
"482 0 LINE",
"697 730 LINE",
"477 730 LINE",
"353 200 LINE",
"351 200 LINE",
"227 730 LINE",
"7 730 LINE",
"222 0 LINE"
);
}
);
width = 704;
}
);
leftKerningGroup = V;
leftMetricsKey = "=A";
rightKerningGroup = V;
rightMetricsKey = "=|";
unicode = 0056;
},
{
color = 0;
glyphname = W;
lastChange = "2020-01-02 13:10:57 +0000";
layers = (
{
anchors = (
{
name = bottom;
position = "{445, 0}";
},
{
name = top;
position = "{445, 730}";
}
);
layerId = "D65C9A1E-0FCA-4B2D-8EDF-9F36CA9182A1";
leftMetricsKey = "=V*1.6";
paths = (
{
closed = 1;
nodes = (
"251 0 LINE",
"444 613 LINE",
"446 613 LINE",
"639 0 LINE",
"671 0 LINE",
"860 730 LINE",
"839 730 LINE",
"656 17 LINE",
"654 17 LINE",
"461 630 LINE",
"429 630 LINE",
"236 17 LINE",
"234 17 LINE",
"51 730 LINE",
"30 730 LINE",
"219 0 LINE"
);
}
);
width = 890;
},
{
anchors = (
{
name = bottom;
position = "{466, 0}";
},
{
name = top;
position = "{466, 730}";
}
);
layerId = "9527F797-22C1-480E-A1FE-2CDBEBE1FD4C";
leftMetricsKey = "=V*2.3";
paths = (
{
closed = 1;
nodes = (
"346 0 LINE",
"465 495 LINE",
"467 495 LINE",
"586 0 LINE",
"740 0 LINE",
"904 730 LINE",
"788 730 LINE",
"665 135 LINE",
"663 135 LINE",
"544 630 LINE",
"388 630 LINE",
"269 135 LINE",
"267 135 LINE",
"144 730 LINE",
"28 730 LINE",
"192 0 LINE"
);
}
);
width = 932;
},
{
anchors = (
{
name = bottom;
position = "{481, 0}";
},
{
name = top;
position = "{481, 730}";
}
);
layerId = "9E6B41AB-2970-4C41-8B35-4DBE0D296A43";
leftMetricsKey = "=V*3";
paths = (
{
closed = 1;
nodes = (
"411 0 LINE",
"480 380 LINE",
"482 380 LINE",
"551 0 LINE",
"791 0 LINE",
"941 730 LINE",
"721 730 LINE",
"667 250 LINE",
"665 250 LINE",
"601 630 LINE",
"361 630 LINE",
"297 250 LINE",
"295 250 LINE",
"241 730 LINE",
"21 730 LINE",
"171 0 LINE"
);
}
);
width = 962;
}
);
leftKerningGroup = W;
leftMetricsKey = "=V*3";
rightKerningGroup = W;
rightMetricsKey = "=|";
unicode = 0057;
},
{
color = 0;
glyphname = X;
lastChange = "2019-12-28 14:32:35 +0000";
layers = (
{
layerId = "D65C9A1E-0FCA-4B2D-8EDF-9F36CA9182A1";
paths = (
{
closed = 1;
nodes = (
"89 0 LINE",
"343 352 LINE",
"345 352 LINE",
"599 0 LINE",
"624 0 LINE",
"356 369 LINE",
"618 730 LINE",
"593 730 LINE",
"345 387 LINE",
"343 387 LINE",
"95 730 LINE",
"70 730 LINE",
"332 369 LINE",
"64 0 LINE"
);
}
);
width = 688;
},
{
layerId = "9527F797-22C1-480E-A1FE-2CDBEBE1FD4C";
paths = (
{
closed = 1;
nodes = (
"169 0 LINE",
"343 304 LINE",
"345 304 LINE",
"519 0 LINE",
"644 0 LINE",
"425 367 LINE",
"641 730 LINE",
"516 730 LINE",
"345 431 LINE",
"343 431 LINE",
"172 730 LINE",
"47 730 LINE",
"263 367 LINE",
"44 0 LINE"
);
}
);
width = 688;
},
{
layerId = "9E6B41AB-2970-4C41-8B35-4DBE0D296A43";
paths = (
{
closed = 1;
nodes = (
"254 0 LINE",
"348 255 LINE",
"350 255 LINE",
"444 0 LINE",
"669 0 LINE",
"499 365 LINE",
"669 730 LINE",
"444 730 LINE",
"350 475 LINE",
"348 475 LINE",
"254 730 LINE",
"29 730 LINE",
"199 365 LINE",
"29 0 LINE"
);
}
);
width = 698;
}
);
leftKerningGroup = X;
leftMetricsKey = "=|K*2.2";
rightKerningGroup = X;
rightMetricsKey = "=|";
unicode = 0058;
},
{
color = 0;
glyphname = Y;
lastChange = "2020-01-02 13:13:47 +0000";
layers = (
{
anchors = (
{
name = bottom;
position = "{311, 0}";
},
{
name = top;
position = "{311, 730}";
},
{
name = topleft;
position = "{20, 730}";
}
);
layerId = "D65C9A1E-0FCA-4B2D-8EDF-9F36CA9182A1";
paths = (
{
closed = 1;
nodes = (
"321 0 LINE",
"321 317 LINE",
"611 730 LINE",
"587 730 LINE",
"312 338 LINE",
"310 338 LINE",
"35 730 LINE",
"11 730 LINE",
"301 317 LINE",
"301 0 LINE"
);
}
);
width = 622;
},
{
anchors = (
{
name = bottom;
position = "{327, 0}";
},
{
name = top;
position = "{327, 730}";
},
{
name = topleft;
position = "{20, 730}";
}
);
layerId = "9527F797-22C1-480E-A1FE-2CDBEBE1FD4C";
paths = (
{
closed = 1;
nodes = (
"384 0 LINE",
"384 294 LINE",
"647 730 LINE",
"521 730 LINE",
"328 396 LINE",
"326 396 LINE",
"133 730 LINE",
"7 730 LINE",
"270 294 LINE",
"270 0 LINE"
);
}
);
width = 654;
},
{
anchors = (
{
name = bottom;
position = "{344, 0}";
},
{
name = top;
position = "{344, 730}";
},
{
name = topleft;
position = "{20, 730}";
}
);
layerId = "9E6B41AB-2970-4C41-8B35-4DBE0D296A43";
paths = (
{
closed = 1;
nodes = (
"449 0 LINE",
"449 270 LINE",
"684 730 LINE",
"464 730 LINE",
"345 440 LINE",
"343 440 LINE",
"224 730 LINE",
"4 730 LINE",
"239 270 LINE",
"239 0 LINE"
);
}
);
width = 688;
}
);
leftKerningGroup = Y;
leftMetricsKey = "=V*.6";
rightKerningGroup = Y;
rightMetricsKey = "=|";
unicode = 0059;
},
{
color = 0;
glyphname = Z;
lastChange = "2020-01-02 13:25:59 +0000";
layers = (
{
anchors = (
{
name = bottom;
position = "{316, 0}";
},
{
name = center;
position = "{316, 365}";
},
{
name = top;
position = "{316, 730}";
}
);
layerId = "D65C9A1E-0FCA-4B2D-8EDF-9F36CA9182A1";
paths = (
{
closed = 1;
nodes = (
"556 0 LINE",
"556 20 LINE",
"102 20 LINE",
"102 22 LINE",
"556 710 LINE",
"556 730 LINE",
"76 730 LINE",
"76 710 LINE",
"530 710 LINE",
"530 708 LINE",
"76 20 LINE",
"76 0 LINE"
);
}
);
width = 632;
},
{
anchors = (
{
name = bottom;
position = "{319, 0}";
},
{
name = center;
position = "{319, 365}";
},
{
name = top;
position = "{319, 730}";
}
);
layerId = "9527F797-22C1-480E-A1FE-2CDBEBE1FD4C";
paths = (
{
closed = 1;
nodes = (
"574 0 LINE",
"574 100 LINE",
"199 100 LINE",
"199 102 LINE",
"574 630 LINE",
"574 730 LINE",
"64 730 LINE",
"64 630 LINE",
"439 630 LINE",
"439 628 LINE",
"64 100 LINE",
"64 0 LINE"
);
}
);
width = 638;
},
{
anchors = (
{
name = bottom;
position = "{322, 0}";
},
{
name = center;
position = "{322, 365}";
},
{
name = top;
position = "{322, 730}";
}
);
layerId = "9E6B41AB-2970-4C41-8B35-4DBE0D296A43";
paths = (
{
closed = 1;
nodes = (
"592 0 LINE",
"592 165 LINE",
"287 165 LINE",
"287 167 LINE",
"592 565 LINE",
"592 730 LINE",
"52 730 LINE",
"52 565 LINE",
"357 565 LINE",
"357 563 LINE",
"52 165 LINE",
"52 0 LINE"
);
}
);
width = 644;
}
);
leftKerningGroup = Z;
leftMetricsKey = "=H*.8";
rightKerningGroup = Z;
rightMetricsKey = "=|";
unicode = 005A;
},
{
color = 0;
glyphname = a;
lastChange = "2020-01-01 06:31:41 +0000";
layers = (
{
anchors = (
{
name = bottom;
position = "{240, 0}";
},
{
name = ogonek;
position = "{434, 0}";
},
{
name = top;
position = "{240, 520}";
}
);
layerId = "D65C9A1E-0FCA-4B2D-8EDF-9F36CA9182A1";
paths = (
{
closed = 1;
nodes = (
"434 0 LINE",
"434 330 LINE SMOOTH",
"434 474 OFFCURVE",
"384 530 OFFCURVE",
"256 530 CURVE SMOOTH",
"186 530 OFFCURVE",
"117 513 OFFCURVE",
"54 480 CURVE",
"63 462 LINE",
"123 494 OFFCURVE",
"189 510 OFFCURVE",
"256 510 CURVE SMOOTH",
"372 510 OFFCURVE",
"414 463 OFFCURVE",
"414 330 CURVE SMOOTH",
"414 116 LINE",
"414 116 LINE",
"414 0 LINE"
);
},
{
closed = 1;
nodes = (
"300 -10 OFFCURVE",
"377 40 OFFCURVE",
"412 116 CURVE",
"424 116 LINE",
"424 210 LINE",
"414 210 LINE",
"414 95 OFFCURVE",
"325 10 OFFCURVE",
"205 10 CURVE SMOOTH",
"113 10 OFFCURVE",
"54 61 OFFCURVE",
"54 140 CURVE SMOOTH",
"54 246 OFFCURVE",
"160 305 OFFCURVE",
"351 305 CURVE SMOOTH",
"424 305 LINE",
"424 325 LINE",
"351 325 LINE SMOOTH",
"149 325 OFFCURVE",
"34 259 OFFCURVE",
"34 140 CURVE SMOOTH",
"34 50 OFFCURVE",
"102 -10 OFFCURVE",
"205 -10 CURVE SMOOTH"
);
}
);
width = 511;
},
{
anchors = (
{
name = bottom;
position = "{260, 0}";
},
{
name = ogonek;
position = "{482, 0}";
},
{
name = top;
position = "{260, 520}";
}
);
layerId = "9527F797-22C1-480E-A1FE-2CDBEBE1FD4C";
paths = (
{
closed = 1;
nodes = (
"482 0 LINE",
"482 325 LINE SMOOTH",
"482 474 OFFCURVE",
"425 530 OFFCURVE",
"275 530 CURVE SMOOTH",
"195 530 OFFCURVE",
"118 514 OFFCURVE",
"51 483 CURVE",
"68 394 LINE",
"129 424 OFFCURVE",
"199 440 OFFCURVE",
"267 440 CURVE SMOOTH",
"350 440 OFFCURVE",
"374 416 OFFCURVE",
"374 330 CURVE SMOOTH",
"374 69 LINE",
"378 69 LINE",
"379 0 LINE"
);
},
{
closed = 1;
nodes = (
"273 -10 OFFCURVE",
"338 19 OFFCURVE",
"376 69 CURVE",
"428 69 LINE",
"428 203 LINE",
"374 203 LINE",
"374 138 OFFCURVE",
"303 78 OFFCURVE",
"227 78 CURVE SMOOTH",
"173 78 OFFCURVE",
"137 108 OFFCURVE",
"137 154 CURVE SMOOTH",
"137 218 OFFCURVE",
"205 253 OFFCURVE",
"333 253 CURVE SMOOTH",
"428 253 LINE",
"428 338 LINE",
"333 338 LINE SMOOTH",
"138 338 OFFCURVE",
"29 269 OFFCURVE",
"29 145 CURVE SMOOTH",
"29 50 OFFCURVE",
"94 -10 OFFCURVE",
"199 -10 CURVE SMOOTH"
);
}
);
width = 547;
},
{
anchors = (
{
name = bottom;
position = "{280, 0}";
},
{
name = ogonek;
position = "{529, 0}";
},
{
name = top;
position = "{280, 520}";
}
);
layerId = "9E6B41AB-2970-4C41-8B35-4DBE0D296A43";
paths = (
{
closed = 1;
nodes = (
"529 0 LINE",
"529 320 LINE SMOOTH",
"529 470 OFFCURVE",
"460 530 OFFCURVE",
"289 530 CURVE SMOOTH",
"205 530 OFFCURVE",
"120 514 OFFCURVE",
"49 485 CURVE",
"74 345 LINE",
"140 374 OFFCURVE",
"211 390 OFFCURVE",
"273 390 CURVE SMOOTH",
"322 390 OFFCURVE",
"333 379 OFFCURVE",
"333 330 CURVE SMOOTH",
"333 60 LINE",
"341 60 LINE",
"343 0 LINE"
);
},
{
closed = 1;
nodes = (
"248 -10 OFFCURVE",
"300 14 OFFCURVE",
"339 60 CURVE",
"431 60 LINE",
"431 195 LINE",
"333 195 LINE",
"333 153 OFFCURVE",
"302 125 OFFCURVE",
"255 125 CURVE SMOOTH",
"219 125 OFFCURVE",
"200 141 OFFCURVE",
"200 170 CURVE SMOOTH",
"200 208 OFFCURVE",
"233 225 OFFCURVE",
"309 225 CURVE SMOOTH",
"431 225 LINE",
"431 330 LINE",
"309 330 LINE SMOOTH",
"127 330 OFFCURVE",
"24 265 OFFCURVE",
"24 150 CURVE SMOOTH",
"24 55 OFFCURVE",
"91 -10 OFFCURVE",
"189 -10 CURVE SMOOTH"
);
}
);
width = 582;
},
{
anchors = (
{
name = bottom;
position = "{262, 0}";
},
{
name = ogonek;
position = "{450, 0}";
},
{
name = top;
position = "{262, 520}";
}
);
associatedMasterId = "D65C9A1E-0FCA-4B2D-8EDF-9F36CA9182A1";
layerId = "37E9DD48-F59F-412B-917A-B9493104890B";
name = "Light {232}";
paths = (
{
closed = 1;
nodes = (
"450 0 LINE",
"450 328 LINE SMOOTH",
"450 474 OFFCURVE",
"398 530 OFFCURVE",
"262 530 CURVE SMOOTH",
"189 530 OFFCURVE",
"117 513 OFFCURVE",
"53 481 CURVE",
"65 440 LINE",
"125 471 OFFCURVE",
"192 487 OFFCURVE",
"260 487 CURVE SMOOTH",
"365 487 OFFCURVE",
"401 447 OFFCURVE",
"401 330 CURVE SMOOTH",
"401 85 LINE",
"402 85 LINE",
"402 0 LINE"
);
},
{
closed = 1;
nodes = (
"286 -10 OFFCURVE",
"364 28 OFFCURVE",
"400 85 CURVE",
"425 85 LINE",
"425 208 LINE",
"401 208 LINE",
"401 109 OFFCURVE",
"318 32 OFFCURVE",
"212 32 CURVE SMOOTH",
"133 32 OFFCURVE",
"81 77 OFFCURVE",
"81 145 CURVE SMOOTH",
"81 237 OFFCURVE",
"175 288 OFFCURVE",
"345 288 CURVE SMOOTH",
"425 288 LINE",
"425 329 LINE",
"345 329 LINE SMOOTH",
"145 329 OFFCURVE",
"32 262 OFFCURVE",
"32 142 CURVE SMOOTH",
"32 50 OFFCURVE",
"99 -10 OFFCURVE",
"203 -10 CURVE SMOOTH"
);
}
);
width = 523;
}
);
leftKerningGroup = a;
leftMetricsKey = "=h*.4";
rightKerningGroup = h;
rightMetricsKey = "=h";
unicode = 0061;
},
{
color = 3;
glyphname = ae;
lastChange = "2020-01-07 03:17:23 +0000";
layers = (
{
anchors = (
{
name = bottom;
position = "{448, 0}";
},
{
name = top;
position = "{448, 520}";
}
);
layerId = "D65C9A1E-0FCA-4B2D-8EDF-9F36CA9182A1";
paths = (
{
closed = 1;
nodes = (
"718 -10 OFFCURVE",
"783 7 OFFCURVE",
"834 36 CURVE",
"824 53 LINE",
"775 26 OFFCURVE",
"714 10 OFFCURVE",
"654 10 CURVE SMOOTH",
"513 10 OFFCURVE",
"434 98 OFFCURVE",
"434 260 CURVE",
"434 260 LINE",
"434 422 OFFCURVE",
"506 510 OFFCURVE",
"634 510 CURVE SMOOTH",
"762 510 OFFCURVE",
"834 422 OFFCURVE",
"834 260 CURVE",
"844 278 LINE",
"424 278 LINE",
"424 258 LINE",
"854 258 LINE",
"854 259 OFFCURVE",
"854 259 OFFCURVE",
"854 260 CURVE SMOOTH",
"854 432 OFFCURVE",
"774 530 OFFCURVE",
"634 530 CURVE SMOOTH",
"494 530 OFFCURVE",
"414 432 OFFCURVE",
"414 260 CURVE SMOOTH",
"414 88 OFFCURVE",
"501 -10 OFFCURVE",
"654 -10 CURVE SMOOTH"
);
},
{
closed = 1;
nodes = (
"336 -10 OFFCURVE",
"434 84 OFFCURVE",
"434 210 CURVE SMOOTH",
"434 330 LINE SMOOTH",
"434 474 OFFCURVE",
"384 530 OFFCURVE",
"256 530 CURVE SMOOTH",
"186 530 OFFCURVE",
"117 513 OFFCURVE",
"54 480 CURVE",
"63 462 LINE",
"123 494 OFFCURVE",
"189 510 OFFCURVE",
"256 510 CURVE SMOOTH",
"372 510 OFFCURVE",
"414 463 OFFCURVE",
"414 330 CURVE SMOOTH",
"414 210 LINE SMOOTH",
"414 95 OFFCURVE",
"325 10 OFFCURVE",
"205 10 CURVE SMOOTH",
"113 10 OFFCURVE",
"54 61 OFFCURVE",
"54 140 CURVE SMOOTH",
"54 246 OFFCURVE",
"160 305 OFFCURVE",
"351 305 CURVE SMOOTH",
"424 305 LINE",
"424 325 LINE",
"351 325 LINE SMOOTH",
"149 325 OFFCURVE",
"34 259 OFFCURVE",
"34 140 CURVE SMOOTH",
"34 50 OFFCURVE",
"102 -10 OFFCURVE",
"205 -10 CURVE SMOOTH"
);
}
);
width = 895;
},
{
anchors = (
{
name = bottom;
position = "{447, 0}";
},
{
name = top;
position = "{447, 520}";
}
);
background = {
anchors = (
{
name = bottom;
position = "{448, 0}";
},
{
name = top;
position = "{448, 520}";
}
);
};
layerId = "9527F797-22C1-480E-A1FE-2CDBEBE1FD4C";
paths = (
{
closed = 1;
nodes = (
"704 -10 OFFCURVE",
"771 5 OFFCURVE",
"824 32 CURVE",
"800 115 LINE",
"758 93 OFFCURVE",
"697 80 OFFCURVE",
"643 80 CURVE SMOOTH",
"533 80 OFFCURVE",
"479 133 OFFCURVE",
"479 240 CURVE SMOOTH",
"479 270 LINE SMOOTH",
"479 387 OFFCURVE",
"524 442 OFFCURVE",
"621 442 CURVE SMOOTH",
"716 442 OFFCURVE",
"758 389 OFFCURVE",
"758 270 CURVE",
"774 300 LINE",
"433 300 LINE",
"433 215 LINE",
"857 215 LINE",
"858 227 OFFCURVE",
"859 241 OFFCURVE",
"859 260 CURVE SMOOTH",
"859 435 OFFCURVE",
"775 530 OFFCURVE",
"621 530 CURVE SMOOTH",
"465 530 OFFCURVE",
"374 431 OFFCURVE",
"374 260 CURVE SMOOTH",
"374 86 OFFCURVE",
"468 -10 OFFCURVE",
"637 -10 CURVE SMOOTH"
);
},
{
closed = 1;
nodes = (
"385 -10 OFFCURVE",
"479 85 OFFCURVE",
"479 250 CURVE SMOOTH",
"479 325 LINE SMOOTH",
"479 474 OFFCURVE",
"423 530 OFFCURVE",
"275 530 CURVE SMOOTH",
"195 530 OFFCURVE",
"118 514 OFFCURVE",
"51 483 CURVE",
"68 394 LINE",
"129 424 OFFCURVE",
"199 440 OFFCURVE",
"267 440 CURVE SMOOTH",
"350 440 OFFCURVE",
"374 416 OFFCURVE",
"374 330 CURVE SMOOTH",
"374 203 LINE SMOOTH",
"374 138 OFFCURVE",
"303 78 OFFCURVE",
"227 78 CURVE SMOOTH",
"173 78 OFFCURVE",
"137 108 OFFCURVE",
"137 154 CURVE SMOOTH",
"137 218 OFFCURVE",
"205 253 OFFCURVE",
"333 253 CURVE SMOOTH",
"428 253 LINE",
"428 338 LINE",
"333 338 LINE SMOOTH",
"138 338 OFFCURVE",
"29 269 OFFCURVE",
"29 145 CURVE SMOOTH",
"29 47 OFFCURVE",
"100 -10 OFFCURVE",
"222 -10 CURVE SMOOTH"
);
}
);
width = 893;
},
{
anchors = (
{
name = bottom;
position = "{448, 0}";
},
{
name = top;
position = "{448, 520}";
}
);
background = {
paths = (
{
closed = 1;
nodes = (
"529 470 OFFCURVE",
"460 530 OFFCURVE",
"289 530 CURVE SMOOTH",
"205 530 OFFCURVE",
"120 514 OFFCURVE",
"49 485 CURVE",
"74 345 LINE",
"140 374 OFFCURVE",
"211 390 OFFCURVE",
"273 390 CURVE SMOOTH",
"322 390 OFFCURVE",
"333 379 OFFCURVE",
"333 330 CURVE SMOOTH",
"333 195 LINE SMOOTH",
"333 153 OFFCURVE",
"302 125 OFFCURVE",
"255 125 CURVE SMOOTH",
"219 125 OFFCURVE",
"200 141 OFFCURVE",
"200 170 CURVE SMOOTH",
"200 208 OFFCURVE",
"233 225 OFFCURVE",
"309 225 CURVE SMOOTH",
"431 225 LINE",
"431 330 LINE",
"309 330 LINE SMOOTH",
"127 330 OFFCURVE",
"24 265 OFFCURVE",
"24 150 CURVE SMOOTH",
"24 55 OFFCURVE",
"91 -10 OFFCURVE",
"189 -10 CURVE SMOOTH",
"432 -10 OFFCURVE",
"529 89 OFFCURVE",
"529 320 CURVE"
);
}
);
};
layerId = "9E6B41AB-2970-4C41-8B35-4DBE0D296A43";
paths = (
{
closed = 1;
nodes = (
"708 -10 OFFCURVE",
"778 1 OFFCURVE",
"823 18 CURVE",
"798 148 LINE",
"751 132 OFFCURVE",
"704 125 OFFCURVE",
"655 125 CURVE SMOOTH",
"561 125 OFFCURVE",
"525 151 OFFCURVE",
"525 220 CURVE SMOOTH",
"525 280 LINE SMOOTH",
"525 367 OFFCURVE",
"549 405 OFFCURVE",
"603 405 CURVE SMOOTH",
"657 405 OFFCURVE",
"681 367 OFFCURVE",
"681 280 CURVE",
"704 315 LINE",
"443 315 LINE",
"443 200 LINE",
"859 200 LINE",
"861 211 OFFCURVE",
"863 246 OFFCURVE",
"863 270 CURVE SMOOTH",
"863 434 OFFCURVE",
"767 530 OFFCURVE",
"603 530 CURVE SMOOTH",
"435 530 OFFCURVE",
"333 428 OFFCURVE",
"333 260 CURVE SMOOTH",
"333 86 OFFCURVE",
"443 -10 OFFCURVE",
"643 -10 CURVE SMOOTH"
);
},
{
closed = 1;
nodes = (
"421 -10 OFFCURVE",
"525 99 OFFCURVE",
"525 290 CURVE SMOOTH",
"525 320 LINE SMOOTH",
"525 470 OFFCURVE",
"457 530 OFFCURVE",
"289 530 CURVE SMOOTH",
"205 530 OFFCURVE",
"120 514 OFFCURVE",
"49 485 CURVE",
"74 345 LINE",
"140 374 OFFCURVE",
"211 390 OFFCURVE",
"273 390 CURVE SMOOTH",
"322 390 OFFCURVE",
"333 379 OFFCURVE",
"333 330 CURVE SMOOTH",
"333 195 LINE SMOOTH",
"333 153 OFFCURVE",
"302 125 OFFCURVE",
"255 125 CURVE SMOOTH",
"219 125 OFFCURVE",
"200 141 OFFCURVE",
"200 170 CURVE SMOOTH",
"200 208 OFFCURVE",
"233 225 OFFCURVE",
"309 225 CURVE SMOOTH",
"431 225 LINE",
"431 330 LINE",
"309 330 LINE SMOOTH",
"127 330 OFFCURVE",
"24 265 OFFCURVE",
"24 150 CURVE SMOOTH",
"24 43 OFFCURVE",
"95 -10 OFFCURVE",
"239 -10 CURVE SMOOTH"
);
}
);
width = 891;
}
);
leftKerningGroup = a;
leftMetricsKey = "=a";
rightKerningGroup = o;
rightMetricsKey = "=e";
unicode = 00E6;
},
{
color = 0;
glyphname = b;
lastChange = "2020-01-03 01:22:24 +0000";
layers = (
{
layerId = "D65C9A1E-0FCA-4B2D-8EDF-9F36CA9182A1";
paths = (
{
closed = 1;
nodes = (
"426 -10 OFFCURVE",
"505 93 OFFCURVE",
"505 260 CURVE SMOOTH",
"505 427 OFFCURVE",
"426 530 OFFCURVE",
"295 530 CURVE SMOOTH",
"206 530 OFFCURVE",
"139 481 OFFCURVE",
"107 400 CURVE",
"95 400 LINE",
"95 285 LINE",
"105 285 LINE",
"105 422 OFFCURVE",
"180 510 OFFCURVE",
"295 510 CURVE SMOOTH",
"414 510 OFFCURVE",
"485 416 OFFCURVE",
"485 260 CURVE SMOOTH",
"485 104 OFFCURVE",
"414 10 OFFCURVE",
"295 10 CURVE SMOOTH",
"180 10 OFFCURVE",
"105 98 OFFCURVE",
"105 235 CURVE",
"95 235 LINE",
"95 120 LINE",
"107 120 LINE",
"139 39 OFFCURVE",
"206 -10 OFFCURVE",
"295 -10 CURVE SMOOTH"
);
},
{
closed = 1;
nodes = (
"105 0 LINE",
"105 120 LINE",
"105 120 LINE",
"105 750 LINE",
"85 750 LINE",
"85 0 LINE"
);
}
);
width = 552;
},
{
layerId = "9E6B41AB-2970-4C41-8B35-4DBE0D296A43";
paths = (
{
closed = 1;
nodes = (
"536 -10 OFFCURVE",
"605 85 OFFCURVE",
"605 260 CURVE SMOOTH",
"605 435 OFFCURVE",
"536 530 OFFCURVE",
"410 530 CURVE SMOOTH",
"349 530 OFFCURVE",
"301 508 OFFCURVE",
"257 460 CURVE",
"157 460 LINE",
"157 270 LINE",
"255 270 LINE",
"255 340 OFFCURVE",
"284 380 OFFCURVE",
"334 380 CURVE SMOOTH",
"386 380 OFFCURVE",
"413 339 OFFCURVE",
"413 260 CURVE SMOOTH",
"413 181 OFFCURVE",
"386 140 OFFCURVE",
"334 140 CURVE SMOOTH",
"284 140 OFFCURVE",
"255 180 OFFCURVE",
"255 250 CURVE",
"157 250 LINE",
"157 60 LINE",
"249 60 LINE",
"298 12 OFFCURVE",
"349 -10 OFFCURVE",
"410 -10 CURVE SMOOTH"
);
},
{
closed = 1;
nodes = (
"245 0 LINE",
"247 60 LINE",
"255 60 LINE",
"255 750 LINE",
"59 750 LINE",
"59 0 LINE"
);
}
);
width = 638;
},
{
layerId = "9527F797-22C1-480E-A1FE-2CDBEBE1FD4C";
paths = (
{
closed = 1;
nodes = (
"483 -10 OFFCURVE",
"555 86 OFFCURVE",
"555 260 CURVE SMOOTH",
"555 434 OFFCURVE",
"483 530 OFFCURVE",
"353 530 CURVE SMOOTH",
"282 530 OFFCURVE",
"220 501 OFFCURVE",
"182 449 CURVE",
"126 449 LINE",
"126 283 LINE",
"180 283 LINE",
"180 370 OFFCURVE",
"244 440 OFFCURVE",
"322 440 CURVE SMOOTH",
"399 440 OFFCURVE",
"447 371 OFFCURVE",
"447 260 CURVE SMOOTH",
"447 149 OFFCURVE",
"399 80 OFFCURVE",
"322 80 CURVE SMOOTH",
"244 80 OFFCURVE",
"180 150 OFFCURVE",
"180 237 CURVE",
"126 237 LINE",
"126 71 LINE",
"178 71 LINE",
"217 20 OFFCURVE",
"281 -10 OFFCURVE",
"353 -10 CURVE SMOOTH"
);
},
{
closed = 1;
nodes = (
"175 0 LINE",
"176 71 LINE",
"180 71 LINE",
"180 750 LINE",
"72 750 LINE",
"72 0 LINE"
);
}
);
width = 595;
},
{
associatedMasterId = "D65C9A1E-0FCA-4B2D-8EDF-9F36CA9182A1";
layerId = "4577C09C-2268-4FDD-969E-4BC558CAFA0A";
name = "Light {232}";
paths = (
{
closed = 1;
nodes = (
"445 -10 OFFCURVE",
"522 91 OFFCURVE",
"522 260 CURVE SMOOTH",
"522 429 OFFCURVE",
"445 530 OFFCURVE",
"314 530 CURVE SMOOTH",
"234 530 OFFCURVE",
"165 493 OFFCURVE",
"132 431 CURVE",
"105 431 LINE",
"105 284 LINE",
"130 284 LINE",
"130 405 OFFCURVE",
"201 487 OFFCURVE",
"304 487 CURVE SMOOTH",
"409 487 OFFCURVE",
"472 401 OFFCURVE",
"472 260 CURVE SMOOTH",
"472 119 OFFCURVE",
"409 33 OFFCURVE",
"304 33 CURVE SMOOTH",
"201 33 OFFCURVE",
"130 115 OFFCURVE",
"130 236 CURVE",
"105 236 LINE",
"105 89 LINE",
"130 89 LINE",
"165 27 OFFCURVE",
"234 -10 OFFCURVE",
"314 -10 CURVE SMOOTH"
);
},
{
closed = 1;
nodes = (
"128 0 LINE",
"128 89 LINE",
"130 89 LINE",
"130 750 LINE",
"81 750 LINE",
"81 0 LINE"
);
}
);
width = 567;
}
);
leftKerningGroup = b;
leftMetricsKey = "=h";
rightKerningGroup = o;
rightMetricsKey = "=o*1.1";
unicode = 0062;
},
{
color = 0;
glyphname = c;
lastChange = "2020-01-09 11:44:12 +0000";
layers = (
{
anchors = (
{
name = bottom;
position = "{265, 0}";
},
{
name = bottom_cd;
position = "{270, 0}";
},
{
name = top;
position = "{265, 520}";
}
);
layerId = "D65C9A1E-0FCA-4B2D-8EDF-9F36CA9182A1";
rightMetricsKey = "=h";
paths = (
{
closed = 1;
nodes = (
"343 -10 OFFCURVE",
"387 1 OFFCURVE",
"433 25 CURVE",
"424 43 LINE",
"380 20 OFFCURVE",
"340 10 OFFCURVE",
"293 10 CURVE SMOOTH",
"150 10 OFFCURVE",
"63 105 OFFCURVE",
"63 260 CURVE SMOOTH",
"63 415 OFFCURVE",
"150 510 OFFCURVE",
"293 510 CURVE SMOOTH",
"340 510 OFFCURVE",
"380 500 OFFCURVE",
"424 477 CURVE",
"433 495 LINE",
"387 519 OFFCURVE",
"343 530 OFFCURVE",
"293 530 CURVE SMOOTH",
"139 530 OFFCURVE",
"43 426 OFFCURVE",
"43 260 CURVE SMOOTH",
"43 94 OFFCURVE",
"139 -10 OFFCURVE",
"293 -10 CURVE SMOOTH"
);
}
);
width = 510;
},
{
anchors = (
{
name = bottom;
position = "{280, 0}";
},
{
name = bottom_cd;
position = "{290, 0}";
},
{
name = top;
position = "{280, 520}";
}
);
layerId = "9527F797-22C1-480E-A1FE-2CDBEBE1FD4C";
rightMetricsKey = "=h*.9";
paths = (
{
closed = 1;
nodes = (
"368 -10 OFFCURVE",
"421 2 OFFCURVE",
"471 28 CURVE",
"446 113 LINE",
"402 91 OFFCURVE",
"357 80 OFFCURVE",
"312 80 CURVE SMOOTH",
"204 80 OFFCURVE",
"144 144 OFFCURVE",
"144 260 CURVE SMOOTH",
"144 376 OFFCURVE",
"204 440 OFFCURVE",
"312 440 CURVE SMOOTH",
"357 440 OFFCURVE",
"402 429 OFFCURVE",
"446 407 CURVE",
"471 492 LINE",
"421 518 OFFCURVE",
"368 530 OFFCURVE",
"307 530 CURVE SMOOTH",
"135 530 OFFCURVE",
"36 432 OFFCURVE",
"36 260 CURVE SMOOTH",
"36 88 OFFCURVE",
"135 -10 OFFCURVE",
"307 -10 CURVE SMOOTH"
);
}
);
width = 530;
},
{
anchors = (
{
name = bottom;
position = "{295, 0}";
},
{
name = bottom_cd;
position = "{310, 0}";
},
{
name = top;
position = "{295, 520}";
}
);
layerId = "9E6B41AB-2970-4C41-8B35-4DBE0D296A43";
rightMetricsKey = "=h*.8";
paths = (
{
closed = 1;
nodes = (
"399 -10 OFFCURVE",
"456 3 OFFCURVE",
"510 30 CURVE",
"470 165 LINE",
"424 141 OFFCURVE",
"382 130 OFFCURVE",
"344 130 CURVE SMOOTH",
"268 130 OFFCURVE",
"230 174 OFFCURVE",
"230 260 CURVE SMOOTH",
"230 346 OFFCURVE",
"268 390 OFFCURVE",
"344 390 CURVE SMOOTH",
"382 390 OFFCURVE",
"424 379 OFFCURVE",
"470 355 CURVE",
"510 490 LINE",
"456 517 OFFCURVE",
"399 530 OFFCURVE",
"330 530 CURVE SMOOTH",
"138 530 OFFCURVE",
"30 433 OFFCURVE",
"30 260 CURVE SMOOTH",
"30 87 OFFCURVE",
"138 -10 OFFCURVE",
"330 -10 CURVE SMOOTH"
);
}
);
width = 552;
}
);
leftKerningGroup = o;
leftMetricsKey = "=o";
rightKerningGroup = c;
rightMetricsKey = "=h*.8";
unicode = 0063;
},
{
color = 3;
glyphname = eth;
lastChange = "2020-01-07 03:17:23 +0000";
layers = (
{
layerId = "D65C9A1E-0FCA-4B2D-8EDF-9F36CA9182A1";
rightMetricsKey = "=d*.3";
paths = (
{
closed = 1;
nodes = (
"423 -10 OFFCURVE",
"513 84 OFFCURVE",
"513 235 CURVE SMOOTH",
"513 445 OFFCURVE",
"334 735 OFFCURVE",
"170 790 CURVE",
"163 772 LINE",
"279 733 OFFCURVE",
"407 566 OFFCURVE",
"464 399 CURVE",
"462 398 LINE",
"421 451 OFFCURVE",
"358 480 OFFCURVE",
"278 480 CURVE SMOOTH",
"133 480 OFFCURVE",
"43 386 OFFCURVE",
"43 235 CURVE SMOOTH",
"43 84 OFFCURVE",
"133 -10 OFFCURVE",
"278 -10 CURVE SMOOTH"
);
},
{
closed = 1;
nodes = (
"144 10 OFFCURVE",
"63 95 OFFCURVE",
"63 235 CURVE SMOOTH",
"63 375 OFFCURVE",
"144 460 OFFCURVE",
"278 460 CURVE SMOOTH",
"412 460 OFFCURVE",
"493 375 OFFCURVE",
"493 235 CURVE SMOOTH",
"493 95 OFFCURVE",
"412 10 OFFCURVE",
"278 10 CURVE SMOOTH"
);
},
{
closed = 1;
nodes = (
"544 697 LINE",
"536 715 LINE",
"96 540 LINE",
"104 522 LINE"
);
}
);
width = 570;
},
{
layerId = "9527F797-22C1-480E-A1FE-2CDBEBE1FD4C";
rightMetricsKey = "=d*.5";
paths = (
{
closed = 1;
nodes = (
"455 -10 OFFCURVE",
"546 88 OFFCURVE",
"546 263 CURVE SMOOTH",
"546 544 OFFCURVE",
"381 758 OFFCURVE",
"141 790 CURVE",
"121 700 LINE",
"259 681 OFFCURVE",
"372 579 OFFCURVE",
"415 435 CURVE",
"413 434 LINE",
"380 465 OFFCURVE",
"335 480 OFFCURVE",
"276 480 CURVE SMOOTH",
"127 480 OFFCURVE",
"36 391 OFFCURVE",
"36 243 CURVE SMOOTH",
"36 84 OFFCURVE",
"131 -10 OFFCURVE",
"291 -10 CURVE SMOOTH"
);
},
{
closed = 1;
nodes = (
"198 80 OFFCURVE",
"144 140 OFFCURVE",
"144 243 CURVE SMOOTH",
"144 341 OFFCURVE",
"193 390 OFFCURVE",
"291 390 CURVE SMOOTH",
"389 390 OFFCURVE",
"438 341 OFFCURVE",
"438 243 CURVE SMOOTH",
"438 140 OFFCURVE",
"384 80 OFFCURVE",
"291 80 CURVE SMOOTH"
);
},
{
closed = 1;
nodes = (
"556 665 LINE",
"520 749 LINE",
"80 574 LINE",
"116 490 LINE"
);
}
);
width = 592;
},
{
layerId = "9E6B41AB-2970-4C41-8B35-4DBE0D296A43";
rightMetricsKey = "=d*.7";
paths = (
{
closed = 1;
nodes = (
"491 -10 OFFCURVE",
"580 84 OFFCURVE",
"580 280 CURVE SMOOTH",
"580 601 OFFCURVE",
"422 776 OFFCURVE",
"120 790 CURVE",
"80 660 LINE",
"244 652 OFFCURVE",
"361 575 OFFCURVE",
"367 471 CURVE",
"365 470 LINE",
"341 476 OFFCURVE",
"309 480 OFFCURVE",
"275 480 CURVE SMOOTH",
"119 480 OFFCURVE",
"30 397 OFFCURVE",
"30 250 CURVE SMOOTH",
"30 89 OFFCURVE",
"134 -10 OFFCURVE",
"305 -10 CURVE SMOOTH"
);
},
{
closed = 1;
nodes = (
"249 125 OFFCURVE",
"224 163 OFFCURVE",
"224 250 CURVE SMOOTH",
"224 337 OFFCURVE",
"249 375 OFFCURVE",
"305 375 CURVE SMOOTH",
"361 375 OFFCURVE",
"386 337 OFFCURVE",
"386 250 CURVE SMOOTH",
"386 163 OFFCURVE",
"361 125 OFFCURVE",
"305 125 CURVE SMOOTH"
);
},
{
closed = 1;
nodes = (
"565 643 LINE",
"510 773 LINE",
"70 598 LINE",
"125 468 LINE"
);
}
);
width = 621;
},
{
associatedMasterId = "D65C9A1E-0FCA-4B2D-8EDF-9F36CA9182A1";
layerId = "7EB7DD1D-0E67-4B53-AED1-36A39ED50BF4";
rightMetricsKey = "=d*.3";
name = "Light {232}";
paths = (
{
closed = 1;
nodes = (
"434 -10 OFFCURVE",
"524 85 OFFCURVE",
"524 244 CURVE SMOOTH",
"524 478 OFFCURVE",
"350 743 OFFCURVE",
"160 790 CURVE",
"145 749 LINE",
"267 720 OFFCURVE",
"390 578 OFFCURVE",
"445 423 CURVE",
"443 422 LINE",
"404 459 OFFCURVE",
"348 480 OFFCURVE",
"277 480 CURVE SMOOTH",
"131 480 OFFCURVE",
"41 388 OFFCURVE",
"41 238 CURVE SMOOTH",
"41 84 OFFCURVE",
"132 -10 OFFCURVE",
"282 -10 CURVE SMOOTH"
);
},
{
closed = 1;
nodes = (
"162 33 OFFCURVE",
"90 110 OFFCURVE",
"90 238 CURVE SMOOTH",
"90 364 OFFCURVE",
"160 437 OFFCURVE",
"282 437 CURVE SMOOTH",
"404 437 OFFCURVE",
"475 364 OFFCURVE",
"475 238 CURVE SMOOTH",
"475 110 OFFCURVE",
"403 33 OFFCURVE",
"282 33 CURVE SMOOTH"
);
},
{
closed = 1;
nodes = (
"548 686 LINE",
"531 726 LINE",
"91 551 LINE",
"108 511 LINE"
);
}
);
width = 572;
}
);
leftKerningGroup = o;
leftMetricsKey = "=o";
rightKerningGroup = o;
rightMetricsKey = "=d*.6";
unicode = 00F0;
},
{
glyphname = dcroat;
lastChange = "2020-01-03 01:23:07 +0000";
layers = (
{
components = (
{
name = d;
}
);
layerId = "D65C9A1E-0FCA-4B2D-8EDF-9F36CA9182A1";
paths = (
{
closed = 1;
nodes = (
"587 615 LINE",
"587 635 LINE",
"167 635 LINE",
"167 615 LINE"
);
}
);
width = 617;
},
{
components = (
{
alignment = -1;
name = d;
}
);
layerId = "9527F797-22C1-480E-A1FE-2CDBEBE1FD4C";
paths = (
{
closed = 1;
nodes = (
"633 580 LINE",
"633 670 LINE",
"213 670 LINE",
"213 580 LINE"
);
}
);
width = 661;
},
{
components = (
{
name = d;
}
);
layerId = "9E6B41AB-2970-4C41-8B35-4DBE0D296A43";
paths = (
{
closed = 1;
nodes = (
"679 555 LINE",
"679 695 LINE",
"259 695 LINE",
"259 555 LINE"
);
}
);
width = 700;
}
);
leftKerningGroup = o;
leftMetricsKey = "=d";
rightKerningGroup = W;
rightMetricsKey = "=W";
unicode = 0111;
},
{
color = 0;
glyphname = e;
lastChange = "2020-01-03 01:22:30 +0000";
layers = (
{
anchors = (
{
name = bottom;
position = "{264, 0}";
},
{
name = ogonek;
position = "{463, 36}";
},
{
name = top;
position = "{264, 520}";
}
);
layerId = "D65C9A1E-0FCA-4B2D-8EDF-9F36CA9182A1";
paths = (
{
closed = 1;
nodes = (
"347 -10 OFFCURVE",
"412 7 OFFCURVE",
"463 36 CURVE",
"453 53 LINE",
"404 26 OFFCURVE",
"343 10 OFFCURVE",
"283 10 CURVE SMOOTH",
"142 10 OFFCURVE",
"63 98 OFFCURVE",
"63 260 CURVE",
"63 260 LINE",
"63 422 OFFCURVE",
"135 510 OFFCURVE",
"263 510 CURVE SMOOTH",
"391 510 OFFCURVE",
"463 422 OFFCURVE",
"463 260 CURVE",
"473 278 LINE",
"53 278 LINE",
"53 258 LINE",
"483 258 LINE",
"483 259 OFFCURVE",
"483 259 OFFCURVE",
"483 260 CURVE SMOOTH",
"483 432 OFFCURVE",
"403 530 OFFCURVE",
"263 530 CURVE SMOOTH",
"123 530 OFFCURVE",
"43 432 OFFCURVE",
"43 260 CURVE SMOOTH",
"43 88 OFFCURVE",
"130 -10 OFFCURVE",
"283 -10 CURVE SMOOTH"
);
}
);
width = 524;
},
{
anchors = (
{
name = bottom;
position = "{282, 0}";
},
{
name = ogonek;
position = "{487, 32}";
},
{
name = top;
position = "{282, 520}";
}
);
layerId = "9527F797-22C1-480E-A1FE-2CDBEBE1FD4C";
paths = (
{
closed = 1;
nodes = (
"367 -10 OFFCURVE",
"434 5 OFFCURVE",
"487 32 CURVE",
"463 115 LINE",
"421 93 OFFCURVE",
"360 80 OFFCURVE",
"306 80 CURVE SMOOTH",
"196 80 OFFCURVE",
"142 133 OFFCURVE",
"142 240 CURVE SMOOTH",
"142 270 LINE SMOOTH",
"142 387 OFFCURVE",
"187 442 OFFCURVE",
"284 442 CURVE SMOOTH",
"379 442 OFFCURVE",
"421 389 OFFCURVE",
"421 270 CURVE",
"437 300 LINE",
"96 300 LINE",
"96 215 LINE",
"520 215 LINE",
"521 227 OFFCURVE",
"522 241 OFFCURVE",
"522 260 CURVE SMOOTH",
"522 435 OFFCURVE",
"438 530 OFFCURVE",
"284 530 CURVE SMOOTH",
"127 530 OFFCURVE",
"36 431 OFFCURVE",
"36 260 CURVE SMOOTH",
"36 86 OFFCURVE",
"130 -10 OFFCURVE",
"300 -10 CURVE SMOOTH"
);
}
);
width = 556;
},
{
anchors = (
{
name = bottom;
position = "{300, 0}";
},
{
name = ogonek;
position = "{520, 18}";
},
{
name = top;
position = "{300, 520}";
}
);
layerId = "9E6B41AB-2970-4C41-8B35-4DBE0D296A43";
paths = (
{
closed = 1;
nodes = (
"405 -10 OFFCURVE",
"475 1 OFFCURVE",
"520 18 CURVE",
"495 148 LINE",
"448 132 OFFCURVE",
"401 125 OFFCURVE",
"352 125 CURVE SMOOTH",
"258 125 OFFCURVE",
"222 151 OFFCURVE",
"222 220 CURVE SMOOTH",
"222 280 LINE SMOOTH",
"222 367 OFFCURVE",
"246 405 OFFCURVE",
"300 405 CURVE SMOOTH",
"354 405 OFFCURVE",
"378 367 OFFCURVE",
"378 280 CURVE",
"401 315 LINE",
"140 315 LINE",
"140 200 LINE",
"556 200 LINE",
"558 211 OFFCURVE",
"560 246 OFFCURVE",
"560 270 CURVE SMOOTH",
"560 434 OFFCURVE",
"464 530 OFFCURVE",
"300 530 CURVE SMOOTH",
"132 530 OFFCURVE",
"30 428 OFFCURVE",
"30 260 CURVE SMOOTH",
"30 86 OFFCURVE",
"140 -10 OFFCURVE",
"340 -10 CURVE SMOOTH"
);
}
);
width = 588;
}
);
leftKerningGroup = o;
leftMetricsKey = "=o";
rightKerningGroup = o;
rightMetricsKey = "=o*.95";
unicode = 0065;
},
{
color = 0;
glyphname = f;
lastChange = "2019-12-28 15:14:08 +0000";
layers = (
{
layerId = "9527F797-22C1-480E-A1FE-2CDBEBE1FD4C";
paths = (
{
closed = 1;
nodes = (
"268 0 LINE",
"268 410 LINE",
"432 410 LINE",
"432 500 LINE",
"268 500 LINE",
"268 555 LINE SMOOTH",
"268 627 OFFCURVE",
"286 650 OFFCURVE",
"342 650 CURVE SMOOTH",
"368 650 OFFCURVE",
"395 645 OFFCURVE",
"421 637 CURVE",
"437 725 LINE",
"401 734 OFFCURVE",
"360 740 OFFCURVE",
"325 740 CURVE SMOOTH",
"213 740 OFFCURVE",
"158 679 OFFCURVE",
"158 555 CURVE SMOOTH",
"158 500 LINE",
"22 500 LINE",
"22 410 LINE",
"158 410 LINE",
"158 0 LINE"
);
}
);
width = 459;
},
{
layerId = "9E6B41AB-2970-4C41-8B35-4DBE0D296A43";
paths = (
{
closed = 1;
nodes = (
"333 0 LINE",
"333 360 LINE",
"478 360 LINE",
"478 500 LINE",
"333 500 LINE",
"333 520 LINE SMOOTH",
"333 582 OFFCURVE",
"345 600 OFFCURVE",
"388 600 CURVE SMOOTH",
"411 600 OFFCURVE",
"436 595 OFFCURVE",
"463 585 CURVE",
"488 725 LINE",
"443 734 OFFCURVE",
"392 740 OFFCURVE",
"353 740 CURVE SMOOTH",
"211 740 OFFCURVE",
"135 663 OFFCURVE",
"135 520 CURVE SMOOTH",
"135 500 LINE",
"18 500 LINE",
"18 360 LINE",
"135 360 LINE",
"135 0 LINE"
);
}
);
width = 506;
},
{
layerId = "D65C9A1E-0FCA-4B2D-8EDF-9F36CA9182A1";
paths = (
{
closed = 1;
nodes = (
"203 0 LINE",
"203 480 LINE",
"385 480 LINE",
"385 500 LINE",
"203 500 LINE",
"203 590 LINE SMOOTH",
"203 681 OFFCURVE",
"236 720 OFFCURVE",
"311 720 CURVE SMOOTH",
"335 720 OFFCURVE",
"354 716 OFFCURVE",
"377 706 CURVE",
"385 725 LINE",
"358 736 OFFCURVE",
"336 740 OFFCURVE",
"311 740 CURVE SMOOTH",
"224 740 OFFCURVE",
"183 692 OFFCURVE",
"183 590 CURVE SMOOTH",
"183 500 LINE",
"25 500 LINE",
"25 480 LINE",
"183 480 LINE",
"183 0 LINE"
);
}
);
width = 411;
}
);
leftKerningGroup = f;
leftMetricsKey = "=h*.3";
rightKerningGroup = f;
rightMetricsKey = "=d*.3";
unicode = 0066;
},
{
color = 0;
glyphname = g;
lastChange = "2020-01-03 01:22:42 +0000";
layers = (
{
anchors = (
{
name = bottom;
position = "{270, -140}";
},
{
name = top;
position = "{270, 520}";
}
);
layerId = "D65C9A1E-0FCA-4B2D-8EDF-9F36CA9182A1";
paths = (
{
closed = 1;
nodes = (
"394 -230 OFFCURVE",
"467 -147 OFFCURVE",
"467 30 CURVE SMOOTH",
"467 520 LINE",
"447 520 LINE",
"447 400 LINE",
"447 400 LINE",
"447 30 LINE SMOOTH",
"447 -136 OFFCURVE",
"382 -210 OFFCURVE",
"238 -210 CURVE SMOOTH",
"184 -210 OFFCURVE",
"137 -200 OFFCURVE",
"90 -177 CURVE",
"81 -195 LINE",
"131 -219 OFFCURVE",
"181 -230 OFFCURVE",
"238 -230 CURVE SMOOTH"
);
},
{
closed = 1;
nodes = (
"346 -10 OFFCURVE",
"413 39 OFFCURVE",
"445 120 CURVE",
"457 120 LINE",
"457 235 LINE",
"447 235 LINE",
"447 98 OFFCURVE",
"372 10 OFFCURVE",
"257 10 CURVE SMOOTH",
"138 10 OFFCURVE",
"67 104 OFFCURVE",
"67 260 CURVE SMOOTH",
"67 416 OFFCURVE",
"138 510 OFFCURVE",
"257 510 CURVE SMOOTH",
"372 510 OFFCURVE",
"447 422 OFFCURVE",
"447 285 CURVE",
"457 285 LINE",
"457 400 LINE",
"445 400 LINE",
"413 481 OFFCURVE",
"346 530 OFFCURVE",
"257 530 CURVE SMOOTH",
"126 530 OFFCURVE",
"47 427 OFFCURVE",
"47 260 CURVE SMOOTH",
"47 93 OFFCURVE",
"126 -10 OFFCURVE",
"257 -10 CURVE SMOOTH"
);
}
);
width = 552;
},
{
anchors = (
{
name = bottom;
position = "{295, -140}";
},
{
name = top;
position = "{295, 520}";
}
);
layerId = "9527F797-22C1-480E-A1FE-2CDBEBE1FD4C";
paths = (
{
closed = 1;
nodes = (
"431 -230 OFFCURVE",
"523 -140 OFFCURVE",
"523 45 CURVE SMOOTH",
"523 520 LINE",
"420 520 LINE",
"419 449 LINE",
"415 449 LINE",
"415 45 LINE SMOOTH",
"415 -86 OFFCURVE",
"362 -140 OFFCURVE",
"238 -140 CURVE SMOOTH",
"184 -140 OFFCURVE",
"139 -130 OFFCURVE",
"96 -110 CURVE",
"77 -198 LINE",
"128 -220 OFFCURVE",
"180 -230 OFFCURVE",
"243 -230 CURVE SMOOTH"
);
},
{
closed = 1;
nodes = (
"315 -10 OFFCURVE",
"376 19 OFFCURVE",
"413 71 CURVE",
"469 71 LINE",
"469 237 LINE",
"415 237 LINE",
"415 150 OFFCURVE",
"351 80 OFFCURVE",
"273 80 CURVE SMOOTH",
"196 80 OFFCURVE",
"148 149 OFFCURVE",
"148 260 CURVE SMOOTH",
"148 371 OFFCURVE",
"196 440 OFFCURVE",
"273 440 CURVE SMOOTH",
"351 440 OFFCURVE",
"415 370 OFFCURVE",
"415 283 CURVE",
"469 283 LINE",
"469 449 LINE",
"417 449 LINE",
"377 501 OFFCURVE",
"315 530 OFFCURVE",
"243 530 CURVE SMOOTH",
"112 530 OFFCURVE",
"40 434 OFFCURVE",
"40 260 CURVE SMOOTH",
"40 86 OFFCURVE",
"112 -10 OFFCURVE",
"243 -10 CURVE SMOOTH"
);
}
);
width = 595;
},
{
anchors = (
{
name = bottom;
position = "{320, -140}";
},
{
name = top;
position = "{320, 520}";
}
);
layerId = "9E6B41AB-2970-4C41-8B35-4DBE0D296A43";
paths = (
{
closed = 1;
nodes = (
"480 -230 OFFCURVE",
"579 -143 OFFCURVE",
"579 60 CURVE SMOOTH",
"579 520 LINE",
"393 520 LINE",
"391 460 LINE",
"383 460 LINE",
"383 60 LINE SMOOTH",
"383 -49 OFFCURVE",
"344 -90 OFFCURVE",
"239 -90 CURVE SMOOTH",
"190 -90 OFFCURVE",
"148 -81 OFFCURVE",
"99 -60 CURVE",
"69 -200 LINE",
"129 -221 OFFCURVE",
"183 -230 OFFCURVE",
"249 -230 CURVE SMOOTH"
);
},
{
closed = 1;
nodes = (
"289 -10 OFFCURVE",
"337 12 OFFCURVE",
"381 60 CURVE",
"481 60 LINE",
"481 250 LINE",
"383 250 LINE",
"383 180 OFFCURVE",
"354 140 OFFCURVE",
"304 140 CURVE SMOOTH",
"252 140 OFFCURVE",
"225 181 OFFCURVE",
"225 260 CURVE SMOOTH",
"225 339 OFFCURVE",
"252 380 OFFCURVE",
"304 380 CURVE SMOOTH",
"354 380 OFFCURVE",
"383 340 OFFCURVE",
"383 270 CURVE",
"481 270 LINE",
"481 460 LINE",
"389 460 LINE",
"340 508 OFFCURVE",
"289 530 OFFCURVE",
"228 530 CURVE SMOOTH",
"102 530 OFFCURVE",
"33 435 OFFCURVE",
"33 260 CURVE SMOOTH",
"33 85 OFFCURVE",
"102 -10 OFFCURVE",
"228 -10 CURVE SMOOTH"
);
}
);
width = 638;
},
{
anchors = (
{
name = bottom;
position = "{278, -140}";
},
{
name = top;
position = "{278, 520}";
}
);
associatedMasterId = "D65C9A1E-0FCA-4B2D-8EDF-9F36CA9182A1";
layerId = "2CB2E316-DF26-4020-8926-4C268D4E13F3";
name = "Light {232}";
paths = (
{
closed = 1;
nodes = (
"406 -230 OFFCURVE",
"485 -145 OFFCURVE",
"485 35 CURVE SMOOTH",
"485 520 LINE",
"438 520 LINE",
"438 431 LINE",
"436 431 LINE",
"436 35 LINE SMOOTH",
"436 -120 OFFCURVE",
"375 -187 OFFCURVE",
"238 -187 CURVE SMOOTH",
"184 -187 OFFCURVE",
"138 -177 OFFCURVE",
"92 -155 CURVE",
"80 -196 LINE",
"130 -219 OFFCURVE",
"181 -230 OFFCURVE",
"240 -230 CURVE SMOOTH"
);
},
{
closed = 1;
nodes = (
"332 -10 OFFCURVE",
"402 28 OFFCURVE",
"434 89 CURVE",
"461 89 LINE",
"461 236 LINE",
"436 236 LINE",
"436 115 OFFCURVE",
"365 33 OFFCURVE",
"262 33 CURVE SMOOTH",
"157 33 OFFCURVE",
"94 119 OFFCURVE",
"94 260 CURVE SMOOTH",
"94 401 OFFCURVE",
"157 487 OFFCURVE",
"262 487 CURVE SMOOTH",
"365 487 OFFCURVE",
"436 405 OFFCURVE",
"436 284 CURVE",
"461 284 LINE",
"461 431 LINE",
"436 431 LINE",
"402 492 OFFCURVE",
"332 530 OFFCURVE",
"252 530 CURVE SMOOTH",
"121 530 OFFCURVE",
"45 429 OFFCURVE",
"45 260 CURVE SMOOTH",
"45 91 OFFCURVE",
"121 -10 OFFCURVE",
"252 -10 CURVE SMOOTH"
);
}
);
width = 566;
}
);
leftKerningGroup = o;
leftMetricsKey = "=d";
rightKerningGroup = g;
rightMetricsKey = "=u";
unicode = 0067;
},
{
color = 0;
glyphname = h;
lastChange = "2020-01-01 13:14:00 +0000";
layers = (
{
anchors = (
{
name = bottom;
position = "{270, 0}";
},
{
name = center;
position = "{270, 430}";
},
{
name = top;
position = "{270, 750}";
}
);
layerId = "D65C9A1E-0FCA-4B2D-8EDF-9F36CA9182A1";
paths = (
{
closed = 1;
nodes = (
"485 0 LINE",
"485 320 LINE SMOOTH",
"485 455 OFFCURVE",
"427 530 OFFCURVE",
"319 530 CURVE SMOOTH",
"225 530 OFFCURVE",
"144 472 OFFCURVE",
"107 388 CURVE",
"95 388 LINE",
"95 290 LINE",
"105 290 LINE",
"105 412 OFFCURVE",
"201 510 OFFCURVE",
"319 510 CURVE SMOOTH",
"415 510 OFFCURVE",
"465 445 OFFCURVE",
"465 320 CURVE SMOOTH",
"465 0 LINE"
);
},
{
closed = 1;
nodes = (
"105 0 LINE",
"105 750 LINE",
"85 750 LINE",
"85 0 LINE"
);
}
);
width = 562;
},
{
anchors = (
{
name = bottom;
position = "{290, 0}";
},
{
name = center;
position = "{290, 430}";
},
{
name = top;
position = "{290, 750}";
}
);
layerId = "9527F797-22C1-480E-A1FE-2CDBEBE1FD4C";
paths = (
{
closed = 1;
nodes = (
"532 0 LINE",
"532 320 LINE SMOOTH",
"532 464 OFFCURVE",
"480 530 OFFCURVE",
"367 530 CURVE SMOOTH",
"290 530 OFFCURVE",
"223 499 OFFCURVE",
"182 444 CURVE",
"126 444 LINE",
"126 265 LINE",
"180 265 LINE",
"180 355 OFFCURVE",
"256 440 OFFCURVE",
"337 440 CURVE SMOOTH",
"396 440 OFFCURVE",
"424 395 OFFCURVE",
"424 300 CURVE SMOOTH",
"424 0 LINE"
);
},
{
closed = 1;
nodes = (
"180 0 LINE",
"180 750 LINE",
"72 750 LINE",
"72 0 LINE"
);
}
);
width = 597;
},
{
anchors = (
{
name = bottom;
position = "{310, 0}";
},
{
name = center;
position = "{310, 430}";
},
{
name = top;
position = "{310, 750}";
}
);
layerId = "9E6B41AB-2970-4C41-8B35-4DBE0D296A43";
paths = (
{
closed = 1;
nodes = (
"579 0 LINE",
"579 320 LINE SMOOTH",
"579 467 OFFCURVE",
"528 530 OFFCURVE",
"409 530 CURVE SMOOTH",
"345 530 OFFCURVE",
"302 510 OFFCURVE",
"257 460 CURVE",
"157 460 LINE",
"157 300 LINE",
"255 300 LINE",
"255 341 OFFCURVE",
"287 370 OFFCURVE",
"329 370 CURVE SMOOTH",
"368 370 OFFCURVE",
"383 345 OFFCURVE",
"383 280 CURVE SMOOTH",
"383 0 LINE"
);
},
{
closed = 1;
nodes = (
"255 0 LINE",
"255 750 LINE",
"59 750 LINE",
"59 0 LINE"
);
}
);
width = 632;
},
{
anchors = (
{
name = bottom;
position = "{277, 0}";
},
{
name = center;
position = "{277, 430}";
},
{
name = top;
position = "{277, 750}";
}
);
associatedMasterId = "D65C9A1E-0FCA-4B2D-8EDF-9F36CA9182A1";
layerId = "02FE662A-EEF6-4625-B8CE-6C497DD97EB0";
name = "Light {232}";
paths = (
{
closed = 1;
nodes = (
"501 0 LINE",
"501 320 LINE SMOOTH",
"501 458 OFFCURVE",
"444 530 OFFCURVE",
"335 530 CURVE SMOOTH",
"251 530 OFFCURVE",
"170 487 OFFCURVE",
"132 421 CURVE",
"105 421 LINE",
"105 282 LINE",
"130 282 LINE",
"130 393 OFFCURVE",
"219 487 OFFCURVE",
"325 487 CURVE SMOOTH",
"409 487 OFFCURVE",
"451 429 OFFCURVE",
"451 313 CURVE SMOOTH",
"451 0 LINE"
);
},
{
closed = 1;
nodes = (
"130 0 LINE",
"130 750 LINE",
"81 750 LINE",
"81 0 LINE"
);
}
);
width = 574;
}
);
leftKerningGroup = b;
leftMetricsKey = "=H*.9";
rightKerningGroup = h;
rightMetricsKey = "=|*.9";
unicode = 0068;
},
{
glyphname = hbar;
lastChange = "2020-01-01 13:12:47 +0000";
layers = (
{
components = (
{
name = h;
transform = "{1, 0, 0, 1, 65, 0}";
}
);
layerId = "D65C9A1E-0FCA-4B2D-8EDF-9F36CA9182A1";
paths = (
{
closed = 1;
nodes = (
"450 635 LINE",
"30 635 LINE",
"30 615 LINE",
"450 615 LINE"
);
}
);
width = 627;
},
{
components = (
{
alignment = -1;
name = h;
transform = "{1, 0, 0, 1, 66, 0}";
}
);
layerId = "9527F797-22C1-480E-A1FE-2CDBEBE1FD4C";
paths = (
{
closed = 1;
nodes = (
"448 670 LINE",
"28 670 LINE",
"28 580 LINE",
"448 580 LINE"
);
}
);
width = 663;
},
{
components = (
{
name = h;
transform = "{1, 0, 0, 1, 62, 0}";
}
);
layerId = "9E6B41AB-2970-4C41-8B35-4DBE0D296A43";
paths = (
{
closed = 1;
nodes = (
"441 695 LINE",
"21 695 LINE",
"21 555 LINE",
"441 555 LINE"
);
}
);
width = 694;
}
);
leftKerningGroup = W;
leftMetricsKey = "=W";
rightKerningGroup = h;
rightMetricsKey = "=h";
unicode = 0127;
},
{
color = 0;
glyphname = i;
lastChange = "2020-01-01 13:59:57 +0000";
layers = (
{
components = (
{
name = idotless;
}
);
layerId = "9527F797-22C1-480E-A1FE-2CDBEBE1FD4C";
paths = (
{
closed = 1;
nodes = (
"189 630 LINE",
"189 740 LINE",
"79 740 LINE",
"79 630 LINE"
);
}
);
width = 268;
},
{
components = (
{
name = idotless;
}
);
layerId = "9E6B41AB-2970-4C41-8B35-4DBE0D296A43";
paths = (
{
closed = 1;
nodes = (
"265 590 LINE",
"265 750 LINE",
"65 750 LINE",
"65 590 LINE"
);
}
);
width = 330;
},
{
components = (
{
name = idotless;
transform = "{1, 0, 0, 1, 20, 0}";
}
);
layerId = "D65C9A1E-0FCA-4B2D-8EDF-9F36CA9182A1";
paths = (
{
closed = 1;
nodes = (
"154 670 LINE",
"154 730 LINE",
"94 730 LINE",
"94 670 LINE"
);
}
);
width = 248;
}
);
leftKerningGroup = l;
leftMetricsKey = "=l";
rightKerningGroup = l;
rightMetricsKey = "=|";
unicode = 0069;
},
{
glyphname = idotless;
lastChange = "2020-01-01 14:02:09 +0000";
layers = (
{
anchors = (
{
name = bottom;
position = "{104, 0}";
},
{
name = ogonek;
position = "{114, 0}";
},
{
name = top;
position = "{104, 520}";
}
);
layerId = "D65C9A1E-0FCA-4B2D-8EDF-9F36CA9182A1";
paths = (
{
closed = 1;
nodes = (
"114 0 LINE",
"114 520 LINE",
"94 520 LINE",
"94 0 LINE"
);
}
);
width = 208;
},
{
anchors = (
{
name = bottom;
position = "{134, 0}";
},
{
name = ogonek;
position = "{189, 0}";
},
{
name = top;
position = "{134, 520}";
}
);
layerId = "9527F797-22C1-480E-A1FE-2CDBEBE1FD4C";
paths = (
{
closed = 1;
nodes = (
"189 0 LINE",
"189 520 LINE",
"79 520 LINE",
"79 0 LINE"
);
}
);
width = 268;
},
{
anchors = (
{
name = bottom;
position = "{165, 0}";
},
{
name = ogonek;
position = "{265, 0}";
},
{
name = top;
position = "{165, 520}";
}
);
layerId = "9E6B41AB-2970-4C41-8B35-4DBE0D296A43";
paths = (
{
closed = 1;
nodes = (
"265 0 LINE",
"265 520 LINE",
"65 520 LINE",
"65 0 LINE"
);
}
);
width = 330;
}
);
leftKerningGroup = l;
leftMetricsKey = "=l";
rightKerningGroup = l;
rightMetricsKey = "=|";
unicode = 0131;
},
{
color = 0;
glyphname = j;
lastChange = "2020-01-01 14:12:25 +0000";
layers = (
{
components = (
{
name = jdotless;
}
);
layerId = "9527F797-22C1-480E-A1FE-2CDBEBE1FD4C";
leftMetricsKey = "=l-145";
paths = (
{
closed = 1;
nodes = (
"247 630 LINE",
"247 740 LINE",
"137 740 LINE",
"137 630 LINE"
);
}
);
width = 326;
},
{
components = (
{
name = jdotless;
}
);
layerId = "9E6B41AB-2970-4C41-8B35-4DBE0D296A43";
leftMetricsKey = "=l-125";
paths = (
{
closed = 1;
nodes = (
"310 590 LINE",
"310 750 LINE",
"110 750 LINE",
"110 590 LINE"
);
}
);
width = 375;
},
{
components = (
{
name = jdotless;
}
);
layerId = "D65C9A1E-0FCA-4B2D-8EDF-9F36CA9182A1";
leftMetricsKey = "=l-165";
paths = (
{
closed = 1;
nodes = (
"204 670 LINE",
"204 730 LINE",
"144 730 LINE",
"144 670 LINE"
);
}
);
width = 298;
}
);
leftKerningGroup = l;
leftMetricsKey = "=-150";
rightKerningGroup = g;
rightMetricsKey = "=l";
unicode = 006A;
},
{
glyphname = jdotless;
lastChange = "2020-01-01 14:12:39 +0000";
layers = (
{
anchors = (
{
name = bottom;
position = "{139, -140}";
},
{
name = top;
position = "{139, 520}";
}
);
layerId = "D65C9A1E-0FCA-4B2D-8EDF-9F36CA9182A1";
paths = (
{
closed = 1;
nodes = (
"130 -230 OFFCURVE",
"184 -182 OFFCURVE",
"184 0 CURVE SMOOTH",
"184 520 LINE",
"164 520 LINE",
"164 0 LINE SMOOTH",
"164 -170 OFFCURVE",
"120 -210 OFFCURVE",
"-71 -210 CURVE",
"-71 -230 LINE"
);
}
);
width = 278;
},
{
anchors = (
{
name = bottom;
position = "{163, -140}";
},
{
name = top;
position = "{163, 520}";
}
);
layerId = "9527F797-22C1-480E-A1FE-2CDBEBE1FD4C";
paths = (
{
closed = 1;
nodes = (
"179 -230 OFFCURVE",
"247 -175 OFFCURVE",
"247 20 CURVE SMOOTH",
"247 520 LINE",
"137 520 LINE",
"137 20 LINE SMOOTH",
"137 -116 OFFCURVE",
"106 -140 OFFCURVE",
"-66 -140 CURVE",
"-61 -230 LINE"
);
}
);
width = 326;
},
{
anchors = (
{
name = bottom;
position = "{188, -140}";
},
{
name = top;
position = "{188, 520}";
}
);
layerId = "9E6B41AB-2970-4C41-8B35-4DBE0D296A43";
paths = (
{
closed = 1;
nodes = (
"227 -230 OFFCURVE",
"310 -168 OFFCURVE",
"310 40 CURVE SMOOTH",
"310 520 LINE",
"110 520 LINE",
"110 40 LINE SMOOTH",
"110 -73 OFFCURVE",
"93 -85 OFFCURVE",
"-60 -85 CURVE",
"-50 -230 LINE"
);
}
);
width = 375;
}
);
leftKerningGroup = l;
leftMetricsKey = "=j";
rightKerningGroup = g;
rightMetricsKey = "=j";
unicode = 0237;
},
{
color = 0;
glyphname = k;
lastChange = "2020-01-01 14:24:52 +0000";
layers = (
{
anchors = (
{
name = bottom;
position = "{220, 0}";
},
{
name = top;
position = "{220, 750}";
}
);
layerId = "D65C9A1E-0FCA-4B2D-8EDF-9F36CA9182A1";
rightMetricsKey = "=d*.5";
paths = (
{
closed = 1;
nodes = (
"105 0 LINE",
"105 263 LINE",
"107 263 LINE",
"442 0 LINE",
"475 0 LINE",
"129 270 LINE",
"459 520 LINE",
"426 520 LINE",
"107 277 LINE",
"105 277 LINE",
"105 750 LINE",
"85 750 LINE",
"85 0 LINE"
);
}
);
width = 518;
},
{
anchors = (
{
name = bottom;
position = "{260, 0}";
},
{
name = top;
position = "{260, 750}";
}
);
layerId = "9527F797-22C1-480E-A1FE-2CDBEBE1FD4C";
rightMetricsKey = "=d*.35";
paths = (
{
closed = 1;
nodes = (
"180 0 LINE",
"180 234 LINE",
"182 234 LINE",
"408 0 LINE",
"547 0 LINE",
"274 270 LINE",
"537 520 LINE",
"398 520 LINE",
"182 305 LINE",
"180 305 LINE",
"180 750 LINE",
"72 750 LINE",
"72 0 LINE"
);
}
);
width = 572;
},
{
anchors = (
{
name = bottom;
position = "{300, 0}";
},
{
name = top;
position = "{300, 750}";
}
);
layerId = "9E6B41AB-2970-4C41-8B35-4DBE0D296A43";
rightMetricsKey = "=d*.2";
paths = (
{
closed = 1;
nodes = (
"255 0 LINE",
"255 215 LINE",
"257 215 LINE",
"394 0 LINE",
"619 0 LINE",
"419 270 LINE",
"614 520 LINE",
"389 520 LINE",
"257 325 LINE",
"255 325 LINE",
"255 750 LINE",
"59 750 LINE",
"59 0 LINE"
);
}
);
width = 631;
}
);
leftKerningGroup = b;
leftMetricsKey = "=h";
rightKerningGroup = x;
rightMetricsKey = "=d*.2";
unicode = 006B;
},
{
glyphname = kgreenlandic;
lastChange = "2020-01-01 14:27:39 +0000";
layers = (
{
anchors = (
{
name = bottom;
position = "{220, 0}";
},
{
name = top;
position = "{220, 520}";
}
);
layerId = "D65C9A1E-0FCA-4B2D-8EDF-9F36CA9182A1";
paths = (
{
closed = 1;
nodes = (
"105 0 LINE",
"105 263 LINE",
"107 263 LINE",
"442 0 LINE",
"475 0 LINE",
"129 270 LINE",
"459 520 LINE",
"426 520 LINE",
"107 277 LINE",
"105 277 LINE",
"105 520 LINE",
"85 520 LINE",
"85 0 LINE"
);
}
);
width = 518;
},
{
anchors = (
{
name = bottom;
position = "{260, 0}";
},
{
name = top;
position = "{260, 520}";
}
);
layerId = "9527F797-22C1-480E-A1FE-2CDBEBE1FD4C";
paths = (
{
closed = 1;
nodes = (
"180 0 LINE",
"180 234 LINE",
"182 234 LINE",
"408 0 LINE",
"547 0 LINE",
"274 270 LINE",
"537 520 LINE",
"398 520 LINE",
"182 305 LINE",
"180 305 LINE",
"180 520 LINE",
"72 520 LINE",
"72 0 LINE"
);
}
);
width = 572;
},
{
anchors = (
{
name = bottom;
position = "{300, 0}";
},
{
name = top;
position = "{300, 520}";
}
);
layerId = "9E6B41AB-2970-4C41-8B35-4DBE0D296A43";
paths = (
{
closed = 1;
nodes = (
"255 0 LINE",
"255 215 LINE",
"257 215 LINE",
"394 0 LINE",
"619 0 LINE",
"419 270 LINE",
"614 520 LINE",
"389 520 LINE",
"257 325 LINE",
"255 325 LINE",
"255 520 LINE",
"59 520 LINE",
"59 0 LINE"
);
}
);
width = 631;
}
);
leftKerningGroup = n;
leftMetricsKey = "=k";
rightKerningGroup = x;
rightMetricsKey = "=k";
unicode = 0138;
},
{
color = 0;
glyphname = l;
lastChange = "2020-01-02 02:17:02 +0000";
layers = (
{
anchors = (
{
name = bottom;
position = "{104, 0}";
},
{
name = center;
position = "{104, 430}";
},
{
name = pdcenter;
position = "{330, 375}";
},
{
name = top;
position = "{104, 750}";
},
{
name = topright;
position = "{188, 750}";
}
);
layerId = "D65C9A1E-0FCA-4B2D-8EDF-9F36CA9182A1";
paths = (
{
closed = 1;
nodes = (
"114 0 LINE",
"114 750 LINE",
"94 750 LINE",
"94 0 LINE"
);
}
);
width = 208;
},
{
anchors = (
{
name = bottom;
position = "{134, 0}";
},
{
name = center;
position = "{134, 430}";
},
{
name = pdcenter;
position = "{430, 375}";
},
{
name = top;
position = "{134, 750}";
},
{
name = topright;
position = "{248, 750}";
}
);
layerId = "9527F797-22C1-480E-A1FE-2CDBEBE1FD4C";
paths = (
{
closed = 1;
nodes = (
"189 0 LINE",
"189 750 LINE",
"79 750 LINE",
"79 0 LINE"
);
}
);
width = 268;
},
{
anchors = (
{
name = bottom;
position = "{165, 0}";
},
{
name = center;
position = "{165, 430}";
},
{
name = pdcenter;
position = "{530, 375}";
},
{
name = top;
position = "{165, 750}";
},
{
name = topright;
position = "{310, 750}";
}
);
layerId = "9E6B41AB-2970-4C41-8B35-4DBE0D296A43";
paths = (
{
closed = 1;
nodes = (
"265 0 LINE",
"265 750 LINE",
"65 750 LINE",
"65 0 LINE"
);
}
);
width = 330;
}
);
leftKerningGroup = l;
leftMetricsKey = "=h*1.1";
rightKerningGroup = l;
rightMetricsKey = "=|";
unicode = 006C;
},
{
glyphname = lslash;
lastChange = "2020-01-03 11:37:48 +0000";
layers = (
{
components = (
{
name = l;
transform = "{1, 0, 0, 1, 83, 0}";
}
);
layerId = "D65C9A1E-0FCA-4B2D-8EDF-9F36CA9182A1";
paths = (
{
closed = 1;
nodes = (
"356 431 LINE",
"348 449 LINE",
"18 299 LINE",
"26 281 LINE"
);
}
);
width = 374;
},
{
components = (
{
alignment = -1;
name = l;
transform = "{1, 0, 0, 1, 93, 0}";
}
);
layerId = "9527F797-22C1-480E-A1FE-2CDBEBE1FD4C";
paths = (
{
closed = 1;
nodes = (
"445 407 LINE",
"409 491 LINE",
"9 323 LINE",
"45 239 LINE"
);
}
);
width = 454;
},
{
components = (
{
name = l;
transform = "{1, 0, 0, 1, 104, 0}";
}
);
layerId = "9E6B41AB-2970-4C41-8B35-4DBE0D296A43";
paths = (
{
closed = 1;
nodes = (
"531 393 LINE",
"476 523 LINE",
"7 337 LINE",
"62 207 LINE"
);
}
);
width = 538;
},
{
associatedMasterId = "9E6B41AB-2970-4C41-8B35-4DBE0D296A43";
components = (
{
name = l;
transform = "{1, 0, 0, 1, 104, 0}";
}
);
layerId = "DC9068AE-7C8E-4C60-A244-CBDFF0EDD272";
name = "Jan 3 20, 20:37";
paths = (
{
closed = 1;
nodes = (
"531 393 LINE",
"476 523 LINE",
"7 337 LINE",
"62 207 LINE"
);
}
);
width = 538;
}
);
leftKerningGroup = t;
leftMetricsKey = "=t*.5";
rightKerningGroup = r;
rightMetricsKey = "=|";
unicode = 0142;
},
{
color = 0;
glyphname = m;
lastChange = "2019-12-20 14:06:42 +0000";
layers = (
{
layerId = "D65C9A1E-0FCA-4B2D-8EDF-9F36CA9182A1";
paths = (
{
closed = 1;
nodes = (
"705 0 LINE",
"705 320 LINE SMOOTH",
"705 457 OFFCURVE",
"660 530 OFFCURVE",
"572 530 CURVE SMOOTH",
"498 530 OFFCURVE",
"431 474 OFFCURVE",
"401 399 CURVE",
"395 399 LINE",
"395 318 LINE",
"405 318 LINE",
"405 420 OFFCURVE",
"483 510 OFFCURVE",
"572 510 CURVE SMOOTH",
"647 510 OFFCURVE",
"685 446 OFFCURVE",
"685 320 CURVE SMOOTH",
"685 0 LINE"
);
},
{
closed = 1;
nodes = (
"105 0 LINE",
"105 399 LINE",
"105 399 LINE",
"105 520 LINE",
"85 520 LINE",
"85 0 LINE"
);
},
{
closed = 1;
nodes = (
"405 0 LINE",
"405 320 LINE SMOOTH",
"405 457 OFFCURVE",
"360 530 OFFCURVE",
"272 530 CURVE SMOOTH",
"199 530 OFFCURVE",
"138 477 OFFCURVE",
"107 399 CURVE",
"95 399 LINE",
"95 290 LINE",
"105 290 LINE",
"105 412 OFFCURVE",
"179 510 OFFCURVE",
"272 510 CURVE SMOOTH",
"347 510 OFFCURVE",
"385 446 OFFCURVE",
"385 320 CURVE SMOOTH",
"385 0 LINE"
);
}
);
width = 782;
},
{
layerId = "9527F797-22C1-480E-A1FE-2CDBEBE1FD4C";
paths = (
{
closed = 1;
nodes = (
"766 0 LINE",
"766 320 LINE SMOOTH",
"766 466 OFFCURVE",
"722 530 OFFCURVE",
"622 530 CURVE SMOOTH",
"555 530 OFFCURVE",
"495 501 OFFCURVE",
"454 449 CURVE",
"418 449 LINE",
"418 269 LINE",
"472 269 LINE",
"472 362 OFFCURVE",
"524 440 OFFCURVE",
"586 440 CURVE SMOOTH",
"635 440 OFFCURVE",
"660 391 OFFCURVE",
"660 300 CURVE SMOOTH",
"660 0 LINE"
);
},
{
closed = 1;
nodes = (
"178 0 LINE",
"178 449 LINE",
"174 449 LINE",
"173 520 LINE",
"72 520 LINE",
"72 0 LINE"
);
},
{
closed = 1;
nodes = (
"472 0 LINE",
"472 320 LINE SMOOTH",
"472 463 OFFCURVE",
"426 530 OFFCURVE",
"328 530 CURVE SMOOTH",
"264 530 OFFCURVE",
"212 502 OFFCURVE",
"176 449 CURVE",
"124 449 LINE",
"124 255 LINE",
"178 255 LINE",
"178 358 OFFCURVE",
"229 440 OFFCURVE",
"292 440 CURVE SMOOTH",
"341 440 OFFCURVE",
"366 391 OFFCURVE",
"366 300 CURVE SMOOTH",
"366 0 LINE"
);
}
);
width = 831;
},
{
layerId = "9E6B41AB-2970-4C41-8B35-4DBE0D296A43";
paths = (
{
closed = 1;
nodes = (
"827 0 LINE",
"827 320 LINE SMOOTH",
"827 467 OFFCURVE",
"782 530 OFFCURVE",
"676 530 CURVE SMOOTH",
"610 530 OFFCURVE",
"563 509 OFFCURVE",
"517 460 CURVE",
"441 460 LINE",
"441 300 LINE",
"539 300 LINE",
"539 340 OFFCURVE",
"563 370 OFFCURVE",
"595 370 CURVE SMOOTH",
"624 370 OFFCURVE",
"635 345 OFFCURVE",
"635 280 CURVE SMOOTH",
"635 0 LINE"
);
},
{
closed = 1;
nodes = (
"251 0 LINE",
"251 460 LINE",
"243 460 LINE",
"241 520 LINE",
"59 520 LINE",
"59 0 LINE"
);
},
{
closed = 1;
nodes = (
"539 0 LINE",
"539 320 LINE SMOOTH",
"539 467 OFFCURVE",
"494 530 OFFCURVE",
"388 530 CURVE SMOOTH",
"329 530 OFFCURVE",
"286 509 OFFCURVE",
"245 460 CURVE",
"153 460 LINE",
"153 300 LINE",
"251 300 LINE",
"251 340 OFFCURVE",
"275 370 OFFCURVE",
"307 370 CURVE SMOOTH",
"336 370 OFFCURVE",
"347 345 OFFCURVE",
"347 280 CURVE SMOOTH",
"347 0 LINE"
);
}
);
width = 880;
},
{
associatedMasterId = "D65C9A1E-0FCA-4B2D-8EDF-9F36CA9182A1";
layerId = "0CBD3FAB-BA75-4DFC-AD86-B9F788B7BCE9";
name = "Light {232}";
paths = (
{
closed = 1;
nodes = (
"725 0 LINE",
"725 320 LINE SMOOTH",
"725 460 OFFCURVE",
"680 530 OFFCURVE",
"589 530 CURVE SMOOTH",
"520 530 OFFCURVE",
"451 490 OFFCURVE",
"415 431 CURVE",
"403 431 LINE",
"403 302 LINE",
"427 302 LINE",
"427 401 OFFCURVE",
"497 487 OFFCURVE",
"577 487 CURVE SMOOTH",
"643 487 OFFCURVE",
"677 428 OFFCURVE",
"677 313 CURVE SMOOTH",
"677 0 LINE"
);
},
{
closed = 1;
nodes = (
"129 0 LINE",
"129 431 LINE",
"128 431 LINE",
"127 520 LINE",
"81 520 LINE",
"81 0 LINE"
);
},
{
closed = 1;
nodes = (
"427 0 LINE",
"427 320 LINE SMOOTH",
"427 459 OFFCURVE",
"382 530 OFFCURVE",
"290 530 CURVE SMOOTH",
"223 530 OFFCURVE",
"163 493 OFFCURVE",
"130 431 CURVE",
"105 431 LINE",
"105 278 LINE",
"129 278 LINE",
"129 394 OFFCURVE",
"196 487 OFFCURVE",
"279 487 CURVE SMOOTH",
"345 487 OFFCURVE",
"379 428 OFFCURVE",
"379 313 CURVE SMOOTH",
"379 0 LINE"
);
}
);
width = 798;
}
);
leftKerningGroup = n;
leftMetricsKey = "=n";
rightKerningGroup = h;
rightMetricsKey = "=n";
unicode = 006D;
},
{
color = 0;
glyphname = n;
lastChange = "2020-01-02 03:45:42 +0000";
layers = (
{
anchors = (
{
name = bottom;
position = "{281, 0}";
},
{
name = top;
position = "{281, 520}";
}
);
layerId = "D65C9A1E-0FCA-4B2D-8EDF-9F36CA9182A1";
paths = (
{
closed = 1;
nodes = (
"485 0 LINE",
"485 320 LINE SMOOTH",
"485 456 OFFCURVE",
"428 530 OFFCURVE",
"319 530 CURVE SMOOTH",
"224 530 OFFCURVE",
"143 472 OFFCURVE",
"107 388 CURVE",
"95 388 LINE",
"95 290 LINE",
"105 290 LINE",
"105 412 OFFCURVE",
"200 510 OFFCURVE",
"319 510 CURVE SMOOTH",
"416 510 OFFCURVE",
"465 446 OFFCURVE",
"465 320 CURVE SMOOTH",
"465 0 LINE"
);
},
{
closed = 1;
nodes = (
"105 0 LINE",
"105 388 LINE",
"105 388 LINE",
"105 520 LINE",
"85 520 LINE",
"85 0 LINE"
);
}
);
width = 562;
},
{
anchors = (
{
name = bottom;
position = "{299, 0}";
},
{
name = top;
position = "{299, 520}";
}
);
layerId = "9527F797-22C1-480E-A1FE-2CDBEBE1FD4C";
paths = (
{
closed = 1;
nodes = (
"532 0 LINE",
"532 320 LINE SMOOTH",
"532 461 OFFCURVE",
"476 530 OFFCURVE",
"362 530 CURVE SMOOTH",
"286 530 OFFCURVE",
"220 499 OFFCURVE",
"178 444 CURVE",
"126 444 LINE",
"126 265 LINE",
"180 265 LINE",
"180 357 OFFCURVE",
"252 440 OFFCURVE",
"332 440 CURVE SMOOTH",
"393 440 OFFCURVE",
"424 392 OFFCURVE",
"424 300 CURVE SMOOTH",
"424 0 LINE"
);
},
{
closed = 1;
nodes = (
"180 0 LINE",
"180 444 LINE",
"176 444 LINE",
"175 520 LINE",
"72 520 LINE",
"72 0 LINE"
);
}
);
width = 597;
},
{
anchors = (
{
name = bottom;
position = "{316, 0}";
},
{
name = top;
position = "{316, 520}";
}
);
layerId = "9E6B41AB-2970-4C41-8B35-4DBE0D296A43";
paths = (
{
closed = 1;
nodes = (
"579 0 LINE",
"579 320 LINE SMOOTH",
"579 467 OFFCURVE",
"528 530 OFFCURVE",
"409 530 CURVE SMOOTH",
"343 530 OFFCURVE",
"295 509 OFFCURVE",
"249 460 CURVE",
"157 460 LINE",
"157 300 LINE",
"255 300 LINE",
"255 341 OFFCURVE",
"287 370 OFFCURVE",
"329 370 CURVE SMOOTH",
"368 370 OFFCURVE",
"383 345 OFFCURVE",
"383 280 CURVE SMOOTH",
"383 0 LINE"
);
},
{
closed = 1;
nodes = (
"255 0 LINE",
"255 460 LINE",
"247 460 LINE",
"245 520 LINE",
"59 520 LINE",
"59 0 LINE"
);
}
);
width = 632;
},
{
anchors = (
{
name = bottom;
position = "{287, 0}";
},
{
name = top;
position = "{287, 520}";
}
);
associatedMasterId = "D65C9A1E-0FCA-4B2D-8EDF-9F36CA9182A1";
layerId = "899DC2DC-F451-4B84-9275-F30D30733E24";
name = "Light {232}";
paths = (
{
closed = 1;
nodes = (
"501 0 LINE",
"501 320 LINE SMOOTH",
"501 458 OFFCURVE",
"444 530 OFFCURVE",
"333 530 CURVE SMOOTH",
"248 530 OFFCURVE",
"168 487 OFFCURVE",
"130 421 CURVE",
"105 421 LINE",
"105 282 LINE",
"130 282 LINE",
"130 394 OFFCURVE",
"217 487 OFFCURVE",
"323 487 CURVE SMOOTH",
"408 487 OFFCURVE",
"451 428 OFFCURVE",
"451 313 CURVE SMOOTH",
"451 0 LINE"
);
},
{
closed = 1;
nodes = (
"130 0 LINE",
"130 421 LINE",
"128 421 LINE",
"128 520 LINE",
"81 520 LINE",
"81 0 LINE"
);
}
);
width = 574;
}
);
leftKerningGroup = n;
leftMetricsKey = "=h";
rightKerningGroup = h;
rightMetricsKey = "=h";
unicode = 006E;
},
{
glyphname = eng;
lastChange = "2020-01-02 03:44:43 +0000";
layers = (
{
anchors = (
{
name = bottom;
position = "{281, 0}";
},
{
name = top;
position = "{281, 520}";
}
);
layerId = "D65C9A1E-0FCA-4B2D-8EDF-9F36CA9182A1";
paths = (
{
closed = 1;
nodes = (
"485 0 LINE",
"485 320 LINE SMOOTH",
"485 456 OFFCURVE",
"428 530 OFFCURVE",
"319 530 CURVE SMOOTH",
"224 530 OFFCURVE",
"143 472 OFFCURVE",
"107 388 CURVE",
"95 388 LINE",
"95 290 LINE",
"105 290 LINE",
"105 412 OFFCURVE",
"200 510 OFFCURVE",
"319 510 CURVE SMOOTH",
"416 510 OFFCURVE",
"465 446 OFFCURVE",
"465 320 CURVE SMOOTH",
"465 0 LINE"
);
},
{
closed = 1;
nodes = (
"105 0 LINE",
"105 388 LINE",
"105 388 LINE",
"105 520 LINE",
"85 520 LINE",
"85 0 LINE"
);
},
{
closed = 1;
nodes = (
"442 -211 OFFCURVE",
"485 -164 OFFCURVE",
"485 -61 CURVE SMOOTH",
"485 10 LINE",
"465 10 LINE",
"465 -61 LINE SMOOTH",
"465 -153 OFFCURVE",
"430 -191 OFFCURVE",
"345 -191 CURVE SMOOTH",
"320 -191 OFFCURVE",
"294 -186 OFFCURVE",
"272 -177 CURVE",
"265 -196 LINE",
"289 -205 OFFCURVE",
"318 -211 OFFCURVE",
"345 -211 CURVE SMOOTH"
);
}
);
width = 562;
},
{
anchors = (
{
name = bottom;
position = "{299, 0}";
},
{
name = top;
position = "{299, 520}";
}
);
layerId = "9527F797-22C1-480E-A1FE-2CDBEBE1FD4C";
paths = (
{
closed = 1;
nodes = (
"532 0 LINE",
"532 320 LINE SMOOTH",
"532 461 OFFCURVE",
"476 530 OFFCURVE",
"362 530 CURVE SMOOTH",
"286 530 OFFCURVE",
"220 499 OFFCURVE",
"178 444 CURVE",
"126 444 LINE",
"126 265 LINE",
"180 265 LINE",
"180 357 OFFCURVE",
"252 440 OFFCURVE",
"332 440 CURVE SMOOTH",
"393 440 OFFCURVE",
"424 392 OFFCURVE",
"424 300 CURVE SMOOTH",
"424 0 LINE"
);
},
{
closed = 1;
nodes = (
"180 0 LINE",
"180 444 LINE",
"176 444 LINE",
"175 520 LINE",
"72 520 LINE",
"72 0 LINE"
);
},
{
closed = 1;
nodes = (
"480 -221 OFFCURVE",
"532 -163 OFFCURVE",
"532 -26 CURVE SMOOTH",
"532 10 LINE",
"424 10 LINE",
"424 -26 LINE SMOOTH",
"424 -97 OFFCURVE",
"398 -126 OFFCURVE",
"334 -126 CURVE SMOOTH",
"309 -126 OFFCURVE",
"283 -122 OFFCURVE",
"259 -114 CURVE",
"242 -205 LINE",
"280 -216 OFFCURVE",
"318 -221 OFFCURVE",
"356 -221 CURVE SMOOTH"
);
}
);
width = 597;
},
{
anchors = (
{
name = bottom;
position = "{316, 0}";
},
{
name = top;
position = "{316, 520}";
}
);
layerId = "9E6B41AB-2970-4C41-8B35-4DBE0D296A43";
paths = (
{
closed = 1;
nodes = (
"579 0 LINE",
"579 320 LINE SMOOTH",
"579 467 OFFCURVE",
"528 530 OFFCURVE",
"409 530 CURVE SMOOTH",
"343 530 OFFCURVE",
"295 509 OFFCURVE",
"249 460 CURVE",
"157 460 LINE",
"157 300 LINE",
"255 300 LINE",
"255 341 OFFCURVE",
"287 370 OFFCURVE",
"329 370 CURVE SMOOTH",
"368 370 OFFCURVE",
"383 345 OFFCURVE",
"383 280 CURVE SMOOTH",
"383 0 LINE"
);
},
{
closed = 1;
nodes = (
"255 0 LINE",
"255 460 LINE",
"247 460 LINE",
"245 520 LINE",
"59 520 LINE",
"59 0 LINE"
);
},
{
closed = 1;
nodes = (
"524 -229 OFFCURVE",
"579 -166 OFFCURVE",
"579 10 CURVE SMOOTH",
"579 10 LINE",
"383 10 LINE",
"383 10 LINE SMOOTH",
"383 -52 OFFCURVE",
"370 -70 OFFCURVE",
"324 -70 CURVE SMOOTH",
"302 -70 OFFCURVE",
"269 -66 OFFCURVE",
"241 -59 CURVE",
"221 -214 LINE",
"269 -223 OFFCURVE",
"319 -229 OFFCURVE",
"367 -229 CURVE SMOOTH"
);
}
);
width = 632;
}
);
leftKerningGroup = n;
leftMetricsKey = "=h";
rightKerningGroup = h;
rightMetricsKey = "=h";
unicode = 014B;
},
{
color = 0;
glyphname = o;
lastChange = "2020-01-03 01:21:43 +0000";
layers = (
{
anchors = (
{
name = bottom;
position = "{273, 0}";
},
{
name = center;
position = "{273, 260}";
},
{
name = ogonek;
position = "{320, 0}";
},
{
name = top;
position = "{273, 520}";
},
{
name = topright;
position = "{418, 480}";
}
);
layerId = "D65C9A1E-0FCA-4B2D-8EDF-9F36CA9182A1";
paths = (
{
closed = 1;
nodes = (
"416 -10 OFFCURVE",
"503 92 OFFCURVE",
"503 260 CURVE SMOOTH",
"503 428 OFFCURVE",
"416 530 OFFCURVE",
"273 530 CURVE SMOOTH",
"130 530 OFFCURVE",
"43 428 OFFCURVE",
"43 260 CURVE SMOOTH",
"43 92 OFFCURVE",
"130 -10 OFFCURVE",
"273 -10 CURVE SMOOTH"
);
},
{
closed = 1;
nodes = (
"142 10 OFFCURVE",
"63 102 OFFCURVE",
"63 260 CURVE SMOOTH",
"63 418 OFFCURVE",
"142 510 OFFCURVE",
"273 510 CURVE SMOOTH",
"404 510 OFFCURVE",
"483 418 OFFCURVE",
"483 260 CURVE SMOOTH",
"483 102 OFFCURVE",
"404 10 OFFCURVE",
"273 10 CURVE SMOOTH"
);
}
);
width = 546;
},
{
anchors = (
{
name = bottom;
position = "{289, 0}";
},
{
name = center;
position = "{289, 260}";
},
{
name = ogonek;
position = "{355, 0}";
},
{
name = top;
position = "{289, 520}";
},
{
name = topright;
position = "{452, 480}";
}
);
layerId = "9527F797-22C1-480E-A1FE-2CDBEBE1FD4C";
paths = (
{
closed = 1;
nodes = (
"449 -10 OFFCURVE",
"542 89 OFFCURVE",
"542 260 CURVE SMOOTH",
"542 431 OFFCURVE",
"449 530 OFFCURVE",
"289 530 CURVE SMOOTH",
"129 530 OFFCURVE",
"36 431 OFFCURVE",
"36 260 CURVE SMOOTH",
"36 89 OFFCURVE",
"129 -10 OFFCURVE",
"289 -10 CURVE SMOOTH"
);
},
{
closed = 1;
nodes = (
"194 80 OFFCURVE",
"144 142 OFFCURVE",
"144 260 CURVE SMOOTH",
"144 378 OFFCURVE",
"194 440 OFFCURVE",
"289 440 CURVE SMOOTH",
"384 440 OFFCURVE",
"434 378 OFFCURVE",
"434 260 CURVE SMOOTH",
"434 142 OFFCURVE",
"384 80 OFFCURVE",
"289 80 CURVE SMOOTH"
);
}
);
width = 578;
},
{
anchors = (
{
name = bottom;
position = "{304, 0}";
},
{
name = center;
position = "{304, 260}";
},
{
name = ogonek;
position = "{389, 0}";
},
{
name = top;
position = "{304, 520}";
},
{
name = topright;
position = "{485, 480}";
}
);
layerId = "9E6B41AB-2970-4C41-8B35-4DBE0D296A43";
paths = (
{
closed = 1;
nodes = (
"484 -10 OFFCURVE",
"580 84 OFFCURVE",
"580 260 CURVE SMOOTH",
"580 436 OFFCURVE",
"484 530 OFFCURVE",
"305 530 CURVE SMOOTH",
"125 530 OFFCURVE",
"30 436 OFFCURVE",
"30 260 CURVE SMOOTH",
"30 84 OFFCURVE",
"125 -10 OFFCURVE",
"305 -10 CURVE SMOOTH"
);
},
{
closed = 1;
nodes = (
"251 130 OFFCURVE",
"226 171 OFFCURVE",
"226 260 CURVE SMOOTH",
"226 349 OFFCURVE",
"251 390 OFFCURVE",
"305 390 CURVE SMOOTH",
"359 390 OFFCURVE",
"384 349 OFFCURVE",
"384 260 CURVE SMOOTH",
"384 171 OFFCURVE",
"359 130 OFFCURVE",
"305 130 CURVE SMOOTH"
);
}
);
width = 610;
}
);
leftKerningGroup = o;
leftMetricsKey = "=h*.5";
rightKerningGroup = o;
rightMetricsKey = "=|";
unicode = 006F;
},
{
color = 3;
glyphname = oslash;
lastChange = "2020-01-07 03:17:23 +0000";
layers = (
{
anchors = (
{
name = top;
position = "{273, 520}";
}
);
components = (
{
name = o;
}
);
layerId = "D65C9A1E-0FCA-4B2D-8EDF-9F36CA9182A1";
paths = (
{
closed = 1;
nodes = (
"481 524 LINE",
"465 536 LINE",
"65 -4 LINE",
"81 -16 LINE"
);
}
);
width = 546;
},
{
anchors = (
{
name = top;
position = "{289, 520}";
}
);
components = (
{
name = o;
}
);
layerId = "9527F797-22C1-480E-A1FE-2CDBEBE1FD4C";
paths = (
{
closed = 1;
nodes = (
"521 506 LINE",
"457 554 LINE",
"57 14 LINE",
"121 -34 LINE"
);
}
);
width = 578;
},
{
anchors = (
{
name = top;
position = "{305, 520}";
}
);
components = (
{
name = o;
}
);
layerId = "9E6B41AB-2970-4C41-8B35-4DBE0D296A43";
paths = (
{
closed = 1;
nodes = (
"545 500 LINE",
"465 560 LINE",
"65 20 LINE",
"145 -40 LINE"
);
}
);
width = 610;
}
);
leftKerningGroup = o;
rightKerningGroup = o;
unicode = 00F8;
},
{
glyphname = oe;
lastChange = "2020-01-05 06:08:49 +0000";
layers = (
{
layerId = "D65C9A1E-0FCA-4B2D-8EDF-9F36CA9182A1";
paths = (
{
closed = 1;
nodes = (
"416 -10 OFFCURVE",
"503 92 OFFCURVE",
"503 260 CURVE SMOOTH",
"503 428 OFFCURVE",
"416 530 OFFCURVE",
"273 530 CURVE SMOOTH",
"130 530 OFFCURVE",
"43 428 OFFCURVE",
"43 260 CURVE SMOOTH",
"43 92 OFFCURVE",
"130 -10 OFFCURVE",
"273 -10 CURVE SMOOTH"
);
},
{
closed = 1;
nodes = (
"142 10 OFFCURVE",
"63 102 OFFCURVE",
"63 260 CURVE SMOOTH",
"63 418 OFFCURVE",
"142 510 OFFCURVE",
"273 510 CURVE SMOOTH",
"404 510 OFFCURVE",
"483 418 OFFCURVE",
"483 260 CURVE SMOOTH",
"483 102 OFFCURVE",
"404 10 OFFCURVE",
"273 10 CURVE SMOOTH"
);
},
{
closed = 1;
nodes = (
"787 -10 OFFCURVE",
"852 7 OFFCURVE",
"903 36 CURVE",
"893 53 LINE",
"844 26 OFFCURVE",
"783 10 OFFCURVE",
"723 10 CURVE SMOOTH",
"582 10 OFFCURVE",
"503 98 OFFCURVE",
"503 260 CURVE",
"503 260 LINE",
"503 422 OFFCURVE",
"575 510 OFFCURVE",
"703 510 CURVE SMOOTH",
"831 510 OFFCURVE",
"903 422 OFFCURVE",
"903 260 CURVE",
"913 278 LINE",
"493 278 LINE",
"493 258 LINE",
"923 258 LINE",
"923 259 OFFCURVE",
"923 259 OFFCURVE",
"923 260 CURVE SMOOTH",
"923 432 OFFCURVE",
"843 530 OFFCURVE",
"703 530 CURVE SMOOTH",
"563 530 OFFCURVE",
"483 432 OFFCURVE",
"483 260 CURVE SMOOTH",
"483 88 OFFCURVE",
"570 -10 OFFCURVE",
"723 -10 CURVE SMOOTH"
);
}
);
width = 964;
},
{
layerId = "9527F797-22C1-480E-A1FE-2CDBEBE1FD4C";
paths = (
{
closed = 1;
nodes = (
"448 -10 OFFCURVE",
"540 89 OFFCURVE",
"540 260 CURVE SMOOTH",
"540 431 OFFCURVE",
"448 530 OFFCURVE",
"289 530 CURVE SMOOTH",
"129 530 OFFCURVE",
"36 431 OFFCURVE",
"36 260 CURVE SMOOTH",
"36 89 OFFCURVE",
"129 -10 OFFCURVE",
"289 -10 CURVE SMOOTH"
);
},
{
closed = 1;
nodes = (
"194 80 OFFCURVE",
"144 142 OFFCURVE",
"144 260 CURVE SMOOTH",
"144 378 OFFCURVE",
"194 440 OFFCURVE",
"289 440 CURVE SMOOTH",
"384 440 OFFCURVE",
"434 378 OFFCURVE",
"434 260 CURVE SMOOTH",
"434 142 OFFCURVE",
"384 80 OFFCURVE",
"289 80 CURVE SMOOTH"
);
},
{
closed = 1;
nodes = (
"765 -10 OFFCURVE",
"832 5 OFFCURVE",
"885 32 CURVE",
"861 115 LINE",
"819 93 OFFCURVE",
"758 80 OFFCURVE",
"704 80 CURVE SMOOTH",
"594 80 OFFCURVE",
"540 133 OFFCURVE",
"540 240 CURVE SMOOTH",
"540 270 LINE SMOOTH",
"540 387 OFFCURVE",
"585 442 OFFCURVE",
"682 442 CURVE SMOOTH",
"777 442 OFFCURVE",
"819 389 OFFCURVE",
"819 270 CURVE",
"835 300 LINE",
"494 300 LINE",
"494 215 LINE",
"918 215 LINE",
"919 227 OFFCURVE",
"920 241 OFFCURVE",
"920 260 CURVE SMOOTH",
"920 435 OFFCURVE",
"836 530 OFFCURVE",
"682 530 CURVE SMOOTH",
"525 530 OFFCURVE",
"434 431 OFFCURVE",
"434 260 CURVE SMOOTH",
"434 86 OFFCURVE",
"528 -10 OFFCURVE",
"698 -10 CURVE SMOOTH"
);
}
);
width = 954;
},
{
layerId = "9E6B41AB-2970-4C41-8B35-4DBE0D296A43";
paths = (
{
closed = 1;
nodes = (
"481 -10 OFFCURVE",
"576 84 OFFCURVE",
"576 260 CURVE SMOOTH",
"576 436 OFFCURVE",
"481 530 OFFCURVE",
"305 530 CURVE SMOOTH",
"125 530 OFFCURVE",
"30 436 OFFCURVE",
"30 260 CURVE SMOOTH",
"30 84 OFFCURVE",
"125 -10 OFFCURVE",
"305 -10 CURVE SMOOTH"
);
},
{
closed = 1;
nodes = (
"251 130 OFFCURVE",
"226 171 OFFCURVE",
"226 260 CURVE SMOOTH",
"226 349 OFFCURVE",
"251 390 OFFCURVE",
"305 390 CURVE SMOOTH",
"359 390 OFFCURVE",
"384 349 OFFCURVE",
"384 260 CURVE SMOOTH",
"384 171 OFFCURVE",
"359 130 OFFCURVE",
"305 130 CURVE SMOOTH"
);
},
{
closed = 1;
nodes = (
"759 -10 OFFCURVE",
"829 1 OFFCURVE",
"874 18 CURVE",
"849 148 LINE",
"802 132 OFFCURVE",
"755 125 OFFCURVE",
"706 125 CURVE SMOOTH",
"612 125 OFFCURVE",
"576 151 OFFCURVE",
"576 220 CURVE SMOOTH",
"576 280 LINE SMOOTH",
"576 367 OFFCURVE",
"600 405 OFFCURVE",
"654 405 CURVE SMOOTH",
"708 405 OFFCURVE",
"732 367 OFFCURVE",
"732 280 CURVE",
"755 315 LINE",
"494 315 LINE",
"494 200 LINE",
"910 200 LINE",
"912 211 OFFCURVE",
"914 246 OFFCURVE",
"914 270 CURVE SMOOTH",
"914 434 OFFCURVE",
"818 530 OFFCURVE",
"654 530 CURVE SMOOTH",
"486 530 OFFCURVE",
"384 428 OFFCURVE",
"384 260 CURVE SMOOTH",
"384 86 OFFCURVE",
"494 -10 OFFCURVE",
"694 -10 CURVE SMOOTH"
);
}
);
width = 942;
}
);
leftKerningGroup = o;
leftMetricsKey = "=o";
rightKerningGroup = o;
rightMetricsKey = "=e";
unicode = 0153;
},
{
color = 0;
glyphname = p;
lastChange = "2019-12-28 12:56:34 +0000";
layers = (
{
layerId = "D65C9A1E-0FCA-4B2D-8EDF-9F36CA9182A1";
paths = (
{
closed = 1;
nodes = (
"426 -10 OFFCURVE",
"505 93 OFFCURVE",
"505 260 CURVE SMOOTH",
"505 427 OFFCURVE",
"426 530 OFFCURVE",
"295 530 CURVE SMOOTH",
"206 530 OFFCURVE",
"139 481 OFFCURVE",
"107 400 CURVE",
"95 400 LINE",
"95 285 LINE",
"105 285 LINE",
"105 422 OFFCURVE",
"180 510 OFFCURVE",
"295 510 CURVE SMOOTH",
"414 510 OFFCURVE",
"485 416 OFFCURVE",
"485 260 CURVE SMOOTH",
"485 104 OFFCURVE",
"414 10 OFFCURVE",
"295 10 CURVE SMOOTH",
"180 10 OFFCURVE",
"105 98 OFFCURVE",
"105 235 CURVE",
"95 235 LINE",
"95 120 LINE",
"107 120 LINE",
"139 39 OFFCURVE",
"206 -10 OFFCURVE",
"295 -10 CURVE SMOOTH"
);
},
{
closed = 1;
nodes = (
"105 -220 LINE",
"105 400 LINE",
"105 400 LINE",
"105 520 LINE",
"85 520 LINE",
"85 -220 LINE"
);
}
);
width = 548;
},
{
layerId = "9527F797-22C1-480E-A1FE-2CDBEBE1FD4C";
paths = (
{
closed = 1;
nodes = (
"483 -10 OFFCURVE",
"555 86 OFFCURVE",
"555 260 CURVE SMOOTH",
"555 434 OFFCURVE",
"483 530 OFFCURVE",
"353 530 CURVE SMOOTH",
"281 530 OFFCURVE",
"218 501 OFFCURVE",
"178 449 CURVE",
"126 449 LINE",
"126 283 LINE",
"180 283 LINE",
"180 370 OFFCURVE",
"244 440 OFFCURVE",
"322 440 CURVE SMOOTH",
"399 440 OFFCURVE",
"447 371 OFFCURVE",
"447 260 CURVE SMOOTH",
"447 149 OFFCURVE",
"399 80 OFFCURVE",
"322 80 CURVE SMOOTH",
"244 80 OFFCURVE",
"180 150 OFFCURVE",
"180 237 CURVE",
"126 237 LINE",
"126 71 LINE",
"182 71 LINE",
"220 19 OFFCURVE",
"282 -10 OFFCURVE",
"353 -10 CURVE SMOOTH"
);
},
{
closed = 1;
nodes = (
"180 -220 LINE",
"180 449 LINE",
"176 449 LINE",
"175 520 LINE",
"72 520 LINE",
"72 -220 LINE"
);
}
);
width = 591;
},
{
layerId = "9E6B41AB-2970-4C41-8B35-4DBE0D296A43";
paths = (
{
closed = 1;
nodes = (
"536 -10 OFFCURVE",
"605 85 OFFCURVE",
"605 260 CURVE SMOOTH",
"605 435 OFFCURVE",
"536 530 OFFCURVE",
"410 530 CURVE SMOOTH",
"349 530 OFFCURVE",
"298 508 OFFCURVE",
"249 460 CURVE",
"157 460 LINE",
"157 270 LINE",
"255 270 LINE",
"255 340 OFFCURVE",
"284 380 OFFCURVE",
"334 380 CURVE SMOOTH",
"386 380 OFFCURVE",
"413 339 OFFCURVE",
"413 260 CURVE SMOOTH",
"413 181 OFFCURVE",
"386 140 OFFCURVE",
"334 140 CURVE SMOOTH",
"284 140 OFFCURVE",
"255 180 OFFCURVE",
"255 250 CURVE",
"157 250 LINE",
"157 60 LINE",
"257 60 LINE",
"301 12 OFFCURVE",
"349 -10 OFFCURVE",
"410 -10 CURVE SMOOTH"
);
},
{
closed = 1;
nodes = (
"255 -220 LINE",
"255 460 LINE",
"247 460 LINE",
"245 520 LINE",
"59 520 LINE",
"59 -220 LINE"
);
}
);
width = 635;
},
{
associatedMasterId = "D65C9A1E-0FCA-4B2D-8EDF-9F36CA9182A1";
layerId = "7F3BC6AE-6F22-4A97-B0EB-8F0F5CC638FE";
name = "Light {232}";
paths = (
{
closed = 1;
nodes = (
"445 -10 OFFCURVE",
"522 91 OFFCURVE",
"522 260 CURVE SMOOTH",
"522 429 OFFCURVE",
"445 530 OFFCURVE",
"314 530 CURVE SMOOTH",
"234 530 OFFCURVE",
"164 492 OFFCURVE",
"130 431 CURVE",
"105 431 LINE",
"105 284 LINE",
"130 284 LINE",
"130 405 OFFCURVE",
"201 487 OFFCURVE",
"304 487 CURVE SMOOTH",
"409 487 OFFCURVE",
"472 401 OFFCURVE",
"472 260 CURVE SMOOTH",
"472 119 OFFCURVE",
"409 33 OFFCURVE",
"304 33 CURVE SMOOTH",
"201 33 OFFCURVE",
"130 115 OFFCURVE",
"130 236 CURVE",
"105 236 LINE",
"105 89 LINE",
"132 89 LINE",
"165 28 OFFCURVE",
"234 -10 OFFCURVE",
"314 -10 CURVE SMOOTH"
);
},
{
closed = 1;
nodes = (
"130 -220 LINE",
"130 431 LINE",
"128 431 LINE",
"128 520 LINE",
"81 520 LINE",
"81 -220 LINE"
);
}
);
width = 563;
}
);
leftKerningGroup = n;
leftMetricsKey = "=n";
rightKerningGroup = o;
rightMetricsKey = "=o";
unicode = 0070;
},
{
color = 3;
glyphname = thorn;
lastChange = "2020-01-07 03:17:23 +0000";
layers = (
{
layerId = "D65C9A1E-0FCA-4B2D-8EDF-9F36CA9182A1";
paths = (
{
closed = 1;
nodes = (
"426 -10 OFFCURVE",
"505 93 OFFCURVE",
"505 260 CURVE SMOOTH",
"505 427 OFFCURVE",
"426 530 OFFCURVE",
"295 530 CURVE SMOOTH",
"206 530 OFFCURVE",
"139 481 OFFCURVE",
"107 400 CURVE",
"95 400 LINE",
"95 285 LINE",
"105 285 LINE",
"105 422 OFFCURVE",
"180 510 OFFCURVE",
"295 510 CURVE SMOOTH",
"414 510 OFFCURVE",
"485 416 OFFCURVE",
"485 260 CURVE SMOOTH",
"485 104 OFFCURVE",
"414 10 OFFCURVE",
"295 10 CURVE SMOOTH",
"180 10 OFFCURVE",
"105 98 OFFCURVE",
"105 235 CURVE",
"95 235 LINE",
"95 120 LINE",
"107 120 LINE",
"139 39 OFFCURVE",
"206 -10 OFFCURVE",
"295 -10 CURVE SMOOTH"
);
},
{
closed = 1;
nodes = (
"105 -220 LINE",
"105 750 LINE",
"85 750 LINE",
"85 -220 LINE"
);
}
);
width = 552;
},
{
layerId = "9527F797-22C1-480E-A1FE-2CDBEBE1FD4C";
paths = (
{
closed = 1;
nodes = (
"483 -10 OFFCURVE",
"555 86 OFFCURVE",
"555 260 CURVE SMOOTH",
"555 434 OFFCURVE",
"483 530 OFFCURVE",
"353 530 CURVE SMOOTH",
"282 530 OFFCURVE",
"220 501 OFFCURVE",
"182 449 CURVE",
"126 449 LINE",
"126 283 LINE",
"180 283 LINE",
"180 370 OFFCURVE",
"244 440 OFFCURVE",
"322 440 CURVE SMOOTH",
"399 440 OFFCURVE",
"447 371 OFFCURVE",
"447 260 CURVE SMOOTH",
"447 149 OFFCURVE",
"399 80 OFFCURVE",
"322 80 CURVE SMOOTH",
"244 80 OFFCURVE",
"180 150 OFFCURVE",
"180 237 CURVE",
"126 237 LINE",
"126 71 LINE",
"182 71 LINE",
"220 19 OFFCURVE",
"282 -10 OFFCURVE",
"353 -10 CURVE SMOOTH"
);
},
{
closed = 1;
nodes = (
"180 -220 LINE",
"180 750 LINE",
"72 750 LINE",
"72 -220 LINE"
);
}
);
width = 595;
},
{
layerId = "9E6B41AB-2970-4C41-8B35-4DBE0D296A43";
paths = (
{
closed = 1;
nodes = (
"536 -10 OFFCURVE",
"605 85 OFFCURVE",
"605 260 CURVE SMOOTH",
"605 435 OFFCURVE",
"536 530 OFFCURVE",
"410 530 CURVE SMOOTH",
"349 530 OFFCURVE",
"301 508 OFFCURVE",
"257 460 CURVE",
"157 460 LINE",
"157 270 LINE",
"255 270 LINE",
"255 340 OFFCURVE",
"284 380 OFFCURVE",
"334 380 CURVE SMOOTH",
"386 380 OFFCURVE",
"413 339 OFFCURVE",
"413 260 CURVE SMOOTH",
"413 181 OFFCURVE",
"386 140 OFFCURVE",
"334 140 CURVE SMOOTH",
"284 140 OFFCURVE",
"255 180 OFFCURVE",
"255 250 CURVE",
"157 250 LINE",
"157 60 LINE",
"257 60 LINE",
"301 12 OFFCURVE",
"349 -10 OFFCURVE",
"410 -10 CURVE SMOOTH"
);
},
{
closed = 1;
nodes = (
"255 -220 LINE",
"255 750 LINE",
"59 750 LINE",
"59 -220 LINE"
);
}
);
width = 638;
},
{
associatedMasterId = "D65C9A1E-0FCA-4B2D-8EDF-9F36CA9182A1";
layerId = "0BCAABAB-37FB-445D-B33E-60B4C38D96A8";
name = "Light {232}";
paths = (
{
closed = 1;
nodes = (
"445 -10 OFFCURVE",
"522 91 OFFCURVE",
"522 260 CURVE SMOOTH",
"522 429 OFFCURVE",
"445 530 OFFCURVE",
"314 530 CURVE SMOOTH",
"234 530 OFFCURVE",
"165 493 OFFCURVE",
"132 431 CURVE",
"105 431 LINE",
"105 284 LINE",
"130 284 LINE",
"130 405 OFFCURVE",
"201 487 OFFCURVE",
"304 487 CURVE SMOOTH",
"409 487 OFFCURVE",
"472 401 OFFCURVE",
"472 260 CURVE SMOOTH",
"472 119 OFFCURVE",
"409 33 OFFCURVE",
"304 33 CURVE SMOOTH",
"201 33 OFFCURVE",
"130 115 OFFCURVE",
"130 236 CURVE",
"105 236 LINE",
"105 89 LINE",
"132 89 LINE",
"165 27 OFFCURVE",
"234 -10 OFFCURVE",
"314 -10 CURVE SMOOTH"
);
},
{
closed = 1;
nodes = (
"130 -220 LINE",
"130 750 LINE",
"81 750 LINE",
"81 -220 LINE"
);
}
);
width = 567;
}
);
leftKerningGroup = b;
leftMetricsKey = "=b";
rightKerningGroup = o;
rightMetricsKey = "=b";
unicode = 00FE;
},
{
color = 0;
glyphname = r;
lastChange = "2020-01-02 08:17:14 +0000";
layers = (
{
anchors = (
{
name = bottom;
position = "{200, 0}";
},
{
name = top;
position = "{200, 520}";
}
);
layerId = "D65C9A1E-0FCA-4B2D-8EDF-9F36CA9182A1";
rightMetricsKey = "=|*.2";
paths = (
{
closed = 1;
nodes = (
"105 280 LINE",
"105 408 OFFCURVE",
"216 510 OFFCURVE",
"355 510 CURVE",
"355 530 LINE",
"243 530 OFFCURVE",
"147 467 OFFCURVE",
"107 376 CURVE",
"95 376 LINE",
"95 280 LINE"
);
},
{
closed = 1;
nodes = (
"105 0 LINE",
"105 376 LINE",
"105 376 LINE",
"105 520 LINE",
"85 520 LINE",
"85 0 LINE"
);
}
);
width = 372;
},
{
anchors = (
{
name = bottom;
position = "{230, 0}";
},
{
name = top;
position = "{230, 520}";
}
);
layerId = "9527F797-22C1-480E-A1FE-2CDBEBE1FD4C";
rightMetricsKey = "=|*.25";
paths = (
{
closed = 1;
nodes = (
"181 250 LINE",
"181 353 OFFCURVE",
"286 435 OFFCURVE",
"417 435 CURVE",
"417 530 LINE",
"317 530 OFFCURVE",
"230 489 OFFCURVE",
"179 419 CURVE",
"130 419 LINE",
"130 250 LINE"
);
},
{
closed = 1;
nodes = (
"181 0 LINE",
"181 419 LINE",
"177 419 LINE",
"176 520 LINE",
"72 520 LINE",
"72 0 LINE"
);
}
);
width = 435;
},
{
anchors = (
{
name = bottom;
position = "{260, 0}";
},
{
name = top;
position = "{260, 520}";
}
);
layerId = "9E6B41AB-2970-4C41-8B35-4DBE0D296A43";
rightMetricsKey = "=|*.3";
paths = (
{
closed = 1;
nodes = (
"257 220 LINE",
"257 303 OFFCURVE",
"357 370 OFFCURVE",
"479 370 CURVE",
"479 530 LINE",
"392 530 OFFCURVE",
"314 496 OFFCURVE",
"251 430 CURVE",
"164 430 LINE",
"164 220 LINE"
);
},
{
closed = 1;
nodes = (
"257 0 LINE",
"257 430 LINE",
"249 430 LINE",
"247 520 LINE",
"59 520 LINE",
"59 0 LINE"
);
}
);
width = 497;
},
{
anchors = (
{
name = bottom;
position = "{210, 0}";
},
{
name = top;
position = "{210, 520}";
}
);
associatedMasterId = "D65C9A1E-0FCA-4B2D-8EDF-9F36CA9182A1";
layerId = "657C252B-5EEF-4E2C-9A2A-557819CBA416";
rightMetricsKey = "=|*.2";
name = "Light {232}";
paths = (
{
closed = 1;
nodes = (
"130 270 LINE",
"130 405 OFFCURVE",
"239 485 OFFCURVE",
"375 485 CURVE",
"375 530 LINE",
"269 530 OFFCURVE",
"175 482 OFFCURVE",
"131 405 CURVE",
"107 405 LINE",
"107 270 LINE"
);
},
{
closed = 1;
nodes = (
"130 0 LINE",
"130 405 LINE",
"129 405 LINE",
"128 520 LINE",
"81 520 LINE",
"81 0 LINE"
);
}
);
width = 391;
}
);
leftKerningGroup = n;
leftMetricsKey = "=n";
rightKerningGroup = r;
rightMetricsKey = "=|*.3";
unicode = 0072;
},
{
color = 0;
glyphname = s;
lastChange = "2020-01-02 08:28:14 +0000";
layers = (
{
anchors = (
{
name = bottom;
position = "{249, 0}";
},
{
name = top;
position = "{249, 520}";
}
);
layerId = "9527F797-22C1-480E-A1FE-2CDBEBE1FD4C";
paths = (
{
closed = 1;
nodes = (
"382 -10 OFFCURVE",
"461 47 OFFCURVE",
"461 143 CURVE SMOOTH",
"461 227 OFFCURVE",
"403 275 OFFCURVE",
"257 310 CURVE SMOOTH",
"177 329 OFFCURVE",
"148 348 OFFCURVE",
"148 383 CURVE SMOOTH",
"148 421 OFFCURVE",
"185 440 OFFCURVE",
"259 440 CURVE SMOOTH",
"315 440 OFFCURVE",
"367 429 OFFCURVE",
"425 406 CURVE",
"448 492 LINE",
"380 517 OFFCURVE",
"312 530 OFFCURVE",
"246 530 CURVE SMOOTH",
"111 530 OFFCURVE",
"38 479 OFFCURVE",
"38 385 CURVE SMOOTH",
"38 301 OFFCURVE",
"95 253 OFFCURVE",
"236 222 CURVE SMOOTH",
"319 203 OFFCURVE",
"351 182 OFFCURVE",
"351 144 CURVE SMOOTH",
"351 102 OFFCURVE",
"311 80 OFFCURVE",
"235 80 CURVE SMOOTH",
"177 80 OFFCURVE",
"124 94 OFFCURVE",
"58 127 CURVE",
"36 40 LINE",
"101 7 OFFCURVE",
"174 -10 OFFCURVE",
"248 -10 CURVE SMOOTH"
);
}
);
width = 497;
},
{
anchors = (
{
name = bottom;
position = "{270, 0}";
},
{
name = top;
position = "{270, 520}";
}
);
layerId = "9E6B41AB-2970-4C41-8B35-4DBE0D296A43";
paths = (
{
closed = 1;
nodes = (
"418 -10 OFFCURVE",
"510 54 OFFCURVE",
"510 155 CURVE SMOOTH",
"510 244 OFFCURVE",
"441 299 OFFCURVE",
"292 331 CURVE SMOOTH",
"245 342 OFFCURVE",
"235 348 OFFCURVE",
"235 366 CURVE SMOOTH",
"235 385 OFFCURVE",
"253 392 OFFCURVE",
"297 392 CURVE SMOOTH",
"347 392 OFFCURVE",
"391 383 OFFCURVE",
"465 359 CURVE",
"500 494 LINE",
"424 517 OFFCURVE",
"341 530 OFFCURVE",
"270 530 CURVE SMOOTH",
"116 530 OFFCURVE",
"35 475 OFFCURVE",
"35 370 CURVE SMOOTH",
"35 277 OFFCURVE",
"94 229 OFFCURVE",
"253 191 CURVE SMOOTH",
"300 180 OFFCURVE",
"310 174 OFFCURVE",
"310 158 CURVE SMOOTH",
"310 138 OFFCURVE",
"293 130 OFFCURVE",
"248 130 CURVE SMOOTH",
"188 130 OFFCURVE",
"133 144 OFFCURVE",
"65 175 CURVE",
"30 40 LINE",
"103 7 OFFCURVE",
"186 -10 OFFCURVE",
"275 -10 CURVE SMOOTH"
);
}
);
width = 540;
},
{
anchors = (
{
name = bottom;
position = "{227, 0}";
},
{
name = top;
position = "{227, 520}";
}
);
layerId = "D65C9A1E-0FCA-4B2D-8EDF-9F36CA9182A1";
paths = (
{
closed = 1;
nodes = (
"339 -10 OFFCURVE",
"412 44 OFFCURVE",
"412 130 CURVE SMOOTH",
"412 205 OFFCURVE",
"360 247 OFFCURVE",
"223 281 CURVE SMOOTH",
"103 311 OFFCURVE",
"62 342 OFFCURVE",
"62 400 CURVE SMOOTH",
"62 470 OFFCURVE",
"119 510 OFFCURVE",
"222 510 CURVE SMOOTH",
"280 510 OFFCURVE",
"335 497 OFFCURVE",
"388 472 CURVE",
"397 490 LINE",
"340 517 OFFCURVE",
"282 530 OFFCURVE",
"222 530 CURVE SMOOTH",
"108 530 OFFCURVE",
"42 482 OFFCURVE",
"42 400 CURVE SMOOTH",
"42 330 OFFCURVE",
"90 293 OFFCURVE",
"219 261 CURVE SMOOTH",
"347 229 OFFCURVE",
"392 195 OFFCURVE",
"392 130 CURVE SMOOTH",
"392 56 OFFCURVE",
"328 10 OFFCURVE",
"222 10 CURVE SMOOTH",
"163 10 OFFCURVE",
"111 25 OFFCURVE",
"52 57 CURVE",
"42 40 LINE",
"105 5 OFFCURVE",
"161 -10 OFFCURVE",
"222 -10 CURVE SMOOTH"
);
}
);
width = 454;
}
);
leftKerningGroup = s;
leftMetricsKey = "=h*.5";
rightKerningGroup = s;
rightMetricsKey = "=|";
unicode = 0073;
},
{
color = 3;
glyphname = germandbls;
lastChange = "2020-01-07 03:17:23 +0000";
layers = (
{
layerId = "D65C9A1E-0FCA-4B2D-8EDF-9F36CA9182A1";
rightMetricsKey = "=X*.7";
paths = (
{
closed = 1;
nodes = (
"451 -10 OFFCURVE",
"525 57 OFFCURVE",
"525 160 CURVE SMOOTH",
"525 224 OFFCURVE",
"500 264 OFFCURVE",
"397 360 CURVE SMOOTH",
"355 400 OFFCURVE",
"345 411 OFFCURVE",
"345 420 CURVE SMOOTH",
"345 427 OFFCURVE",
"351 436 OFFCURVE",
"384 473 CURVE SMOOTH",
"453 548 OFFCURVE",
"475 588 OFFCURVE",
"475 640 CURVE SMOOTH",
"475 719 OFFCURVE",
"409 760 OFFCURVE",
"285 760 CURVE SMOOTH",
"137 760 OFFCURVE",
"85 706 OFFCURVE",
"85 555 CURVE SMOOTH",
"85 0 LINE",
"105 0 LINE",
"105 555 LINE SMOOTH",
"105 696 OFFCURVE",
"149 740 OFFCURVE",
"285 740 CURVE SMOOTH",
"399 740 OFFCURVE",
"455 706 OFFCURVE",
"455 640 CURVE SMOOTH",
"455 594 OFFCURVE",
"436 559 OFFCURVE",
"369 486 CURVE SMOOTH",
"339 453 OFFCURVE",
"325 436 OFFCURVE",
"325 420 CURVE SMOOTH",
"325 401 OFFCURVE",
"343 383 OFFCURVE",
"383 345 CURVE SMOOTH",
"481 252 OFFCURVE",
"505 218 OFFCURVE",
"505 160 CURVE SMOOTH",
"505 69 OFFCURVE",
"441 10 OFFCURVE",
"340 10 CURVE SMOOTH",
"298 10 OFFCURVE",
"234 20 OFFCURVE",
"183 35 CURVE",
"177 15 LINE",
"232 0 OFFCURVE",
"296 -10 OFFCURVE",
"340 -10 CURVE SMOOTH"
);
}
);
width = 570;
},
{
layerId = "9527F797-22C1-480E-A1FE-2CDBEBE1FD4C";
rightMetricsKey = "=X*.9";
paths = (
{
closed = 1;
nodes = (
"491 -10 OFFCURVE",
"564 51 OFFCURVE",
"564 153 CURVE SMOOTH",
"564 207 OFFCURVE",
"542 247 OFFCURVE",
"470 324 CURVE SMOOTH",
"424 373 OFFCURVE",
"414 386 OFFCURVE",
"414 398 CURVE SMOOTH",
"414 408 OFFCURVE",
"424 424 OFFCURVE",
"458 469 CURVE SMOOTH",
"513 541 OFFCURVE",
"529 574 OFFCURVE",
"529 615 CURVE SMOOTH",
"529 707 OFFCURVE",
"446 760 OFFCURVE",
"303 760 CURVE SMOOTH",
"143 760 OFFCURVE",
"72 692 OFFCURVE",
"72 538 CURVE SMOOTH",
"72 0 LINE",
"180 0 LINE",
"180 537 LINE SMOOTH",
"180 637 OFFCURVE",
"209 665 OFFCURVE",
"308 665 CURVE SMOOTH",
"387 665 OFFCURVE",
"423 647 OFFCURVE",
"423 609 CURVE SMOOTH",
"423 583 OFFCURVE",
"407 555 OFFCURVE",
"353 489 CURVE SMOOTH",
"314 440 OFFCURVE",
"303 420 OFFCURVE",
"303 398 CURVE SMOOTH",
"303 372 OFFCURVE",
"319 345 OFFCURVE",
"361 300 CURVE SMOOTH",
"443 214 OFFCURVE",
"458 193 OFFCURVE",
"458 164 CURVE SMOOTH",
"458 116 OFFCURVE",
"417 85 OFFCURVE",
"353 85 CURVE SMOOTH",
"324 85 OFFCURVE",
"286 92 OFFCURVE",
"250 103 CURVE",
"235 8 LINE",
"283 -4 OFFCURVE",
"332 -10 OFFCURVE",
"370 -10 CURVE SMOOTH"
);
}
);
width = 604;
},
{
layerId = "9E6B41AB-2970-4C41-8B35-4DBE0D296A43";
rightMetricsKey = "=X*1.1";
paths = (
{
closed = 1;
nodes = (
"529 -10 OFFCURVE",
"604 47 OFFCURVE",
"604 145 CURVE SMOOTH",
"604 192 OFFCURVE",
"587 232 OFFCURVE",
"544 288 CURVE SMOOTH",
"513 327 OFFCURVE",
"490 365 OFFCURVE",
"490 377 CURVE SMOOTH",
"490 386 OFFCURVE",
"502 407 OFFCURVE",
"540 465 CURVE SMOOTH",
"576 521 OFFCURVE",
"590 556 OFFCURVE",
"590 590 CURVE SMOOTH",
"590 691 OFFCURVE",
"481 760 OFFCURVE",
"320 760 CURVE SMOOTH",
"142 760 OFFCURVE",
"59 684 OFFCURVE",
"59 520 CURVE SMOOTH",
"59 0 LINE",
"255 0 LINE",
"255 513 LINE SMOOTH",
"255 586 OFFCURVE",
"267 600 OFFCURVE",
"330 600 CURVE SMOOTH",
"378 600 OFFCURVE",
"400 590 OFFCURVE",
"400 568 CURVE SMOOTH",
"400 547 OFFCURVE",
"381 510 OFFCURVE",
"352 474 CURVE SMOOTH",
"313 425 OFFCURVE",
"300 400 OFFCURVE",
"300 375 CURVE SMOOTH",
"300 351 OFFCURVE",
"312 330 OFFCURVE",
"354 274 CURVE SMOOTH",
"396 218 OFFCURVE",
"408 196 OFFCURVE",
"408 177 CURVE SMOOTH",
"408 156 OFFCURVE",
"393 145 OFFCURVE",
"365 145 CURVE SMOOTH",
"351 145 OFFCURVE",
"331 148 OFFCURVE",
"305 155 CURVE",
"295 0 LINE",
"339 -7 OFFCURVE",
"371 -10 OFFCURVE",
"400 -10 CURVE SMOOTH"
);
}
);
width = 636;
}
);
leftKerningGroup = h;
leftMetricsKey = "=b";
rightKerningGroup = X;
rightMetricsKey = "=X*1.1";
unicode = 00DF;
},
{
color = 0;
glyphname = t;
lastChange = "2020-01-02 10:44:12 +0000";
layers = (
{
anchors = (
{
name = bottom;
position = "{211, 0}";
},
{
name = cedi;
position = "{230, 0}";
},
{
name = center;
position = "{211, 260}";
},
{
name = top;
position = "{211, 520}";
},
{
name = topright;
position = "{401, 520}";
}
);
layerId = "D65C9A1E-0FCA-4B2D-8EDF-9F36CA9182A1";
leftMetricsKey = "=f*1.4";
rightMetricsKey = "=c*.6";
paths = (
{
closed = 1;
nodes = (
"314 -10 OFFCURVE",
"344 -5 OFFCURVE",
"375 5 CURVE",
"369 24 LINE",
"339 15 OFFCURVE",
"311 10 OFFCURVE",
"281 10 CURVE SMOOTH",
"199 10 OFFCURVE",
"173 41 OFFCURVE",
"173 140 CURVE SMOOTH",
"173 480 LINE",
"375 480 LINE",
"375 500 LINE",
"173 500 LINE",
"173 690 LINE",
"153 690 LINE",
"153 500 LINE",
"35 500 LINE",
"35 480 LINE",
"153 480 LINE",
"153 140 LINE SMOOTH",
"153 30 OFFCURVE",
"187 -10 OFFCURVE",
"281 -10 CURVE SMOOTH"
);
}
);
width = 421;
},
{
anchors = (
{
name = bottom;
position = "{236, 0}";
},
{
name = cedi;
position = "{230, 0}";
},
{
name = center;
position = "{236, 260}";
},
{
name = top;
position = "{236, 520}";
},
{
name = topright;
position = "{451, 520}";
}
);
layerId = "9527F797-22C1-480E-A1FE-2CDBEBE1FD4C";
rightMetricsKey = "=c*.9";
paths = (
{
closed = 1;
nodes = (
"328 -10 OFFCURVE",
"376 -4 OFFCURVE",
"418 8 CURVE",
"406 95 LINE",
"375 85 OFFCURVE",
"343 80 OFFCURVE",
"312 80 CURVE SMOOTH",
"253 80 OFFCURVE",
"238 98 OFFCURVE",
"238 170 CURVE SMOOTH",
"238 410 LINE",
"418 410 LINE",
"418 500 LINE",
"238 500 LINE",
"238 690 LINE",
"129 690 LINE",
"129 500 LINE",
"18 500 LINE",
"18 410 LINE",
"129 410 LINE",
"129 160 LINE SMOOTH",
"129 35 OFFCURVE",
"170 -10 OFFCURVE",
"284 -10 CURVE SMOOTH"
);
}
);
width = 471;
},
{
anchors = (
{
name = bottom;
position = "{263, 0}";
},
{
name = cedi;
position = "{230, 0}";
},
{
name = center;
position = "{263, 260}";
},
{
name = top;
position = "{263, 520}";
},
{
name = topright;
position = "{505, 520}";
}
);
layerId = "9E6B41AB-2970-4C41-8B35-4DBE0D296A43";
leftMetricsKey = "=f*.8";
rightMetricsKey = "=c*1.2";
paths = (
{
closed = 1;
nodes = (
"365 -10 OFFCURVE",
"421 -3 OFFCURVE",
"475 10 CURVE",
"454 150 LINE",
"425 140 OFFCURVE",
"396 135 OFFCURVE",
"369 135 CURVE SMOOTH",
"327 135 OFFCURVE",
"317 148 OFFCURVE",
"317 205 CURVE SMOOTH",
"317 360 LINE",
"474 360 LINE",
"474 500 LINE",
"317 500 LINE",
"317 690 LINE",
"119 690 LINE",
"119 500 LINE",
"14 500 LINE",
"14 360 LINE",
"119 360 LINE",
"119 180 LINE SMOOTH",
"119 43 OFFCURVE",
"173 -10 OFFCURVE",
"314 -10 CURVE SMOOTH"
);
}
);
width = 525;
}
);
leftKerningGroup = f;
leftMetricsKey = "=f*.8";
rightKerningGroup = c;
rightMetricsKey = "=c*1.2";
unicode = 0074;
},
{
glyphname = tbar;
lastChange = "2020-01-02 10:42:05 +0000";
layers = (
{
components = (
{
name = t;
}
);
layerId = "D65C9A1E-0FCA-4B2D-8EDF-9F36CA9182A1";
paths = (
{
closed = 1;
nodes = (
"375 240 LINE",
"375 260 LINE",
"35 260 LINE",
"35 240 LINE"
);
}
);
width = 421;
},
{
components = (
{
alignment = -1;
name = t;
}
);
layerId = "9527F797-22C1-480E-A1FE-2CDBEBE1FD4C";
paths = (
{
closed = 1;
nodes = (
"418 205 LINE",
"418 295 LINE",
"18 295 LINE",
"18 205 LINE"
);
}
);
width = 473;
},
{
components = (
{
name = t;
}
);
layerId = "9E6B41AB-2970-4C41-8B35-4DBE0D296A43";
paths = (
{
closed = 1;
nodes = (
"474 180 LINE",
"474 320 LINE",
"14 320 LINE",
"14 180 LINE"
);
}
);
width = 525;
}
);
leftKerningGroup = f;
rightKerningGroup = c;
unicode = 0167;
},
{
color = 0;
glyphname = u;
lastChange = "2020-01-02 13:08:35 +0000";
layers = (
{
anchors = (
{
name = bottom;
position = "{276, 0}";
},
{
name = ogonek;
position = "{467, 0}";
},
{
name = top;
position = "{276, 520}";
},
{
name = top_ring;
position = "{276, 540}";
},
{
name = topright;
position = "{467, 480}";
}
);
layerId = "D65C9A1E-0FCA-4B2D-8EDF-9F36CA9182A1";
paths = (
{
closed = 1;
nodes = (
"336 -10 OFFCURVE",
"410 46 OFFCURVE",
"445 128 CURVE",
"457 128 LINE",
"457 230 LINE",
"447 230 LINE",
"447 107 OFFCURVE",
"360 10 OFFCURVE",
"248 10 CURVE SMOOTH",
"153 10 OFFCURVE",
"97 80 OFFCURVE",
"97 200 CURVE SMOOTH",
"97 520 LINE",
"77 520 LINE",
"77 200 LINE SMOOTH",
"77 70 OFFCURVE",
"141 -10 OFFCURVE",
"248 -10 CURVE SMOOTH"
);
},
{
closed = 1;
nodes = (
"467 0 LINE",
"467 520 LINE",
"447 520 LINE",
"447 128 LINE",
"447 128 LINE",
"447 0 LINE"
);
}
);
width = 552;
},
{
anchors = (
{
name = bottom;
position = "{294, 0}";
},
{
name = ogonek;
position = "{515, 0}";
},
{
name = top;
position = "{294, 520}";
},
{
name = top_ring;
position = "{294, 540}";
},
{
name = topright;
position = "{500, 480}";
}
);
layerId = "9527F797-22C1-480E-A1FE-2CDBEBE1FD4C";
paths = (
{
closed = 1;
nodes = (
"299 -10 OFFCURVE",
"365 21 OFFCURVE",
"409 76 CURVE",
"461 76 LINE",
"461 255 LINE",
"407 255 LINE",
"407 164 OFFCURVE",
"334 80 OFFCURVE",
"255 80 CURVE SMOOTH",
"198 80 OFFCURVE",
"173 123 OFFCURVE",
"173 220 CURVE SMOOTH",
"173 520 LINE",
"65 520 LINE",
"65 200 LINE SMOOTH",
"65 56 OFFCURVE",
"115 -10 OFFCURVE",
"225 -10 CURVE SMOOTH"
);
},
{
closed = 1;
nodes = (
"515 0 LINE",
"515 520 LINE",
"407 520 LINE",
"407 76 LINE",
"411 76 LINE",
"412 0 LINE"
);
}
);
width = 587;
},
{
anchors = (
{
name = bottom;
position = "{311, 0}";
},
{
name = ogonek;
position = "{563, 0}";
},
{
name = top;
position = "{311, 520}";
},
{
name = top_ring;
position = "{311, 520}";
},
{
name = topright;
position = "{533, 480}";
}
);
layerId = "9E6B41AB-2970-4C41-8B35-4DBE0D296A43";
paths = (
{
closed = 1;
nodes = (
"287 -10 OFFCURVE",
"330 10 OFFCURVE",
"373 60 CURVE",
"465 60 LINE",
"465 220 LINE",
"367 220 LINE",
"367 180 OFFCURVE",
"338 150 OFFCURVE",
"298 150 CURVE SMOOTH",
"262 150 OFFCURVE",
"249 174 OFFCURVE",
"249 240 CURVE SMOOTH",
"249 520 LINE",
"53 520 LINE",
"53 200 LINE SMOOTH",
"53 53 OFFCURVE",
"104 -10 OFFCURVE",
"223 -10 CURVE SMOOTH"
);
},
{
closed = 1;
nodes = (
"563 0 LINE",
"563 520 LINE",
"367 520 LINE",
"367 60 LINE",
"375 60 LINE",
"377 0 LINE"
);
}
);
width = 622;
},
{
anchors = (
{
name = bottom;
position = "{282, 0}";
},
{
name = ogonek;
position = "{483, 0}";
},
{
name = top;
position = "{282, 520}";
},
{
name = top_ring;
position = "{282, 540}";
},
{
name = topright;
position = "{478, 480}";
}
);
associatedMasterId = "D65C9A1E-0FCA-4B2D-8EDF-9F36CA9182A1";
background = {
anchors = (
{
name = bottom;
position = "{282, 0}";
},
{
name = ogonek;
position = "{507, 10}";
},
{
name = top;
position = "{282, 520}";
},
{
name = topright;
position = "{478, 480}";
}
);
};
layerId = "245D3822-9188-491B-8A3B-367571E408B0";
name = "Light {232}";
paths = (
{
closed = 1;
nodes = (
"320 -10 OFFCURVE",
"394 31 OFFCURVE",
"433 96 CURVE",
"458 96 LINE",
"458 238 LINE",
"434 238 LINE",
"434 126 OFFCURVE",
"351 33 OFFCURVE",
"250 33 CURVE SMOOTH",
"168 33 OFFCURVE",
"122 94 OFFCURVE",
"122 207 CURVE SMOOTH",
"122 520 LINE",
"73 520 LINE",
"73 200 LINE SMOOTH",
"73 65 OFFCURVE",
"132 -10 OFFCURVE",
"240 -10 CURVE SMOOTH"
);
},
{
closed = 1;
nodes = (
"483 0 LINE",
"483 520 LINE",
"434 520 LINE",
"434 96 LINE",
"435 96 LINE",
"435 0 LINE"
);
}
);
width = 564;
},
{
anchors = (
{
name = bottom;
position = "{305, 0}";
},
{
name = ogonek;
position = "{547, 0}";
},
{
name = top;
position = "{305, 520}";
},
{
name = top_ring;
position = "{305, 540}";
},
{
name = topright;
position = "{522, 480}";
}
);
associatedMasterId = "9527F797-22C1-480E-A1FE-2CDBEBE1FD4C";
layerId = "349566FA-AE97-4D83-9994-DE03C3402FC4";
name = "ExtraBold {767}";
paths = (
{
closed = 1;
nodes = (
"291 -10 OFFCURVE",
"342 14 OFFCURVE",
"385 65 CURVE",
"464 65 LINE",
"464 232 LINE",
"380 232 LINE",
"380 175 OFFCURVE",
"337 127 OFFCURVE",
"284 127 CURVE SMOOTH",
"241 127 OFFCURVE",
"224 157 OFFCURVE",
"224 233 CURVE SMOOTH",
"224 520 LINE",
"57 520 LINE",
"57 200 LINE SMOOTH",
"57 54 OFFCURVE",
"108 -10 OFFCURVE",
"224 -10 CURVE SMOOTH"
);
},
{
closed = 1;
nodes = (
"547 0 LINE",
"547 520 LINE",
"380 520 LINE",
"380 65 LINE",
"387 65 LINE",
"389 0 LINE"
);
}
);
width = 610;
}
);
leftKerningGroup = u;
leftMetricsKey = "=|n";
rightKerningGroup = u;
rightMetricsKey = "=|n";
unicode = 0075;
},
{
color = 0;
glyphname = v;
lastChange = "2019-12-28 14:04:38 +0000";
layers = (
{
layerId = "D65C9A1E-0FCA-4B2D-8EDF-9F36CA9182A1";
paths = (
{
closed = 1;
nodes = (
"257 0 LINE",
"467 520 LINE",
"445 520 LINE",
"243 17 LINE",
"241 17 LINE",
"39 520 LINE",
"17 520 LINE",
"227 0 LINE"
);
}
);
width = 484;
},
{
layerId = "9527F797-22C1-480E-A1FE-2CDBEBE1FD4C";
paths = (
{
closed = 1;
nodes = (
"343 0 LINE",
"524 520 LINE",
"406 520 LINE",
"268 78 LINE",
"266 78 LINE",
"128 520 LINE",
"10 520 LINE",
"191 0 LINE"
);
}
);
width = 534;
},
{
layerId = "9E6B41AB-2970-4C41-8B35-4DBE0D296A43";
paths = (
{
closed = 1;
nodes = (
"431 0 LINE",
"583 520 LINE",
"381 520 LINE",
"295 120 LINE",
"293 120 LINE",
"207 520 LINE",
"5 520 LINE",
"157 0 LINE"
);
}
);
width = 588;
}
);
leftKerningGroup = v;
leftMetricsKey = "=|k*.4";
rightKerningGroup = v;
rightMetricsKey = "=|";
unicode = 0076;
},
{
color = 0;
glyphname = w;
lastChange = "2020-01-02 13:12:18 +0000";
layers = (
{
anchors = (
{
name = bottom;
position = "{374, 0}";
},
{
name = top;
position = "{374, 520}";
}
);
layerId = "D65C9A1E-0FCA-4B2D-8EDF-9F36CA9182A1";
leftMetricsKey = "=v*2";
paths = (
{
closed = 1;
nodes = (
"224 0 LINE",
"373 499 LINE",
"375 499 LINE",
"524 0 LINE",
"554 0 LINE",
"714 520 LINE",
"693 520 LINE",
"540 21 LINE",
"538 21 LINE",
"389 520 LINE",
"359 520 LINE",
"210 21 LINE",
"208 21 LINE",
"55 520 LINE",
"34 520 LINE",
"194 0 LINE"
);
}
);
width = 748;
},
{
anchors = (
{
name = bottom;
position = "{395, 0}";
},
{
name = top;
position = "{395, 520}";
}
);
layerId = "9527F797-22C1-480E-A1FE-2CDBEBE1FD4C";
leftMetricsKey = "=v*2.4";
paths = (
{
closed = 1;
nodes = (
"305 0 LINE",
"394 405 LINE",
"396 405 LINE",
"485 0 LINE",
"625 0 LINE",
"766 520 LINE",
"648 520 LINE",
"559 105 LINE",
"557 105 LINE",
"468 520 LINE",
"322 520 LINE",
"233 105 LINE",
"231 105 LINE",
"142 520 LINE",
"24 520 LINE",
"165 0 LINE"
);
}
);
width = 790;
},
{
anchors = (
{
name = bottom;
position = "{416, 0}";
},
{
name = top;
position = "{416, 520}";
}
);
layerId = "9E6B41AB-2970-4C41-8B35-4DBE0D296A43";
leftMetricsKey = "=v*2.8";
paths = (
{
closed = 1;
nodes = (
"371 0 LINE",
"415 350 LINE",
"417 350 LINE",
"461 0 LINE",
"696 0 LINE",
"818 520 LINE",
"624 520 LINE",
"582 170 LINE",
"580 170 LINE",
"534 520 LINE",
"298 520 LINE",
"252 170 LINE",
"250 170 LINE",
"208 520 LINE",
"14 520 LINE",
"136 0 LINE"
);
}
);
width = 832;
}
);
leftKerningGroup = v;
leftMetricsKey = "=v*2.8";
rightKerningGroup = v;
rightMetricsKey = "=|";
unicode = 0077;
},
{
color = 0;
glyphname = x;
lastChange = "2019-12-28 11:29:00 +0000";
layers = (
{
layerId = "D65C9A1E-0FCA-4B2D-8EDF-9F36CA9182A1";
leftMetricsKey = "=|k";
paths = (
{
closed = 1;
nodes = (
"68 0 LINE",
"252 247 LINE",
"254 247 LINE",
"438 0 LINE",
"463 0 LINE",
"266 263 LINE",
"458 520 LINE",
"433 520 LINE",
"254 280 LINE",
"252 280 LINE",
"73 520 LINE",
"48 520 LINE",
"240 263 LINE",
"43 0 LINE"
);
}
);
width = 506;
},
{
layerId = "9527F797-22C1-480E-A1FE-2CDBEBE1FD4C";
leftMetricsKey = "=|k*1.4";
paths = (
{
closed = 1;
nodes = (
"159 0 LINE",
"276 204 LINE",
"278 204 LINE",
"395 0 LINE",
"519 0 LINE",
"355 262 LINE",
"515 520 LINE",
"391 520 LINE",
"278 320 LINE",
"276 320 LINE",
"163 520 LINE",
"39 520 LINE",
"199 262 LINE",
"35 0 LINE"
);
}
);
width = 554;
},
{
layerId = "9E6B41AB-2970-4C41-8B35-4DBE0D296A43";
leftMetricsKey = "=|k*1.8";
paths = (
{
closed = 1;
nodes = (
"224 0 LINE",
"294 160 LINE",
"296 160 LINE",
"366 0 LINE",
"568 0 LINE",
"430 260 LINE",
"566 520 LINE",
"364 520 LINE",
"296 360 LINE",
"294 360 LINE",
"226 520 LINE",
"24 520 LINE",
"160 260 LINE",
"22 0 LINE"
);
}
);
width = 590;
}
);
leftKerningGroup = x;
leftMetricsKey = "=|k*1.8";
rightKerningGroup = x;
rightMetricsKey = "=|";
unicode = 0078;
},
{
color = 0;
glyphname = y;
lastChange = "2020-01-02 13:24:57 +0000";
layers = (
{
anchors = (
{
name = bottom;
position = "{247, 0}";
},
{
name = dotR;
position = "{269, -220}";
},
{
name = top;
position = "{247, 520}";
}
);
layerId = "D65C9A1E-0FCA-4B2D-8EDF-9F36CA9182A1";
leftMetricsKey = "=v*1.6";
rightMetricsKey = "=v";
paths = (
{
closed = 1;
nodes = (
"477 520 LINE",
"455 520 LINE",
"244 37 LINE",
"242 37 LINE",
"49 520 LINE",
"27 520 LINE",
"235 2 LINE",
"235 16 LINE",
"131 -220 LINE",
"153 -220 LINE"
);
}
);
width = 494;
},
{
anchors = (
{
name = bottom;
position = "{268, 0}";
},
{
name = dotR;
position = "{350, -220}";
},
{
name = top;
position = "{268, 520}";
}
);
layerId = "9527F797-22C1-480E-A1FE-2CDBEBE1FD4C";
leftMetricsKey = "=v*.9";
paths = (
{
closed = 1;
nodes = (
"529 520 LINE",
"409 520 LINE",
"268 118 LINE",
"266 118 LINE",
"129 520 LINE",
"9 520 LINE",
"225 -34 LINE",
"225 16 LINE",
"116 -220 LINE",
"233 -220 LINE"
);
}
);
width = 535;
},
{
anchors = (
{
name = bottom;
position = "{296, 0}";
},
{
name = dotR;
position = "{430, -220}";
},
{
name = top;
position = "{296, 520}";
}
);
layerId = "9E6B41AB-2970-4C41-8B35-4DBE0D296A43";
leftMetricsKey = "=v*.2";
rightMetricsKey = "=v*.2";
paths = (
{
closed = 1;
nodes = (
"591 520 LINE",
"381 520 LINE",
"301 170 LINE",
"299 170 LINE",
"211 520 LINE",
"1 520 LINE",
"229 -69 LINE",
"232 14 LINE",
"124 -220 LINE",
"329 -220 LINE"
);
}
);
width = 592;
}
);
leftKerningGroup = v;
leftMetricsKey = "=v*.2";
rightKerningGroup = v;
rightMetricsKey = "=v*.6";
unicode = 0079;
},
{
color = 0;
glyphname = z;
lastChange = "2020-01-02 13:27:10 +0000";
layers = (
{
anchors = (
{
name = bottom;
position = "{236, 0}";
},
{
name = center;
position = "{236, 260}";
},
{
name = top;
position = "{236, 520}";
}
);
layerId = "D65C9A1E-0FCA-4B2D-8EDF-9F36CA9182A1";
leftMetricsKey = "=h*.6";
paths = (
{
closed = 1;
nodes = (
"421 0 LINE",
"421 20 LINE",
"77 20 LINE",
"77 22 LINE",
"421 500 LINE",
"421 520 LINE",
"51 520 LINE",
"51 500 LINE",
"395 500 LINE",
"395 498 LINE",
"51 20 LINE",
"51 0 LINE"
);
}
);
width = 472;
},
{
anchors = (
{
name = bottom;
position = "{264, 0}";
},
{
name = center;
position = "{264, 260}";
},
{
name = top;
position = "{264, 520}";
}
);
layerId = "9527F797-22C1-480E-A1FE-2CDBEBE1FD4C";
leftMetricsKey = "=h*.75";
paths = (
{
closed = 1;
nodes = (
"474 0 LINE",
"474 90 LINE",
"190 90 LINE",
"190 92 LINE",
"474 430 LINE",
"474 520 LINE",
"54 520 LINE",
"54 430 LINE",
"338 430 LINE",
"338 428 LINE",
"54 90 LINE",
"54 0 LINE"
);
}
);
width = 528;
},
{
anchors = (
{
name = bottom;
position = "{288, 0}";
},
{
name = center;
position = "{288, 260}";
},
{
name = top;
position = "{288, 520}";
}
);
layerId = "9E6B41AB-2970-4C41-8B35-4DBE0D296A43";
leftMetricsKey = "=h*.9";
paths = (
{
closed = 1;
nodes = (
"523 0 LINE",
"523 140 LINE",
"300 140 LINE",
"300 142 LINE",
"523 380 LINE",
"523 520 LINE",
"53 520 LINE",
"53 380 LINE",
"276 380 LINE",
"276 378 LINE",
"53 140 LINE",
"53 0 LINE"
);
}
);
width = 576;
}
);
leftKerningGroup = z;
leftMetricsKey = "=h*.9";
rightKerningGroup = z;
rightMetricsKey = "=|";
unicode = 007A;
},
{
glyphname = f_f;
lastChange = "2020-01-05 13:30:44 +0000";
layers = (
{
layerId = "D65C9A1E-0FCA-4B2D-8EDF-9F36CA9182A1";
paths = (
{
closed = 1;
nodes = (
"203 0 LINE",
"203 480 LINE",
"483 480 LINE",
"483 0 LINE",
"503 0 LINE",
"503 480 LINE",
"685 480 LINE",
"685 500 LINE",
"503 500 LINE",
"503 590 LINE SMOOTH",
"503 681 OFFCURVE",
"536 720 OFFCURVE",
"611 720 CURVE SMOOTH",
"635 720 OFFCURVE",
"654 716 OFFCURVE",
"677 706 CURVE",
"685 725 LINE",
"658 736 OFFCURVE",
"636 740 OFFCURVE",
"611 740 CURVE SMOOTH",
"524 740 OFFCURVE",
"483 692 OFFCURVE",
"483 590 CURVE SMOOTH",
"483 500 LINE",
"203 500 LINE",
"203 590 LINE SMOOTH",
"203 681 OFFCURVE",
"236 720 OFFCURVE",
"311 720 CURVE SMOOTH",
"335 720 OFFCURVE",
"354 716 OFFCURVE",
"377 706 CURVE",
"385 725 LINE",
"358 736 OFFCURVE",
"336 740 OFFCURVE",
"311 740 CURVE SMOOTH",
"224 740 OFFCURVE",
"183 692 OFFCURVE",
"183 590 CURVE SMOOTH",
"183 500 LINE",
"25 500 LINE",
"25 480 LINE",
"183 480 LINE",
"183 0 LINE"
);
}
);
width = 711;
},
{
layerId = "9527F797-22C1-480E-A1FE-2CDBEBE1FD4C";
paths = (
{
closed = 1;
nodes = (
"268 0 LINE",
"268 410 LINE",
"508 410 LINE",
"508 0 LINE",
"618 0 LINE",
"618 410 LINE",
"782 410 LINE",
"782 500 LINE",
"618 500 LINE",
"618 555 LINE SMOOTH",
"618 627 OFFCURVE",
"636 650 OFFCURVE",
"692 650 CURVE SMOOTH",
"718 650 OFFCURVE",
"745 645 OFFCURVE",
"771 637 CURVE",
"787 725 LINE",
"751 734 OFFCURVE",
"710 740 OFFCURVE",
"675 740 CURVE SMOOTH",
"563 740 OFFCURVE",
"508 679 OFFCURVE",
"508 555 CURVE SMOOTH",
"508 500 LINE",
"268 500 LINE",
"268 555 LINE SMOOTH",
"268 627 OFFCURVE",
"286 650 OFFCURVE",
"342 650 CURVE SMOOTH",
"368 650 OFFCURVE",
"395 645 OFFCURVE",
"421 637 CURVE",
"437 725 LINE",
"401 734 OFFCURVE",
"360 740 OFFCURVE",
"325 740 CURVE SMOOTH",
"213 740 OFFCURVE",
"158 679 OFFCURVE",
"158 555 CURVE SMOOTH",
"158 500 LINE",
"22 500 LINE",
"22 410 LINE",
"158 410 LINE",
"158 0 LINE"
);
}
);
width = 809;
},
{
layerId = "9E6B41AB-2970-4C41-8B35-4DBE0D296A43";
paths = (
{
closed = 1;
nodes = (
"333 0 LINE",
"333 360 LINE",
"535 360 LINE",
"535 0 LINE",
"733 0 LINE",
"733 360 LINE",
"878 360 LINE",
"878 500 LINE",
"733 500 LINE",
"733 520 LINE SMOOTH",
"733 582 OFFCURVE",
"745 600 OFFCURVE",
"788 600 CURVE SMOOTH",
"811 600 OFFCURVE",
"836 595 OFFCURVE",
"863 585 CURVE",
"888 725 LINE",
"843 734 OFFCURVE",
"792 740 OFFCURVE",
"753 740 CURVE SMOOTH",
"611 740 OFFCURVE",
"535 663 OFFCURVE",
"535 520 CURVE SMOOTH",
"535 500 LINE",
"333 500 LINE",
"333 520 LINE SMOOTH",
"333 582 OFFCURVE",
"345 600 OFFCURVE",
"388 600 CURVE SMOOTH",
"411 600 OFFCURVE",
"436 595 OFFCURVE",
"463 585 CURVE",
"488 725 LINE",
"443 734 OFFCURVE",
"392 740 OFFCURVE",
"353 740 CURVE SMOOTH",
"211 740 OFFCURVE",
"135 663 OFFCURVE",
"135 520 CURVE SMOOTH",
"135 500 LINE",
"18 500 LINE",
"18 360 LINE",
"135 360 LINE",
"135 0 LINE"
);
}
);
width = 906;
}
);
leftKerningGroup = f;
leftMetricsKey = f;
rightKerningGroup = f;
rightMetricsKey = f;
},
{
glyphname = f_f_i;
lastChange = "2020-01-06 11:01:28 +0000";
layers = (
{
layerId = "D65C9A1E-0FCA-4B2D-8EDF-9F36CA9182A1";
paths = (
{
closed = 1;
nodes = (
"203 0 LINE",
"203 480 LINE",
"483 480 LINE",
"483 0 LINE",
"503 0 LINE",
"503 480 LINE",
"783 480 LINE",
"783 0 LINE",
"803 0 LINE",
"803 500 LINE",
"503 500 LINE",
"503 590 LINE SMOOTH",
"503 668 OFFCURVE",
"551 703 OFFCURVE",
"660 703 CURVE SMOOTH",
"694 703 OFFCURVE",
"722 700 OFFCURVE",
"763 690 CURVE",
"763 650 LINE",
"823 650 LINE",
"823 710 LINE",
"763 710 LINE",
"721 720 OFFCURVE",
"692 723 OFFCURVE",
"660 723 CURVE SMOOTH",
"540 723 OFFCURVE",
"483 680 OFFCURVE",
"483 590 CURVE SMOOTH",
"483 500 LINE",
"203 500 LINE",
"203 590 LINE SMOOTH",
"203 681 OFFCURVE",
"236 720 OFFCURVE",
"311 720 CURVE SMOOTH",
"335 720 OFFCURVE",
"354 716 OFFCURVE",
"377 706 CURVE",
"385 725 LINE",
"358 736 OFFCURVE",
"336 740 OFFCURVE",
"311 740 CURVE SMOOTH",
"224 740 OFFCURVE",
"183 692 OFFCURVE",
"183 590 CURVE SMOOTH",
"183 500 LINE",
"25 500 LINE",
"25 480 LINE",
"183 480 LINE",
"183 0 LINE"
);
}
);
width = 917;
},
{
layerId = "9527F797-22C1-480E-A1FE-2CDBEBE1FD4C";
paths = (
{
closed = 1;
nodes = (
"268 0 LINE",
"268 410 LINE",
"508 410 LINE",
"508 0 LINE",
"618 0 LINE",
"618 410 LINE",
"858 410 LINE",
"858 0 LINE",
"968 0 LINE",
"968 500 LINE",
"618 500 LINE",
"618 555 LINE SMOOTH",
"618 621 OFFCURVE",
"653 650 OFFCURVE",
"734 650 CURVE SMOOTH",
"779 650 OFFCURVE",
"807 641 OFFCURVE",
"858 610 CURVE",
"858 610 LINE",
"968 610 LINE",
"968 720 LINE",
"858 720 LINE",
"810 730 OFFCURVE",
"759 735 OFFCURVE",
"717 735 CURVE SMOOTH",
"576 735 OFFCURVE",
"508 676 OFFCURVE",
"508 555 CURVE SMOOTH",
"508 500 LINE",
"268 500 LINE",
"268 555 LINE SMOOTH",
"268 627 OFFCURVE",
"286 650 OFFCURVE",
"342 650 CURVE SMOOTH",
"368 650 OFFCURVE",
"395 645 OFFCURVE",
"421 637 CURVE",
"437 725 LINE",
"401 734 OFFCURVE",
"360 740 OFFCURVE",
"325 740 CURVE SMOOTH",
"213 740 OFFCURVE",
"158 679 OFFCURVE",
"158 555 CURVE SMOOTH",
"158 500 LINE",
"22 500 LINE",
"22 410 LINE",
"158 410 LINE",
"158 0 LINE"
);
}
);
width = 1047;
},
{
layerId = "9E6B41AB-2970-4C41-8B35-4DBE0D296A43";
paths = (
{
closed = 1;
nodes = (
"333 0 LINE",
"333 360 LINE",
"535 360 LINE",
"535 0 LINE",
"733 0 LINE",
"733 360 LINE",
"935 360 LINE",
"935 0 LINE",
"1135 0 LINE",
"1135 500 LINE",
"733 500 LINE",
"733 520 LINE SMOOTH",
"733 578 OFFCURVE",
"756 600 OFFCURVE",
"818 600 CURVE SMOOTH",
"853 600 OFFCURVE",
"881 593 OFFCURVE",
"935 570 CURVE",
"935 570 LINE",
"1135 570 LINE",
"1135 730 LINE",
"935 730 LINE",
"897 735 OFFCURVE",
"825 740 OFFCURVE",
"782 740 CURVE SMOOTH",
"618 740 OFFCURVE",
"535 666 OFFCURVE",
"535 520 CURVE SMOOTH",
"535 500 LINE",
"333 500 LINE",
"333 520 LINE SMOOTH",
"333 582 OFFCURVE",
"345 600 OFFCURVE",
"388 600 CURVE SMOOTH",
"411 600 OFFCURVE",
"436 595 OFFCURVE",
"463 585 CURVE",
"488 725 LINE",
"443 734 OFFCURVE",
"392 740 OFFCURVE",
"353 740 CURVE SMOOTH",
"211 740 OFFCURVE",
"135 663 OFFCURVE",
"135 520 CURVE SMOOTH",
"135 500 LINE",
"18 500 LINE",
"18 360 LINE",
"135 360 LINE",
"135 0 LINE"
);
}
);
width = 1200;
},
{
associatedMasterId = "D65C9A1E-0FCA-4B2D-8EDF-9F36CA9182A1";
layerId = "291E914F-BD8A-43D6-84E5-2BD0EA988FD6";
name = "Regular {367}";
paths = (
{
closed = 1;
nodes = (
"246 0 LINE",
"246 433 LINE",
"500 433 LINE",
"500 0 LINE",
"580 0 LINE",
"580 433 LINE",
"833 433 LINE",
"833 0 LINE",
"913 0 LINE",
"913 500 LINE",
"580 500 LINE",
"581 567 LINE SMOOTH",
"581 640 OFFCURVE",
"617 668 OFFCURVE",
"709 668 CURVE SMOOTH",
"749 668 OFFCURVE",
"784 663 OFFCURVE",
"826 651 CURVE",
"826 623 LINE",
"920 623 LINE",
"920 717 LINE",
"826 717 LINE",
"780 727 OFFCURVE",
"737 731 OFFCURVE",
"698 731 CURVE SMOOTH",
"564 731 OFFCURVE",
"500 677 OFFCURVE",
"500 567 CURVE SMOOTH",
"500 500 LINE",
"246 500 LINE",
"246 567 LINE SMOOTH",
"246 645 OFFCURVE",
"269 673 OFFCURVE",
"332 673 CURVE SMOOTH",
"357 673 OFFCURVE",
"381 669 OFFCURVE",
"406 660 CURVE",
"420 725 LINE",
"387 735 OFFCURVE",
"352 740 OFFCURVE",
"320 740 CURVE SMOOTH",
"217 740 OFFCURVE",
"166 683 OFFCURVE",
"166 567 CURVE SMOOTH",
"166 500 LINE",
"22.997 500 LINE",
"23 433 LINE",
"166 433 LINE",
"166 0 LINE"
);
}
);
width = 1004;
}
);
leftKerningGroup = f;
leftMetricsKey = f;
rightKerningGroup = l;
rightMetricsKey = i;
},
{
glyphname = f_f_l;
lastChange = "2020-01-06 09:18:28 +0000";
layers = (
{
layerId = "D65C9A1E-0FCA-4B2D-8EDF-9F36CA9182A1";
paths = (
{
closed = 1;
nodes = (
"203 0 LINE",
"203 480 LINE",
"483 480 LINE",
"483 0 LINE",
"503 0 LINE",
"503 480 LINE",
"685 480 LINE",
"685 500 LINE",
"503 500 LINE",
"503 590 LINE SMOOTH",
"503 668 OFFCURVE",
"555 703 OFFCURVE",
"673 703 CURVE SMOOTH",
"710 703 OFFCURVE",
"740 700 OFFCURVE",
"783 689 CURVE",
"783 0 LINE",
"803 0 LINE",
"803 710 LINE",
"783 710 LINE",
"738 720 OFFCURVE",
"707 723 OFFCURVE",
"673 723 CURVE SMOOTH",
"544 723 OFFCURVE",
"483 680 OFFCURVE",
"483 590 CURVE SMOOTH",
"483 500 LINE",
"203 500 LINE",
"203 590 LINE SMOOTH",
"203 681 OFFCURVE",
"236 720 OFFCURVE",
"311 720 CURVE SMOOTH",
"335 720 OFFCURVE",
"354 716 OFFCURVE",
"377 706 CURVE",
"385 725 LINE",
"358 736 OFFCURVE",
"336 740 OFFCURVE",
"311 740 CURVE SMOOTH",
"224 740 OFFCURVE",
"183 692 OFFCURVE",
"183 590 CURVE SMOOTH",
"183 500 LINE",
"25 500 LINE",
"25 480 LINE",
"183 480 LINE",
"183 0 LINE"
);
}
);
width = 897;
},
{
layerId = "9527F797-22C1-480E-A1FE-2CDBEBE1FD4C";
paths = (
{
closed = 1;
nodes = (
"268 0 LINE",
"268 410 LINE",
"508 410 LINE",
"508 0 LINE",
"618 0 LINE",
"618 410 LINE",
"782 410 LINE",
"782 500 LINE",
"618 500 LINE",
"618 555 LINE SMOOTH",
"618 621 OFFCURVE",
"653 650 OFFCURVE",
"734 650 CURVE SMOOTH",
"779 650 OFFCURVE",
"807 641 OFFCURVE",
"858 610 CURVE",
"858 0 LINE",
"968 0 LINE",
"968 720 LINE",
"858 720 LINE",
"813 729 OFFCURVE",
"760 735 OFFCURVE",
"717 735 CURVE SMOOTH",
"576 735 OFFCURVE",
"508 677 OFFCURVE",
"508 555 CURVE SMOOTH",
"508 500 LINE",
"268 500 LINE",
"268 555 LINE SMOOTH",
"268 627 OFFCURVE",
"286 650 OFFCURVE",
"342 650 CURVE SMOOTH",
"368 650 OFFCURVE",
"395 645 OFFCURVE",
"421 637 CURVE",
"437 725 LINE",
"401 734 OFFCURVE",
"360 740 OFFCURVE",
"325 740 CURVE SMOOTH",
"213 740 OFFCURVE",
"158 679 OFFCURVE",
"158 555 CURVE SMOOTH",
"158 500 LINE",
"22 500 LINE",
"22 410 LINE",
"158 410 LINE",
"158 0 LINE"
);
}
);
width = 1047;
},
{
layerId = "9E6B41AB-2970-4C41-8B35-4DBE0D296A43";
paths = (
{
closed = 1;
nodes = (
"333 0 LINE",
"333 360 LINE",
"535 360 LINE",
"535 0 LINE",
"733 0 LINE",
"733 360 LINE",
"878 360 LINE",
"878 500 LINE",
"733 500 LINE",
"733 520 LINE SMOOTH",
"733 578 OFFCURVE",
"756 600 OFFCURVE",
"818 600 CURVE SMOOTH",
"853 600 OFFCURVE",
"881 593 OFFCURVE",
"935 570 CURVE",
"935 0 LINE",
"1135 0 LINE",
"1135 730 LINE",
"935 730 LINE",
"897 735 OFFCURVE",
"825 740 OFFCURVE",
"782 740 CURVE SMOOTH",
"618 740 OFFCURVE",
"535 666 OFFCURVE",
"535 520 CURVE SMOOTH",
"535 500 LINE",
"333 500 LINE",
"333 520 LINE SMOOTH",
"333 582 OFFCURVE",
"345 600 OFFCURVE",
"388 600 CURVE SMOOTH",
"411 600 OFFCURVE",
"436 595 OFFCURVE",
"463 585 CURVE",
"488 725 LINE",
"443 734 OFFCURVE",
"392 740 OFFCURVE",
"353 740 CURVE SMOOTH",
"211 740 OFFCURVE",
"135 663 OFFCURVE",
"135 520 CURVE SMOOTH",
"135 500 LINE",
"18 500 LINE",
"18 360 LINE",
"135 360 LINE",
"135 0 LINE"
);
}
);
width = 1200;
}
);
leftKerningGroup = f;
leftMetricsKey = f;
rightKerningGroup = l;
rightMetricsKey = l;
},
{
glyphname = fi;
lastChange = "2020-01-06 11:01:13 +0000";
layers = (
{
layerId = "D65C9A1E-0FCA-4B2D-8EDF-9F36CA9182A1";
paths = (
{
closed = 1;
nodes = (
"203 0 LINE",
"203 480 LINE",
"483 480 LINE",
"483 0 LINE",
"503 0 LINE",
"503 500 LINE",
"203 500 LINE",
"203 590 LINE SMOOTH",
"203 668 OFFCURVE",
"251 703 OFFCURVE",
"360 703 CURVE SMOOTH",
"394 703 OFFCURVE",
"422 700 OFFCURVE",
"463 690 CURVE",
"463 650 LINE",
"523 650 LINE",
"523 710 LINE",
"463 710 LINE",
"421 720 OFFCURVE",
"392 723 OFFCURVE",
"360 723 CURVE SMOOTH",
"240 723 OFFCURVE",
"183 680 OFFCURVE",
"183 590 CURVE SMOOTH",
"183 500 LINE",
"25 500 LINE",
"25 480 LINE",
"183 480 LINE",
"183 0 LINE"
);
}
);
width = 608;
},
{
layerId = "9527F797-22C1-480E-A1FE-2CDBEBE1FD4C";
paths = (
{
closed = 1;
nodes = (
"268 0 LINE",
"268 410 LINE",
"508 410 LINE",
"508 0 LINE",
"618 0 LINE",
"618 500 LINE",
"268 500 LINE",
"268 555 LINE SMOOTH",
"268 621 OFFCURVE",
"303 650 OFFCURVE",
"384 650 CURVE SMOOTH",
"429 650 OFFCURVE",
"457 641 OFFCURVE",
"508 610 CURVE",
"508 610 LINE",
"618 610 LINE",
"618 720 LINE",
"508 720 LINE",
"460 730 OFFCURVE",
"409 735 OFFCURVE",
"367 735 CURVE SMOOTH",
"226 735 OFFCURVE",
"158 676 OFFCURVE",
"158 555 CURVE SMOOTH",
"158 500 LINE",
"22 500 LINE",
"22 410 LINE",
"158 410 LINE",
"158 0 LINE"
);
}
);
width = 690;
},
{
background = {
paths = (
{
closed = 1;
nodes = (
"333 0 LINE",
"333 365 LINE",
"503 365 LINE",
"503 0 LINE",
"703 0 LINE",
"703 500 LINE",
"333 500 LINE",
"333 520 LINE SMOOTH",
"333 580 OFFCURVE",
"350 600 OFFCURVE",
"400 600 CURVE SMOOTH",
"435 600 OFFCURVE",
"470 590 OFFCURVE",
"503 570 CURVE",
"503 570 LINE",
"703 570 LINE",
"703 730 LINE",
"503 730 LINE",
"452 736 OFFCURVE",
"398 740 OFFCURVE",
"365 740 CURVE SMOOTH",
"217 740 OFFCURVE",
"138 663 OFFCURVE",
"138 520 CURVE SMOOTH",
"138 500 LINE",
"23 500 LINE",
"23 365 LINE",
"138 365 LINE",
"138 0 LINE"
);
}
);
};
layerId = "9E6B41AB-2970-4C41-8B35-4DBE0D296A43";
paths = (
{
closed = 1;
nodes = (
"333 0 LINE",
"333 360 LINE",
"535 360 LINE",
"535 0 LINE",
"735 0 LINE",
"735 500 LINE",
"333 500 LINE",
"333 520 LINE SMOOTH",
"333 578 OFFCURVE",
"356 600 OFFCURVE",
"418 600 CURVE SMOOTH",
"453 600 OFFCURVE",
"481 593 OFFCURVE",
"535 570 CURVE",
"535 570 LINE",
"735 570 LINE",
"735 730 LINE",
"535 730 LINE",
"497 735 OFFCURVE",
"425 740 OFFCURVE",
"382 740 CURVE SMOOTH",
"218 740 OFFCURVE",
"135 666 OFFCURVE",
"135 520 CURVE SMOOTH",
"135 500 LINE",
"18 500 LINE",
"18 360 LINE",
"135 360 LINE",
"135 0 LINE"
);
}
);
width = 794;
},
{
associatedMasterId = "D65C9A1E-0FCA-4B2D-8EDF-9F36CA9182A1";
layerId = "FAF1E4EF-6018-472C-BED6-44C6E63249D7";
name = "Regular {367}";
paths = (
{
closed = 1;
nodes = (
"246 0 LINE",
"246 433 LINE",
"500 433 LINE",
"500 0 LINE",
"580 0 LINE",
"580 500 LINE",
"246 500 LINE",
"246 567 LINE SMOOTH",
"246 641 OFFCURVE",
"281 668 OFFCURVE",
"376 668 CURVE SMOOTH",
"416 668 OFFCURVE",
"451 663 OFFCURVE",
"493 651 CURVE",
"493 623 LINE",
"586 623 LINE",
"586 717 LINE",
"493 717 LINE",
"447 727 OFFCURVE",
"403 731 OFFCURVE",
"365 731 CURVE SMOOTH",
"231 731 OFFCURVE",
"166 677 OFFCURVE",
"166 567 CURVE SMOOTH",
"166 500 LINE",
"22.997 500 LINE",
"23 433 LINE",
"166 433 LINE",
"166 0 LINE"
);
}
);
width = 662;
}
);
leftKerningGroup = f;
leftMetricsKey = f;
rightKerningGroup = l;
rightMetricsKey = "=d";
unicode = FB01;
},
{
glyphname = fl;
lastChange = "2020-01-06 09:15:41 +0000";
layers = (
{
layerId = "D65C9A1E-0FCA-4B2D-8EDF-9F36CA9182A1";
paths = (
{
closed = 1;
nodes = (
"203 0 LINE",
"203 480 LINE",
"385 480 LINE",
"385 500 LINE",
"203 500 LINE",
"203 590 LINE SMOOTH",
"203 668 OFFCURVE",
"255 703 OFFCURVE",
"373 703 CURVE SMOOTH",
"410 703 OFFCURVE",
"440 700 OFFCURVE",
"483 689 CURVE",
"483 0 LINE",
"503 0 LINE",
"503 710 LINE",
"483 710 LINE",
"438 720 OFFCURVE",
"407 723 OFFCURVE",
"373 723 CURVE SMOOTH",
"244 723 OFFCURVE",
"183 680 OFFCURVE",
"183 590 CURVE SMOOTH",
"183 500 LINE",
"25 500 LINE",
"25 480 LINE",
"183 480 LINE",
"183 0 LINE"
);
}
);
width = 597;
},
{
layerId = "9527F797-22C1-480E-A1FE-2CDBEBE1FD4C";
paths = (
{
closed = 1;
nodes = (
"268 0 LINE",
"268 410 LINE",
"432 410 LINE",
"432 500 LINE",
"268 500 LINE",
"268 555 LINE SMOOTH",
"268 621 OFFCURVE",
"303 650 OFFCURVE",
"384 650 CURVE SMOOTH",
"429 650 OFFCURVE",
"457 641 OFFCURVE",
"508 610 CURVE",
"508 0 LINE",
"618 0 LINE",
"618 720 LINE",
"508 720 LINE",
"463 729 OFFCURVE",
"410 735 OFFCURVE",
"367 735 CURVE SMOOTH",
"226 735 OFFCURVE",
"158 677 OFFCURVE",
"158 555 CURVE SMOOTH",
"158 500 LINE",
"22 500 LINE",
"22 410 LINE",
"158 410 LINE",
"158 0 LINE"
);
}
);
width = 697;
},
{
layerId = "9E6B41AB-2970-4C41-8B35-4DBE0D296A43";
paths = (
{
closed = 1;
nodes = (
"333 0 LINE",
"333 360 LINE",
"478 360 LINE",
"478 500 LINE",
"333 500 LINE",
"333 520 LINE SMOOTH",
"333 578 OFFCURVE",
"356 600 OFFCURVE",
"418 600 CURVE SMOOTH",
"453 600 OFFCURVE",
"481 593 OFFCURVE",
"535 570 CURVE",
"535 0 LINE",
"735 0 LINE",
"735 730 LINE",
"535 730 LINE",
"497 735 OFFCURVE",
"425 740 OFFCURVE",
"382 740 CURVE SMOOTH",
"218 740 OFFCURVE",
"135 666 OFFCURVE",
"135 520 CURVE SMOOTH",
"135 500 LINE",
"18 500 LINE",
"18 360 LINE",
"135 360 LINE",
"135 0 LINE"
);
}
);
width = 800;
}
);
leftKerningGroup = f;
leftMetricsKey = f;
rightKerningGroup = l;
rightMetricsKey = l;
unicode = FB02;
},
{
color = 3;
glyphname = ordfeminine;
lastChange = "2020-01-07 07:05:39 +0000";
layers = (
{
layerId = "D65C9A1E-0FCA-4B2D-8EDF-9F36CA9182A1";
paths = (
{
closed = 1;
nodes = (
"351 314 LINE",
"351 578 LINE SMOOTH",
"351 693 OFFCURVE",
"311 738 OFFCURVE",
"209 738 CURVE SMOOTH",
"153 738 OFFCURVE",
"98 724 OFFCURVE",
"47 698 CURVE",
"56 680 LINE",
"105 705 OFFCURVE",
"157 718 OFFCURVE",
"209 718 CURVE SMOOTH",
"299 718 OFFCURVE",
"331 682 OFFCURVE",
"331 578 CURVE SMOOTH",
"331 397 LINE",
"331 397 LINE",
"331 314 LINE"
);
},
{
closed = 1;
nodes = (
"240 306 OFFCURVE",
"299 342 OFFCURVE",
"329 397 CURVE",
"343 397 LINE",
"343 481 LINE",
"331 481 LINE",
"331 392 OFFCURVE",
"262 326 OFFCURVE",
"169 326 CURVE SMOOTH",
"97 326 OFFCURVE",
"51 365 OFFCURVE",
"51 426 CURVE SMOOTH",
"51 508 OFFCURVE",
"134 554 OFFCURVE",
"282 554 CURVE SMOOTH",
"341 554 LINE",
"341 574 LINE",
"282 574 LINE SMOOTH",
"123 574 OFFCURVE",
"31 521 OFFCURVE",
"31 426 CURVE SMOOTH",
"31 354 OFFCURVE",
"86 306 OFFCURVE",
"169 306 CURVE SMOOTH"
);
}
);
width = 420;
},
{
layerId = "9527F797-22C1-480E-A1FE-2CDBEBE1FD4C";
paths = (
{
closed = 1;
nodes = (
"388 314 LINE",
"388 574 LINE SMOOTH",
"388 691 OFFCURVE",
"340 738 OFFCURVE",
"221 738 CURVE SMOOTH",
"159 738 OFFCURVE",
"99 725 OFFCURVE",
"44 700 CURVE",
"59 625 LINE",
"106 649 OFFCURVE",
"158 662 OFFCURVE",
"205 662 CURVE SMOOTH",
"266 662 OFFCURVE",
"285 640 OFFCURVE",
"285 568 CURVE SMOOTH",
"285 361 LINE",
"288 361 LINE",
"289 314 LINE"
);
},
{
closed = 1;
nodes = (
"212 306 OFFCURVE",
"260 327 OFFCURVE",
"286 361 CURVE",
"345 361 LINE",
"345 472 LINE",
"285 473 LINE",
"285 421 OFFCURVE",
"245 385 OFFCURVE",
"188 385 CURVE SMOOTH",
"144 385 OFFCURVE",
"117 406 OFFCURVE",
"117 442 CURVE SMOOTH",
"117 489 OFFCURVE",
"163 512 OFFCURVE",
"256 512 CURVE SMOOTH",
"344 512 LINE",
"344 583 LINE",
"266 583 LINE SMOOTH",
"113 583 OFFCURVE",
"26 529 OFFCURVE",
"26 433 CURVE SMOOTH",
"26 358 OFFCURVE",
"81 306 OFFCURVE",
"161 306 CURVE SMOOTH"
);
}
);
width = 447;
},
{
layerId = "9E6B41AB-2970-4C41-8B35-4DBE0D296A43";
paths = (
{
closed = 1;
nodes = (
"426 314 LINE",
"426 570 LINE SMOOTH",
"426 689 OFFCURVE",
"369 738 OFFCURVE",
"234 738 CURVE SMOOTH",
"166 738 OFFCURVE",
"100 726 OFFCURVE",
"42 702 CURVE",
"62 590 LINE",
"111 613 OFFCURVE",
"166 626 OFFCURVE",
"213 626 CURVE SMOOTH",
"250 626 OFFCURVE",
"259 617 OFFCURVE",
"259 578 CURVE SMOOTH",
"259 353 LINE",
"266 353 LINE",
"267 314 LINE"
);
},
{
closed = 1;
nodes = (
"197 306 OFFCURVE",
"236 323 OFFCURVE",
"264 353 CURVE",
"348 353 LINE",
"348 470 LINE",
"259 473 LINE",
"259 442 OFFCURVE",
"238 424 OFFCURVE",
"202 424 CURVE SMOOTH",
"176 424 OFFCURVE",
"163 434 OFFCURVE",
"163 455 CURVE SMOOTH",
"163 483 OFFCURVE",
"185 494 OFFCURVE",
"241 494 CURVE SMOOTH",
"348 494 LINE",
"348 588 LINE",
"250 588 LINE SMOOTH",
"104 588 OFFCURVE",
"22 534 OFFCURVE",
"22 439 CURVE SMOOTH",
"22 361 OFFCURVE",
"76 306 OFFCURVE",
"154 306 CURVE SMOOTH"
);
}
);
width = 474;
},
{
associatedMasterId = "D65C9A1E-0FCA-4B2D-8EDF-9F36CA9182A1";
layerId = "02CE7075-E2BA-495E-B00B-7DF72736FD8B";
name = "Light {232}";
paths = (
{
closed = 1;
nodes = (
"363 314 LINE",
"363 577 LINE SMOOTH",
"363 692 OFFCURVE",
"320 738 OFFCURVE",
"212 738 CURVE SMOOTH",
"154 738 OFFCURVE",
"98 724 OFFCURVE",
"45 699 CURVE",
"56 662 LINE",
"105 687 OFFCURVE",
"157 700 OFFCURVE",
"207 700 CURVE SMOOTH",
"287 700 OFFCURVE",
"315 668 OFFCURVE",
"315 575 CURVE SMOOTH",
"315 375 LINE",
"316 375 LINE",
"316 314 LINE"
);
},
{
closed = 1;
nodes = (
"227 306 OFFCURVE",
"286 333 OFFCURVE",
"314 375 CURVE",
"343 375 LINE",
"343 478 LINE",
"315 478 LINE",
"315 402 OFFCURVE",
"256 345 OFFCURVE",
"175 345 CURVE SMOOTH",
"112 345 OFFCURVE",
"72 379 OFFCURVE",
"72 431 CURVE SMOOTH",
"72 502 OFFCURVE",
"143 540 OFFCURVE",
"273 540 CURVE SMOOTH",
"341 540 LINE",
"341 577 LINE",
"276 577 LINE SMOOTH",
"119 577 OFFCURVE",
"29 524 OFFCURVE",
"29 428 CURVE SMOOTH",
"29 355 OFFCURVE",
"84 306 OFFCURVE",
"166 306 CURVE SMOOTH"
);
}
);
width = 429;
}
);
leftKerningGroup = asterisk;
leftMetricsKey = "=a*.9";
rightKerningGroup = asterisk;
rightMetricsKey = "=a*.9";
unicode = 00AA;
},
{
color = 3;
glyphname = ordmasculine;
lastChange = "2020-01-07 06:53:19 +0000";
layers = (
{
layerId = "D65C9A1E-0FCA-4B2D-8EDF-9F36CA9182A1";
paths = (
{
closed = 1;
nodes = (
"338 306 OFFCURVE",
"407 388 OFFCURVE",
"407 522 CURVE SMOOTH",
"407 656 OFFCURVE",
"338 738 OFFCURVE",
"223 738 CURVE SMOOTH",
"109 738 OFFCURVE",
"39 656 OFFCURVE",
"39 522 CURVE SMOOTH",
"39 388 OFFCURVE",
"109 306 OFFCURVE",
"223 306 CURVE SMOOTH"
);
},
{
closed = 1;
nodes = (
"120 326 OFFCURVE",
"59 398 OFFCURVE",
"59 522 CURVE SMOOTH",
"59 646 OFFCURVE",
"120 718 OFFCURVE",
"223 718 CURVE SMOOTH",
"326 718 OFFCURVE",
"387 646 OFFCURVE",
"387 522 CURVE SMOOTH",
"387 398 OFFCURVE",
"326 326 OFFCURVE",
"223 326 CURVE SMOOTH"
);
}
);
width = 446;
},
{
layerId = "9527F797-22C1-480E-A1FE-2CDBEBE1FD4C";
paths = (
{
closed = 1;
nodes = (
"363 306 OFFCURVE",
"436 385 OFFCURVE",
"436 522 CURVE SMOOTH",
"436 660 OFFCURVE",
"363 738 OFFCURVE",
"234 738 CURVE SMOOTH",
"105 738 OFFCURVE",
"32 660 OFFCURVE",
"32 522 CURVE SMOOTH",
"32 385 OFFCURVE",
"105 306 OFFCURVE",
"234 306 CURVE SMOOTH"
);
},
{
closed = 1;
nodes = (
"170 387 OFFCURVE",
"136 433 OFFCURVE",
"136 522 CURVE SMOOTH",
"136 611 OFFCURVE",
"170 657 OFFCURVE",
"234 657 CURVE SMOOTH",
"299 657 OFFCURVE",
"333 611 OFFCURVE",
"333 522 CURVE SMOOTH",
"333 433 OFFCURVE",
"299 387 OFFCURVE",
"234 387 CURVE SMOOTH"
);
}
);
width = 468;
},
{
layerId = "9E6B41AB-2970-4C41-8B35-4DBE0D296A43";
paths = (
{
closed = 1;
nodes = (
"390 306 OFFCURVE",
"467 381 OFFCURVE",
"467 522 CURVE SMOOTH",
"467 663 OFFCURVE",
"390 738 OFFCURVE",
"247 738 CURVE SMOOTH",
"103 738 OFFCURVE",
"27 663 OFFCURVE",
"27 522 CURVE SMOOTH",
"27 381 OFFCURVE",
"103 306 OFFCURVE",
"247 306 CURVE SMOOTH"
);
},
{
closed = 1;
nodes = (
"211 428 OFFCURVE",
"194 456 OFFCURVE",
"194 522 CURVE SMOOTH",
"194 588 OFFCURVE",
"211 616 OFFCURVE",
"247 616 CURVE SMOOTH",
"283 616 OFFCURVE",
"300 588 OFFCURVE",
"300 522 CURVE SMOOTH",
"300 456 OFFCURVE",
"283 428 OFFCURVE",
"247 428 CURVE SMOOTH"
);
}
);
width = 494;
}
);
leftKerningGroup = asterisk;
leftMetricsKey = "=o*.9";
rightKerningGroup = asterisk;
rightMetricsKey = "=|";
unicode = 00BA;
},
{
glyphname = zero.lf;
lastChange = "2019-12-08 14:05:28 +0000";
layers = (
{
layerId = "D65C9A1E-0FCA-4B2D-8EDF-9F36CA9182A1";
paths = (
{
closed = 1;
nodes = (
"464 -10 OFFCURVE",
"550 120 OFFCURVE",
"550 365 CURVE SMOOTH",
"550 610 OFFCURVE",
"464 740 OFFCURVE",
"300 740 CURVE SMOOTH",
"136 740 OFFCURVE",
"50 610 OFFCURVE",
"50 365 CURVE SMOOTH",
"50 120 OFFCURVE",
"136 -10 OFFCURVE",
"300 -10 CURVE SMOOTH"
);
},
{
closed = 1;
nodes = (
"148 10 OFFCURVE",
"70 130 OFFCURVE",
"70 365 CURVE SMOOTH",
"70 600 OFFCURVE",
"148 720 OFFCURVE",
"300 720 CURVE SMOOTH",
"452 720 OFFCURVE",
"530 600 OFFCURVE",
"530 365 CURVE SMOOTH",
"530 130 OFFCURVE",
"452 10 OFFCURVE",
"300 10 CURVE SMOOTH"
);
}
);
width = 600;
},
{
layerId = "9E6B41AB-2970-4C41-8B35-4DBE0D296A43";
paths = (
{
closed = 1;
nodes = (
"538 -10 OFFCURVE",
"630 105 OFFCURVE",
"630 365 CURVE SMOOTH",
"630 625 OFFCURVE",
"538 740 OFFCURVE",
"330 740 CURVE SMOOTH",
"122 740 OFFCURVE",
"30 625 OFFCURVE",
"30 365 CURVE SMOOTH",
"30 105 OFFCURVE",
"122 -10 OFFCURVE",
"330 -10 CURVE SMOOTH"
);
},
{
closed = 1;
nodes = (
"261 160 OFFCURVE",
"235 217 OFFCURVE",
"235 365 CURVE SMOOTH",
"235 513 OFFCURVE",
"261 570 OFFCURVE",
"330 570 CURVE SMOOTH",
"399 570 OFFCURVE",
"425 513 OFFCURVE",
"425 365 CURVE SMOOTH",
"425 217 OFFCURVE",
"399 160 OFFCURVE",
"330 160 CURVE SMOOTH"
);
}
);
width = 660;
},
{
layerId = "9527F797-22C1-480E-A1FE-2CDBEBE1FD4C";
paths = (
{
closed = 1;
nodes = (
"501 -10 OFFCURVE",
"590 112 OFFCURVE",
"590 365 CURVE SMOOTH",
"590 618 OFFCURVE",
"501 740 OFFCURVE",
"315 740 CURVE SMOOTH",
"129 740 OFFCURVE",
"40 618 OFFCURVE",
"40 365 CURVE SMOOTH",
"40 112 OFFCURVE",
"129 -10 OFFCURVE",
"315 -10 CURVE SMOOTH"
);
},
{
closed = 1;
nodes = (
"204 90 OFFCURVE",
"153 177 OFFCURVE",
"153 365 CURVE SMOOTH",
"153 553 OFFCURVE",
"204 640 OFFCURVE",
"315 640 CURVE SMOOTH",
"426 640 OFFCURVE",
"477 553 OFFCURVE",
"477 365 CURVE SMOOTH",
"477 177 OFFCURVE",
"426 90 OFFCURVE",
"315 90 CURVE SMOOTH"
);
}
);
width = 630;
}
);
},
{
glyphname = one.lf;
lastChange = "2019-12-18 06:27:42 +0000";
layers = (
{
layerId = "D65C9A1E-0FCA-4B2D-8EDF-9F36CA9182A1";
paths = (
{
closed = 1;
nodes = (
"355 0 LINE",
"355 730 LINE",
"335 730 LINE",
"65 480 LINE",
"79 465 LINE",
"333 702 LINE",
"335 702 LINE",
"335 0 LINE"
);
}
);
width = 600;
},
{
layerId = "9E6B41AB-2970-4C41-8B35-4DBE0D296A43";
paths = (
{
closed = 1;
nodes = (
"500 0 LINE",
"500 730 LINE",
"290 730 LINE",
"30 483 LINE",
"115 323 LINE",
"288 484 LINE",
"290 484 LINE",
"290 0 LINE"
);
}
);
width = 660;
},
{
layerId = "9527F797-22C1-480E-A1FE-2CDBEBE1FD4C";
paths = (
{
closed = 1;
nodes = (
"428 0 LINE",
"428 730 LINE",
"313 730 LINE",
"48 482 LINE",
"98 387 LINE",
"311 586 LINE",
"313 586 LINE",
"313 0 LINE"
);
}
);
width = 630;
}
);
},
{
glyphname = two.lf;
lastChange = "2019-12-18 07:40:58 +0000";
layers = (
{
layerId = "D65C9A1E-0FCA-4B2D-8EDF-9F36CA9182A1";
paths = (
{
closed = 1;
nodes = (
"505 0 LINE",
"505 20 LINE",
"105 20 LINE",
"105 22 LINE",
"398 281 OFFCURVE",
"496 409 OFFCURVE",
"496 540 CURVE SMOOTH",
"496 660 OFFCURVE",
"414 740 OFFCURVE",
"290 740 CURVE SMOOTH",
"213 740 OFFCURVE",
"126 708 OFFCURVE",
"65 660 CURVE",
"77 644 LINE",
"134 690 OFFCURVE",
"217 720 OFFCURVE",
"290 720 CURVE SMOOTH",
"403 720 OFFCURVE",
"476 649 OFFCURVE",
"476 540 CURVE SMOOTH",
"476 414 OFFCURVE",
"377 286 OFFCURVE",
"75 20 CURVE",
"75 0 LINE"
);
}
);
width = 600;
},
{
layerId = "9E6B41AB-2970-4C41-8B35-4DBE0D296A43";
paths = (
{
closed = 1;
nodes = (
"590 0 LINE",
"590 165 LINE",
"340 165 LINE",
"340 167 LINE",
"502 276 OFFCURVE",
"585 395 OFFCURVE",
"585 520 CURVE SMOOTH",
"585 656 OFFCURVE",
"485 740 OFFCURVE",
"325 740 CURVE SMOOTH",
"225 740 OFFCURVE",
"118 708 OFFCURVE",
"50 660 CURVE",
"100 495 LINE",
"185 548 OFFCURVE",
"243 570 OFFCURVE",
"295 570 CURVE SMOOTH",
"350 570 OFFCURVE",
"380 545 OFFCURVE",
"380 500 CURVE SMOOTH",
"380 422 OFFCURVE",
"291 326 OFFCURVE",
"70 165 CURVE",
"70 0 LINE"
);
}
);
width = 660;
},
{
layerId = "9527F797-22C1-480E-A1FE-2CDBEBE1FD4C";
paths = (
{
closed = 1;
nodes = (
"548 0 LINE",
"548 100 LINE",
"239 100 LINE",
"239 102 LINE",
"455 284 OFFCURVE",
"541 405 OFFCURVE",
"541 530 CURVE SMOOTH",
"541 658 OFFCURVE",
"450 740 OFFCURVE",
"308 740 CURVE SMOOTH",
"218 740 OFFCURVE",
"120 708 OFFCURVE",
"56 659 CURVE",
"96 564 LINE",
"167 615 OFFCURVE",
"232 640 OFFCURVE",
"293 640 CURVE SMOOTH",
"376 640 OFFCURVE",
"428 594 OFFCURVE",
"428 520 CURVE SMOOTH",
"428 422 OFFCURVE",
"336 313 OFFCURVE",
"73 100 CURVE",
"73 0 LINE"
);
}
);
width = 630;
}
);
},
{
glyphname = three.lf;
lastChange = "2019-12-18 07:45:47 +0000";
layers = (
{
layerId = "D65C9A1E-0FCA-4B2D-8EDF-9F36CA9182A1";
paths = (
{
closed = 1;
nodes = (
"424 -10 OFFCURVE",
"510 71 OFFCURVE",
"510 215 CURVE SMOOTH",
"510 354 OFFCURVE",
"430 420 OFFCURVE",
"263 420 CURVE SMOOTH",
"211 420 LINE",
"211 422 LINE",
"500 710 LINE",
"500 730 LINE",
"85 730 LINE",
"85 710 LINE",
"471 710 LINE",
"471 708 LINE",
"183 420 LINE",
"183 400 LINE",
"263 400 LINE SMOOTH",
"419 400 OFFCURVE",
"490 342 OFFCURVE",
"490 215 CURVE SMOOTH",
"490 82 OFFCURVE",
"413 10 OFFCURVE",
"270 10 CURVE SMOOTH",
"202 10 OFFCURVE",
"145 26 OFFCURVE",
"90 61 CURVE",
"79 44 LINE",
"138 7 OFFCURVE",
"199 -10 OFFCURVE",
"270 -10 CURVE SMOOTH"
);
}
);
width = 600;
},
{
layerId = "9E6B41AB-2970-4C41-8B35-4DBE0D296A43";
paths = (
{
closed = 1;
nodes = (
"484 -10 OFFCURVE",
"585 77 OFFCURVE",
"585 230 CURVE SMOOTH",
"585 355 OFFCURVE",
"516 430 OFFCURVE",
"400 430 CURVE SMOOTH",
"390 430 LINE",
"390 432 LINE",
"575 565 LINE",
"575 730 LINE",
"70 730 LINE",
"70 565 LINE",
"341 565 LINE",
"341 563 LINE",
"170 440 LINE",
"170 295 LINE",
"210 295 LINE SMOOTH",
"341 295 OFFCURVE",
"380 279 OFFCURVE",
"380 225 CURVE SMOOTH",
"380 177 OFFCURVE",
"350 155 OFFCURVE",
"285 155 CURVE SMOOTH",
"230 155 OFFCURVE",
"178 170 OFFCURVE",
"104 207 CURVE",
"55 50 LINE",
"132 11 OFFCURVE",
"219 -10 OFFCURVE",
"305 -10 CURVE SMOOTH"
);
}
);
width = 660;
},
{
layerId = "9527F797-22C1-480E-A1FE-2CDBEBE1FD4C";
paths = (
{
closed = 1;
nodes = (
"453 -10 OFFCURVE",
"548 75 OFFCURVE",
"548 225 CURVE SMOOTH",
"548 362 OFFCURVE",
"472 435 OFFCURVE",
"332 435 CURVE SMOOTH",
"325 435 LINE",
"325 437 LINE",
"538 631 LINE",
"538 730 LINE",
"78 730 LINE",
"78 632 LINE",
"389 632 LINE",
"389 630 LINE",
"177 436 LINE",
"177 340 LINE",
"237 340 LINE SMOOTH",
"381 340 OFFCURVE",
"435 307 OFFCURVE",
"435 223 CURVE SMOOTH",
"435 135 OFFCURVE",
"379 88 OFFCURVE",
"273 88 CURVE SMOOTH",
"215 88 OFFCURVE",
"160 103 OFFCURVE",
"102 136 CURVE",
"65 49 LINE",
"130 10 OFFCURVE",
"202 -10 OFFCURVE",
"283 -10 CURVE SMOOTH"
);
}
);
width = 630;
}
);
},
{
glyphname = four.lf;
lastChange = "2019-12-08 14:15:14 +0000";
layers = (
{
layerId = "D65C9A1E-0FCA-4B2D-8EDF-9F36CA9182A1";
paths = (
{
closed = 1;
nodes = (
"415 0 LINE",
"415 190 LINE",
"555 190 LINE",
"555 210 LINE",
"415 210 LINE",
"415 730 LINE",
"395 730 LINE",
"15 210 LINE",
"15 190 LINE",
"395 190 LINE",
"395 0 LINE"
);
},
{
closed = 1;
nodes = (
"40 212 LINE",
"393 696 LINE",
"395 696 LINE",
"395 210 LINE",
"40 210 LINE"
);
}
);
width = 600;
},
{
layerId = "9E6B41AB-2970-4C41-8B35-4DBE0D296A43";
paths = (
{
closed = 1;
nodes = (
"535 0 LINE",
"535 120 LINE",
"625 120 LINE",
"625 285 LINE",
"535 285 LINE",
"535 730 LINE",
"335 730 LINE",
"15 285 LINE",
"15 120 LINE",
"335 120 LINE",
"335 0 LINE"
);
},
{
closed = 1;
nodes = (
"196 277 LINE",
"343 483 LINE",
"345 483 LINE",
"345 275 LINE",
"196 275 LINE"
);
}
);
width = 660;
},
{
layerId = "9527F797-22C1-480E-A1FE-2CDBEBE1FD4C";
paths = (
{
closed = 1;
nodes = (
"475 0 LINE",
"475 153 LINE",
"590 153 LINE",
"590 253 LINE",
"475 253 LINE",
"475 730 LINE",
"365 730 LINE",
"15 253 LINE",
"15 153 LINE",
"365 153 LINE",
"365 0 LINE"
);
},
{
closed = 1;
nodes = (
"145 255 LINE",
"363 553 LINE",
"365 553 LINE",
"365 253 LINE",
"145 253 LINE"
);
}
);
width = 630;
}
);
},
{
glyphname = five.lf;
lastChange = "2019-12-08 14:25:39 +0000";
layers = (
{
layerId = "D65C9A1E-0FCA-4B2D-8EDF-9F36CA9182A1";
paths = (
{
closed = 1;
nodes = (
"420 -10 OFFCURVE",
"515 83 OFFCURVE",
"515 230 CURVE SMOOTH",
"515 368 OFFCURVE",
"430 445 OFFCURVE",
"280 445 CURVE SMOOTH",
"219 445 OFFCURVE",
"175 432 OFFCURVE",
"129 400 CURVE",
"127 400 LINE",
"150 710 LINE",
"485 710 LINE",
"485 730 LINE",
"131 730 LINE",
"105 375 LINE",
"126 375 LINE",
"173 411 OFFCURVE",
"217 425 OFFCURVE",
"280 425 CURVE SMOOTH",
"419 425 OFFCURVE",
"495 357 OFFCURVE",
"495 230 CURVE SMOOTH",
"495 94 OFFCURVE",
"409 10 OFFCURVE",
"270 10 CURVE SMOOTH",
"206 10 OFFCURVE",
"145 28 OFFCURVE",
"96 62 CURVE",
"85 45 LINE",
"136 10 OFFCURVE",
"203 -10 OFFCURVE",
"270 -10 CURVE SMOOTH"
);
}
);
width = 600;
},
{
layerId = "9E6B41AB-2970-4C41-8B35-4DBE0D296A43";
paths = (
{
closed = 1;
nodes = (
"497 -10 OFFCURVE",
"603 74 OFFCURVE",
"603 245 CURVE SMOOTH",
"603 397 OFFCURVE",
"518 480 OFFCURVE",
"363 480 CURVE SMOOTH",
"330 480 OFFCURVE",
"309 476 OFFCURVE",
"282 465 CURVE",
"280 465 LINE",
"283 565 LINE",
"568 565 LINE",
"568 730 LINE",
"103 730 LINE",
"83 290 LINE",
"263 290 LINE",
"292 316 OFFCURVE",
"312 325 OFFCURVE",
"338 325 CURVE SMOOTH",
"379 325 OFFCURVE",
"398 302 OFFCURVE",
"398 255 CURVE SMOOTH",
"398 187 OFFCURVE",
"358 155 OFFCURVE",
"273 155 CURVE SMOOTH",
"220 155 OFFCURVE",
"170 167 OFFCURVE",
"103 194 CURVE",
"63 30 LINE",
"134 3 OFFCURVE",
"206 -10 OFFCURVE",
"283 -10 CURVE SMOOTH"
);
}
);
width = 660;
},
{
layerId = "9527F797-22C1-480E-A1FE-2CDBEBE1FD4C";
paths = (
{
closed = 1;
nodes = (
"454 -10 OFFCURVE",
"559 83 OFFCURVE",
"559 240 CURVE SMOOTH",
"559 385 OFFCURVE",
"473 468 OFFCURVE",
"322 468 CURVE SMOOTH",
"275 468 OFFCURVE",
"244 460 OFFCURVE",
"206 438 CURVE",
"204 438 LINE",
"217 632 LINE",
"527 632 LINE",
"527 730 LINE",
"117 730 LINE",
"94 330 LINE",
"189 330 LINE",
"228 361 OFFCURVE",
"261 373 OFFCURVE",
"307 373 CURVE SMOOTH",
"397 373 OFFCURVE",
"446 326 OFFCURVE",
"446 240 CURVE SMOOTH",
"446 143 OFFCURVE",
"383 88 OFFCURVE",
"272 88 CURVE SMOOTH",
"215 88 OFFCURVE",
"160 102 OFFCURVE",
"104 130 CURVE",
"72 39 LINE",
"135 6 OFFCURVE",
"203 -10 OFFCURVE",
"277 -10 CURVE SMOOTH"
);
}
);
width = 630;
}
);
},
